<svg xmlns="http://www.w3.org/2000/svg" version="1.1" xmlns:xlink="http://www.w3.org/1999/xlink" xmlns:svgjs="http://svgjs.com/svgjs" width="512" height="512" x="0" y="0" viewBox="0 0 33.866666 33.866668" style="enable-background:new 0 0 512 512" xml:space="preserve" class=""><g><linearGradient xmlns="http://www.w3.org/2000/svg" id="linearGradient2202"><stop id="stop2198" offset="0" stop-color="#f6f600"></stop><stop id="stop2200" offset="1" stop-color="#f69134"></stop></linearGradient><linearGradient xmlns="http://www.w3.org/2000/svg" id="linearGradient3363" gradientUnits="userSpaceOnUse" x1="-180.440378" x2="-180.440378" xmlns:xlink="http://www.w3.org/1999/xlink" xlink:href="#linearGradient2202" y1="97.375304" y2="99.607314"></linearGradient><linearGradient xmlns="http://www.w3.org/2000/svg" id="linearGradient8103" gradientUnits="userSpaceOnUse" x1="21.472" x2="13.562" xmlns:xlink="http://www.w3.org/1999/xlink" xlink:href="#linearGradient2202" y1="-3.59" y2="34.349"></linearGradient><linearGradient xmlns="http://www.w3.org/2000/svg" id="linearGradient8111" gradientUnits="userSpaceOnUse" x1="2.381" x2="6.697" xmlns:xlink="http://www.w3.org/1999/xlink" xlink:href="#linearGradient2202" y1="1.058" y2="5.236"></linearGradient><linearGradient xmlns="http://www.w3.org/2000/svg" id="linearGradient8119" gradientUnits="userSpaceOnUse" x1="2.381" x2="6.432" xmlns:xlink="http://www.w3.org/1999/xlink" xlink:href="#linearGradient2202" y1="32.808" y2="28.836"></linearGradient><linearGradient xmlns="http://www.w3.org/2000/svg" id="linearGradient8128" gradientUnits="userSpaceOnUse" x1="31.485" x2="27.685" xmlns:xlink="http://www.w3.org/1999/xlink" xlink:href="#linearGradient2202" y1="32.808" y2="28.77"></linearGradient><linearGradient xmlns="http://www.w3.org/2000/svg" id="linearGradient8136" gradientUnits="userSpaceOnUse" x1="31.485" x2="27.817" xmlns:xlink="http://www.w3.org/1999/xlink" xlink:href="#linearGradient2202" y1="1.058" y2="3.704"></linearGradient><linearGradient xmlns="http://www.w3.org/2000/svg" id="linearGradient8147" gradientTransform="matrix(0 -1.031 1.031 0 -.532 34.399)" gradientUnits="userSpaceOnUse" x1="6.515" x2="27.351" y1="16.933" y2="16.933"><stop id="stop1881" offset="0" stop-color="#ff5e3f"></stop><stop id="stop1883" offset="1" stop-color="#ffbe3f"></stop></linearGradient><g xmlns="http://www.w3.org/2000/svg" id="layer1"><g stroke-linecap="square"><path id="path8084" d="m30.162503 29.045514c-.82979.82979-3.49925-.11932-4.48343.519815-.98418.639134-1.202892 3.463844-2.298449 3.884389-1.095558.420545-3.148193-1.532277-4.307245-1.348701-1.159053.183576-2.50777 2.675119-3.679662 2.613703-1.171892-.06142-2.252783-2.68029-3.386298-2.984014-1.133514-.303724-3.3790302 1.423841-4.4246268.891083s-.967848-3.364856-1.8798292-4.103364-3.6660262-.073632-4.404534-.985613c-.73850777-.911981.4844371-3.467608-.048321-4.513205-.53275805-1.045596-3.3191327-1.558373-3.622857-2.691887-.3037243-1.133515 1.85295861-2.97078 1.79154234-4.142672-.06141628-1.171892-2.39833114-2.773658-2.21475524-3.932711.1835759-1.159052 2.90108679-1.960275 3.32163176-3.0558326.42054496-1.0955571-1.06283628-3.5093516-.4237021-4.4935319s3.44759064-.6108228 4.27738084-1.440613c.8297901-.8297901.4564326-3.63824662 1.4406129-4.2773808.9841804-.6391342 3.3979748.84424704 4.4935315.42370207 1.095558-.42054497 1.896781-3.13805587 3.055833-3.32163177 1.159053-.1835759 2.760819 2.1533389 3.932711 2.2147552 1.171892.061416 3.009157-2.0952666 4.142672-1.7915424 1.133514.3037243 1.646291 3.09009896 2.691887 3.62285704 1.045597.53275807 3.601224-.69018682 4.513205.048321.911981.73850779.247105 3.49255279.985613 4.40453389.738508.9119812 3.570606.8342326 4.103364 1.8798292s-1.194807 3.2911125-.891083 4.4246271c.303724 1.133514 2.922598 2.214405 2.984014 3.386298.06142 1.171892-2.430127 2.520609-2.613703 3.679661-.183576 1.159053 1.769246 3.211688 1.348701 4.307245s-3.245255 1.31427-3.884389 2.29845.309975 3.65364-.519815 4.48343z" fill="url(#linearGradient8103)" stroke-dasharray=".265 1.058" stroke-width=".265" transform="matrix(.793 -.212 .212 .793 .678 8.464)" paint-order="fill markers stroke" data-original="url(#linearGradient8103)"></path><path id="path8086" d="m5.7035879 1.6279214c.7620309.762031 1.0406808 2.8180233.5495729 3.3091311-.4911078.4911079-2.5471001.212458-3.3091311-.5495729-.7620309-.762031-.7620309-1.9975272.0000001-2.7595581.7620309-.76203097 1.9975271-.76203097 2.7595581-.0000001z" fill="url(#linearGradient8111)" stroke-dasharray=".265 1.058" stroke-width=".265" paint-order="fill markers stroke" data-original="url(#linearGradient8111)"></path><path id="path8089" d="m28.190422 1.6279214c-.762031.762031-1.040681 2.8180233-.549573 3.3091311.491108.4911079 2.5471.212458 3.309131-.5495729.762031-.762031.762031-1.9975272 0-2.7595581-.762031-.76203097-1.997527-.76203097-2.759558-.0000001z" fill="url(#linearGradient8136)" stroke-dasharray=".265 1.058" stroke-width=".265" paint-order="fill markers stroke" data-original="url(#linearGradient8136)"></path><path id="path8091" d="m5.7035879 32.246095c.7620309-.762031 1.0406808-2.818023.5495729-3.309131-.4911078-.491108-2.5471001-.212458-3.3091311.549573-.7620309.762031-.7620309 1.997527.0000001 2.759558.7620309.762031 1.9975271.762031 2.7595581 0z" fill="url(#linearGradient8119)" stroke-dasharray=".265 1.058" stroke-width=".265" paint-order="fill markers stroke" data-original="url(#linearGradient8119)"></path><path id="path8093" d="m28.190422 32.246095c-.762031-.762031-1.040681-2.818023-.549573-3.309131s2.5471-.212458 3.309131.549573.762031 1.997527 0 2.759558-1.997527.762031-2.759558 0z" fill="url(#linearGradient8128)" stroke-dasharray=".265 1.058" stroke-width=".265" paint-order="fill markers stroke" data-original="url(#linearGradient8128)"></path><path id="path8138" d="m16.933334 6.1879604a10.745373 10.745373 0 0 1 10.745372 10.7453736 10.745373 10.745373 0 0 1 -10.745372 10.745372 10.745373 10.745373 0 0 1 -10.7453735-10.745372 10.745373 10.745373 0 0 1 10.7453735-10.7453736z" fill="url(#linearGradient8147)" stroke-dasharray=".273 1.092" stroke-width=".273" paint-order="fill markers stroke" data-original="url(#linearGradient8147)"></path></g><path id="path8159" d="m16.802734 4.8164062-.0039.265625.529297.00586.0039-.2636718zm-.695312.027344-.527344.046875.02344.2636719.527343-.046875zm2.029297.033203-.0293.2636719.521484.064453.03711-.2617187zm-3.353516.1328125-.523437.1054688.05664.2578125.515625-.1035157zm4.673828.072266-.05664.2597657.511718.1191406.0625-.2578125zm-5.974609.2363282-.50586.1601562.08008.2519532.501953-.1582032zm7.267578.1132807-.087891.2480469.494141.1796875.09375-.2480469zm-8.527344.3378906-.484375.2167969.111328.2402344.478516-.2148437zm9.767578.1523438-.111328.2402344.472656.2304687.119141-.2382812zm-10.966796.4335938-.458985.2695312.134766.2265625.453125-.2636719zm12.15039.1914062-.138672.2246094.44336.2832031.144531-.2207031zm-13.2792968.5253906-.4257812.3203125.1601562.2089844.4218748-.3144531zm14.3828128.2265625-.160156.2109375.412109.3261719.166015-.2070313zm-15.4277346.609375-.3867188.3652344.1835938.1894531.3828125-.359375zm16.4453126.2597657-.183594.1894531.371094.3710937.189453-.1855468zm-17.388672.6875-.3476562.4023437.203125.1699219.34375-.3984375zm18.306641.2871093-.207032.1660157.332032.4121093.207031-.1660156zm-19.1445316.7558594-.2988282.4394535.2226563.146484.2949219-.435547zm19.9433596.3125005-.220703.146484.283203.441406.224609-.138672zm-20.6562502.814453-.2519532.470703.234375.123047.2480469-.464844zm21.3398432.33789-.238281.117188.230469.472656.240234-.111328zm-21.9277339.865235-.1972656.49414.2480469.09375.1933594-.488281zm22.4746099.351562-.248047.09375.179687.494141.248047-.08789zm-22.9238286.90625-.1425782.511719.2539063.07031.140625-.507812zm23.3359376.367188-.257813.0625.121094.511718.257813-.05469zm-23.6464845.933593-.080078.527344.2617187.03711.080078-.519531zm23.9101565.376953-.261719.03516.06641.521484.261719-.0293zm-24.0703128.949219-.025391.533203.2636719.0098.025391-.525391zm24.1953128.382813-.265625.0039.0078.529297.263672-.0039zm-23.9511721.939453-.2636719.017578.0332031.527344.2636719-.015625zm23.6601561.373047-.05078.523437.261719.0293.05273-.529297zm-23.5312499.929687-.2617187.04297.09375.525391.2597656-.05078zm23.3632809.369141-.02539.128906-.01563.08594-.03711.169922-.0293.128906.259766.05664.02734-.128906.03711-.173828.01758-.08789.02539-.130859zm-23.0937496.912109-.2558594.06836.1484375.511718.2539063-.07422zm22.7871096.357422-.04102.125-.07617.232422-.0059.01563-.04297.125.248047.08789.04492-.125.0059-.01953.07813-.234375.03906-.126953zm-22.3789065.882813-.2460937.09961.2070312.492187.2421875-.107421zm21.9277345.345703-.21875.478515.240234.111328.220703-.484374zm-21.3808595.84375-.234375.125.2558594.466797.2304687-.13086zm20.8007815.326172-.271485.451171.22461.140626.27539-.457032zm-20.1308596.794921-.2167969.150391.3085937.435547.2128907-.15625zm19.4199216.306641-.316406.419922.210938.160156.320312-.425781zm-18.628906.734375-.1992188.175781.3554688.396485.1953125-.181641zm17.806641.279297-.361329.380859.189454.185547.365234-.384765zm-16.9042972.667969-.1796876.193359.3945313.357422.1757813-.197266zm15.9765622.251953-.404297.341797.171875.203125.404297-.341797zm-14.9785154.591797-.1542968.214844.4316402.308593.150391-.216797zm13.9511714.21875-.4375.294922.146485.220703.441406-.296875zm-12.861328.509765-.134765.228516.46289.261719.128907-.230469zm11.753907.185547-.466797.242188.117187.236328.472657-.244141zm-10.595703.417969-.107422.242187.490234.208985.09961-.244141zm9.416015.148437-.490234.191407.09375.248047.496093-.195313zm-8.195312.324219-.08203.251953.509766.154297.07422-.253906zm6.96289.109375-.507812.132813.0625.257812.513672-.134765zm-5.701172.22461-.04883.259765.523438.09375.04297-.259765zm4.425782.06836-.519532.07813.03516.261719.527343-.07813zm-3.13086.123047-.02344.263672.53125.03711.01758-.263672zm1.833985.03125-.529297.01953.0098.263672.529297-.01953z" fill="#d02f33" font-variant-ligatures="normal" font-variant-position="normal" font-variant-caps="normal" font-variant-numeric="normal" font-variant-alternates="normal" font-variant-east-asian="normal" font-feature-settings="normal" font-variation-settings="normal" text-indent="0" text-align="start" text-decoration-line="none" text-decoration-style="solid" text-decoration-color="#000000" text-transform="none" text-orientation="mixed" white-space="normal" shape-padding="0" shape-margin="0" inline-size="0" isolation="auto" mix-blend-mode="normal" solid-color="#000000" solid-opacity="1" vector-effect="none" paint-order="fill markers stroke" data-original="#d02f33"></path></g></g></svg>