<svg xmlns="http://www.w3.org/2000/svg" version="1.1" xmlns:xlink="http://www.w3.org/1999/xlink" xmlns:svgjs="http://svgjs.com/svgjs" width="512" height="512" x="0" y="0" viewBox="0 0 33.866666 33.866668" style="enable-background:new 0 0 512 512" xml:space="preserve" class=""><g><linearGradient xmlns="http://www.w3.org/2000/svg" id="linearGradient6311"><stop id="stop6307" offset="0" stop-color="#f3ffff"></stop><stop id="stop6309" offset="1" stop-color="#9bbaff"></stop></linearGradient><linearGradient xmlns="http://www.w3.org/2000/svg" id="linearGradient3363" gradientUnits="userSpaceOnUse" x1="-180.440378" x2="-180.440378" y1="97.375304" y2="99.607314"><stop id="stop2198" offset="0" stop-color="#f6f600"></stop><stop id="stop2200" offset="1" stop-color="#f69134"></stop></linearGradient><linearGradient xmlns="http://www.w3.org/2000/svg" id="linearGradient3218"><stop id="stop3214" offset="0" stop-color="#eaf2ff"></stop><stop id="stop3216" offset="1" stop-color="#9bbaff"></stop></linearGradient><linearGradient xmlns="http://www.w3.org/2000/svg" id="linearGradient9418" gradientTransform="matrix(0 1 -1 0 33.867 0)" gradientUnits="userSpaceOnUse" x1="1.058" x2="32.808" y1="16.933" y2="16.933"><stop id="stop3724" offset="0" stop-color="#f5f8ff"></stop><stop id="stop3726" offset="1" stop-color="#a0c9ff"></stop></linearGradient><linearGradient xmlns="http://www.w3.org/2000/svg" id="linearGradient9428" gradientUnits="userSpaceOnUse" x1="6.485" x2="11.069" xmlns:xlink="http://www.w3.org/1999/xlink" xlink:href="#linearGradient3218" y1="1.675" y2="1.675"></linearGradient><linearGradient xmlns="http://www.w3.org/2000/svg" id="linearGradient9432" gradientUnits="userSpaceOnUse" x1="-41.887" x2="-38.262" xmlns:xlink="http://www.w3.org/1999/xlink" xlink:href="#linearGradient3218" y1="-3.571" y2="-3.185"></linearGradient><linearGradient xmlns="http://www.w3.org/2000/svg" id="linearGradient9448" gradientTransform="matrix(-.049 .999 -.995 -.102 19.512 -5.095)" gradientUnits="userSpaceOnUse" x1="12.282" x2="15.811" xmlns:xlink="http://www.w3.org/1999/xlink" xlink:href="#linearGradient6311" y1="8.08" y2="8.08"></linearGradient><linearGradient xmlns="http://www.w3.org/2000/svg" id="linearGradient9456" gradientTransform="matrix(.161 -.902 .749 .42 -8.174 22.116)" gradientUnits="userSpaceOnUse" x1="6.196" x2="15.172" xmlns:xlink="http://www.w3.org/1999/xlink" xlink:href="#linearGradient6311" y1="20.924" y2="21.012"></linearGradient><linearGradient xmlns="http://www.w3.org/2000/svg" id="linearGradient9464" gradientUnits="userSpaceOnUse" x1="-14.967" x2="-10.337" xmlns:xlink="http://www.w3.org/1999/xlink" xlink:href="#linearGradient6311" y1="-22.317" y2="-22.317"></linearGradient><linearGradient xmlns="http://www.w3.org/2000/svg" id="linearGradient9472" gradientTransform="matrix(-.999 -.049 .102 -.995 48.286 48.68)" gradientUnits="userSpaceOnUse" x1="24.993" x2="28.523" xmlns:xlink="http://www.w3.org/1999/xlink" xlink:href="#linearGradient3218" y1="23.544" y2="23.544"></linearGradient><linearGradient xmlns="http://www.w3.org/2000/svg" id="linearGradient9483" gradientUnits="userSpaceOnUse" x1="-14.877" x2="-10.293" xmlns:xlink="http://www.w3.org/1999/xlink" xlink:href="#linearGradient3218" y1="-25.254" y2="-25.254"></linearGradient><linearGradient xmlns="http://www.w3.org/2000/svg" id="linearGradient9485" gradientUnits="userSpaceOnUse" x1="-20.774" x2="-17.149" xmlns:xlink="http://www.w3.org/1999/xlink" xlink:href="#linearGradient3218" y1="22.421" y2="22.807"></linearGradient><g xmlns="http://www.w3.org/2000/svg" id="layer1"><path id="ellipse9479" d="m-16.190632 22.420692a2.291836 2.9115672 0 0 1 -2.291836 2.911568 2.291836 2.9115672 0 0 1 -2.291836-2.911568 2.291836 2.9115672 0 0 1 2.291836-2.911567 2.291836 2.9115672 0 0 1 2.291836 2.911567" fill="url(#linearGradient9485)" transform="matrix(.621 -.784 .784 .621 0 0)" paint-order="fill markers stroke" data-original="url(#linearGradient9485)"></path><path id="ellipse9481" d="m-10.293755-25.253798a2.291836 2.9115672 0 0 1 -2.291836 2.911568 2.291836 2.9115672 0 0 1 -2.291836-2.911568 2.291836 2.9115672 0 0 1 2.291836-2.911567 2.291836 2.9115672 0 0 1 2.291836 2.911567" fill="url(#linearGradient9483)" transform="matrix(-.628 .778 -.778 -.628 0 0)" paint-order="fill markers stroke" data-original="url(#linearGradient9483)"></path><path id="ellipse9430" d="m-37.303821-3.57078a2.291836 2.9115672 0 0 1 -2.291836 2.91156717 2.291836 2.9115672 0 0 1 -2.291836-2.91156717 2.291836 2.9115672 0 0 1 2.291836-2.9115672 2.291836 2.9115672 0 0 1 2.291836 2.9115672" fill="url(#linearGradient9432)" transform="matrix(-.778 -.628 .628 -.778 0 0)" paint-order="fill markers stroke" data-original="url(#linearGradient9432)"></path><path id="path9420" d="m11.068655 1.6750765a2.291836 2.9115672 0 0 1 -2.2918358 2.9115672 2.291836 2.9115672 0 0 1 -2.291836-2.9115672 2.291836 2.9115672 0 0 1 2.291836-2.9115672 2.291836 2.9115672 0 0 1 2.2918358 2.9115672" fill="url(#linearGradient9428)" transform="matrix(.778 .628 -.628 .778 0 0)" paint-order="fill markers stroke" data-original="url(#linearGradient9428)"></path><path id="path9409" d="m16.933332 32.808333a15.875001 15.875001 0 0 1 -15.8750005-15.875001 15.875001 15.875001 0 0 1 15.8750005-15.8750005 15.875001 15.875001 0 0 1 15.875001 15.8750005 15.875001 15.875001 0 0 1 -15.875001 15.875001z" fill="url(#linearGradient9418)" paint-order="fill markers stroke" data-original="url(#linearGradient9418)"></path><path id="path9434" d="m-10.336285-22.31665a2.3151042 3.5388021 0 0 1 -2.315104 3.538802 2.3151042 3.5388021 0 0 1 -2.315104-3.538802 2.3151042 3.5388021 0 0 1 2.315104-3.538803 2.3151042 3.5388021 0 0 1 2.315104 3.538803z" fill="url(#linearGradient9464)" transform="matrix(-.771 .636 -.636 -.771 0 0)" paint-order="fill markers stroke" data-original="url(#linearGradient9464)"></path><path id="ellipse9436" d="m7.9475375 16.49397a4.015378 2.8550367 65.188226 0 0 -1.5519389 2.028966 4.015378 2.8550367 65.188226 0 0 2.4173371 5.138343 4.015378 2.8550367 65.188226 0 0 3.6424433-1.742849 4.015378 2.8550367 65.188226 0 0 -2.417169-5.137854 4.015378 2.8550367 65.188226 0 0 -2.0906725-.286606z" fill="url(#linearGradient9456)" paint-order="fill markers stroke" data-original="url(#linearGradient9456)"></path><path id="ellipse9438" d="m22.208956 23.85915a1.7452733 1.8899415 25.463779 0 1 1.954176-1.77537 1.7452733 1.8899415 25.463779 0 1 1.570853 1.94869 1.7452733 1.8899415 25.463779 0 1 -1.954177 1.775371 1.7452733 1.8899415 25.463779 0 1 -1.570852-1.948691" fill="url(#linearGradient9472)" paint-order="fill markers stroke" data-original="url(#linearGradient9472)"></path><path id="ellipse9440" d="m10.697566 9.8703363a1.8899415 1.7452733 25.463779 0 1 -1.7753696-1.9541765 1.8899415 1.7452733 25.463779 0 1 1.9486896-1.5708521 1.8899415 1.7452733 25.463779 0 1 1.77537 1.9541763 1.8899415 1.7452733 25.463779 0 1 -1.94869 1.5708523" fill="url(#linearGradient9448)" paint-order="fill markers stroke" data-original="url(#linearGradient9448)"></path><path id="path9493" d="m16.925781 2.7773438-.533203.011719.0098.265625.527344-.011719zm.802735.023437-.01563.2636719.523437.039063.02344-.2636718zm-2.136719.039063-.527344.058594.03125.2636719.525391-.060547zm3.466797.095703-.04492.2617187.519565.089841.04883-.2597656zm-4.78711.09375-.521484.1074219.05664.2597656.515625-.1074219zm6.095704.1660156-.06836.2558594.511719.138671.06836-.2558594zm-7.394532.1445314-.507812.1582031.082031.2519531.501953-.15625zm8.669922.2421874-.08789.25.494144.181645.09375-.2460938zm-9.933594.1914063-.490234.2070313.107422.2421874.484375-.2050781zm11.171875.3125-.113281.2382813.474614.230469.117183-.2363284zm-12.386718.2382813-.46875.2519531.128906.2324219.462891-.25zm13.570312.3789062-.134765.2285156.449218.273436.138672-.2246093zm-14.7304686.2851562-.4414063.2949219.1503907.21875.4375-.2929687zm15.8496096.4414063-.15625.2148437.421876.314453.160155-.2089842zm-16.9394534.328125-.4121094.3320313.1660157.2050781.4121093-.3320313zm17.9863284.5019531-.175781.1972656.388674.3535157.181638-.1933594zm-19.0019534.3652344-.3769531.3710938.1835937.1894531.3789063-.3710938zm19.9648434.5566406-.193359.1816406.35546.3886716.197265-.1757812zm-20.8925778.4042969-.3417968.4042969.203125.1699218.3417968-.4042968zm21.7675778.6054687-.210937.1621094.316413.4199222.214844-.15625zm-22.5976559.4355469-.3046875.4355469.2167969.1503906.3027344-.4296875zm23.3730469.6523438-.224609.140625.275387.4472652.226563-.1347656zm-24.1054688.4648437-.2636718.4628904.2324218.128907.2597657-.4570318zm24.7753908.6894534-.238281.11914.236321.472657.236328-.117188zm-25.3984376.490234-.21875.486328.2421875.105469.2148437-.480469zm25.9550776.72461-.248046.09375.18945.49414.246093-.09375zm-26.4648432.509765-.171875.503906.2519531.08203.1679687-.498047zm26.9003902.748047-.253906.07617.14262.505855.253907-.06836zm-27.2910152.529297-.1210938.517578.2578125.05664.1191406-.511719zm27.6093752.767578-.259766.05078.09179.517581.261719-.04297zm-27.8789065.541016-.0703125.527343.2636719.0293.068359-.519531zm28.0742185.78125-.263672.02344.04105.523436.263672-.01563zm-28.2148435.542968-.023437.533203.2636719.0098.023437-.52539zm28.0195315.78711-.0059.529297.263672.0039.0079-.529297zm-27.7734378.539062-.2636718.0098.027344.53125.2636719-.01563zm27.7187498.773438-.05669.521486.263671.03125.05669-.529294zm-27.6152341.53125-.2617188.03711.078125.527344.2597657-.04492zm27.4394531.765625-.10546.515625.257813.05469.10742-.521484zm-27.2148438.523437-.2578124.06445.125.513672.2578124-.0625zm26.9179688.751953-.15625.501949.251953.08203.15626-.509768zm-26.5683594.513672-.2519531.08203.1738281.503906.25-.08789zm26.1503904.726563-.20122.486369.242188.105469.20507-.492175zm-25.6835935.498047-.2441406.105468.2226562.484375.2382813-.111328zm25.1503905.699218-.246097.466797.234375.125.2461-.46875zm-24.5722655.47461-.2304687.128906.265625.460938.2285156-.134766zm23.9296875.666015-.291024.441407.220703.146484.291024-.443359zm-23.2421875.449219-.2167969.150391.308593.433593.2128906-.15625zm22.4882815.626953-.32616.410158.205078.166015.332063-.416016zm-21.699219.417969-.2011719.169922.347656.402344.1992187-.175782zm20.853516.580078-.36523.378906.189453.185547.369134-.382812zm-19.9687504.386719-.1855468.189453.3847649.367191.1816406-.19336zm19.0332034.529297-.398437.343756.169922.201172.404293-.345702zm-18.0625002.349609-.1660157.207031.4179691.328126.1601562-.208984zm17.0449222.474609-.429688.30469.150391.216797.433598-.306646zm-15.9960941.310547-.1464844.220703.4472661.289067.140625-.224609zm14.9042971.416016-.455082.26172.128906.230468.460937-.26562zm-13.78711.265625-.123046.234375.472654.246077.117187-.236328zm12.632813.353516-.478516.21679.105469.242188.486328-.22069zm-11.455078.222656-.101563.24414.490235.20117.09961-.246093zm10.248047.283203-.498047.16991.08203.251953.503903-.17188zm-9.019532.173828-.08203.251953.509813.15625.07617-.253906zm7.769532.21875-.511713.1211.05664.257812.519566-.12309zm-6.50586.123047-.05469.257812.521481.10547.04883-.259765zm5.226563.146484-.525391.07422.03711.261719.523437-.07227zm-3.999859.08007-.0293.261719.529297.05473.02344-.263671zm2.917339.04888-.525389.0255.0098.263672.531252-.0255zm-1.639931.06047-.0039.265625.529297.006.002-.263672z" fill="#9bbaff" font-variant-ligatures="normal" font-variant-position="normal" font-variant-caps="normal" font-variant-numeric="normal" font-variant-alternates="normal" font-variant-east-asian="normal" font-feature-settings="normal" font-variation-settings="normal" text-indent="0" text-align="start" text-decoration-line="none" text-decoration-style="solid" text-decoration-color="#000000" text-transform="none" text-orientation="mixed" white-space="normal" shape-padding="0" shape-margin="0" inline-size="0" isolation="auto" mix-blend-mode="normal" solid-color="#000000" solid-opacity="1" vector-effect="none" paint-order="fill markers stroke" data-original="#9bbaff" class=""></path></g></g></svg>