<svg xmlns="http://www.w3.org/2000/svg" version="1.1" xmlns:xlink="http://www.w3.org/1999/xlink" xmlns:svgjs="http://svgjs.com/svgjs" width="512" height="512" x="0" y="0" viewBox="0 0 33.866666 33.866668" style="enable-background:new 0 0 512 512" xml:space="preserve" class=""><g><linearGradient xmlns="http://www.w3.org/2000/svg" id="linearGradient3363" gradientUnits="userSpaceOnUse" x1="-180.440378" x2="-180.440378" y1="97.375304" y2="99.607314"><stop id="stop2198" offset="0" stop-color="#f6f600"></stop><stop id="stop2200" offset="1" stop-color="#f69134"></stop></linearGradient><linearGradient xmlns="http://www.w3.org/2000/svg" id="linearGradient3728"><stop id="stop3724" offset="0" stop-color="#f5f8ff"></stop><stop id="stop3726" offset="1" stop-color="#a0c9ff"></stop></linearGradient><linearGradient xmlns="http://www.w3.org/2000/svg" id="linearGradient11196" gradientUnits="userSpaceOnUse" x1="11.508912" x2="11.508912" xmlns:xlink="http://www.w3.org/1999/xlink" xlink:href="#linearGradient3728" y1="8.12927" y2="24.909145"></linearGradient><linearGradient xmlns="http://www.w3.org/2000/svg" id="linearGradient11204" gradientUnits="userSpaceOnUse" x1="16.085" x2="16.085" xmlns:xlink="http://www.w3.org/1999/xlink" xlink:href="#linearGradient3728" y1="11.398" y2="30.148"></linearGradient><linearGradient xmlns="http://www.w3.org/2000/svg" id="linearGradient5734" gradientUnits="userSpaceOnUse" x1="19.751112" x2="19.751112" xmlns:xlink="http://www.w3.org/1999/xlink" xlink:href="#linearGradient3728" y1="3.97627" y2="15.993645"></linearGradient><g xmlns="http://www.w3.org/2000/svg" id="layer1"><path id="path5732" d="m26.467503 10.291688a6.6262175 6.6262175 0 0 1 -6.626217 6.626217 6.6262175 6.6262175 0 0 1 -6.626218-6.626217 6.6262175 6.6262175 0 0 1 6.626218-6.626219 6.6262175 6.6262175 0 0 1 6.626217 6.626219z" fill="url(#linearGradient5734)" paint-order="fill markers stroke" data-original="url(#linearGradient5734)"></path><path id="path11170" d="m20.872167 16.933335a9.2454586 9.2454586 0 0 1 -9.245458 9.245458 9.2454586 9.2454586 0 0 1 -9.2454586-9.245458 9.2454586 9.2454586 0 0 1 9.2454586-9.2454599 9.2454586 9.2454586 0 0 1 9.245458 9.2454599z" fill="url(#linearGradient11196)" paint-order="fill markers stroke" data-original="url(#linearGradient11196)"></path><path id="circle11180" d="m16.085323 19.534239c.000139 1.224565.338677 2.425273.978235 3.469555h-12.4333497c-1.9788198 0-3.571875 1.593055-3.571875 3.571875 0 1.978819 1.5930552 3.571875 3.571875 3.571875h24.6062497c1.978819 0 3.571875-1.593056 3.571875-3.571875 0-1.97882-1.593056-3.571875-3.571875-3.571875h-.839227c.639377-1.044334.977736-2.24504.97772-3.469555-.000034-3.669875-2.975198-6.644807-6.645073-6.644556-3.779569 0-6.644714 3.001357-6.644555 6.644556z" fill="url(#linearGradient11204)" paint-order="fill markers stroke" data-original="url(#linearGradient11204)"></path><path id="path6680" d="m2.1667924 28.141982v.263551h.5291667v-.263551zm1.3224 0v.263551h.5291666v-.263551zm1.3239501 0v.263551h.5291666v-.263551zm1.3223999 0v.263551h.5291667v-.263551zm1.3223999 0v.263551h.5291667v-.263551zm1.3239501 0v.263551h.5291667v-.263551zm1.3223996 0v.263551h.529167v-.263551zm1.3224 0v.263551h.529167v-.263551zm1.32395 0v.263551h.527617v-.263551zm1.222665 0v.263551h.529166v-.263551zm1.32395 0v.263551h.529167v-.263551zm1.3224 0v.263551h.529167v-.263551zm1.3224 0v.263551h.529166v-.263551zm1.32395 0v.263551h.529167v-.263551zm1.3224 0v.263551h.529166v-.263551zm1.3224 0v.263551h.529166v-.263551zm1.32395 0v.263551h.529166v-.263551zm1.3224 0v.263551h.529166v-.263551zm1.3224 0v.263551h.529166v-.263551zm1.323948 0v.263551h.529167v-.263551zm1.322401 0v.263551h.529167v-.263551zm1.322401 0v.263551h.529167v-.263551zm1.323948 0v.263551h.527619v-.263551z" fill="#6e98f5" font-variant-ligatures="normal" font-variant-position="normal" font-variant-caps="normal" font-variant-numeric="normal" font-variant-alternates="normal" font-variant-east-asian="normal" font-feature-settings="normal" font-variation-settings="normal" text-indent="0" text-align="start" text-decoration-line="none" text-decoration-style="solid" text-decoration-color="#000000" text-transform="none" text-orientation="mixed" white-space="normal" shape-padding="0" shape-margin="0" inline-size="0" isolation="auto" mix-blend-mode="normal" solid-color="#000000" solid-opacity="1" vector-effect="none" paint-order="markers fill stroke" data-original="#6e98f5"></path></g></g></svg>