<svg xmlns="http://www.w3.org/2000/svg" version="1.1" xmlns:xlink="http://www.w3.org/1999/xlink" xmlns:svgjs="http://svgjs.com/svgjs" width="512" height="512" x="0" y="0" viewBox="0 0 33.866666 33.866668" style="enable-background:new 0 0 512 512" xml:space="preserve" class=""><g><linearGradient xmlns="http://www.w3.org/2000/svg" id="linearGradient2202"><stop id="stop2198" offset="0" stop-color="#f6f600"></stop><stop id="stop2200" offset="1" stop-color="#f69134"></stop></linearGradient><linearGradient xmlns="http://www.w3.org/2000/svg" id="linearGradient3363" gradientUnits="userSpaceOnUse" x1="-180.440378" x2="-180.440378" xmlns:xlink="http://www.w3.org/1999/xlink" xlink:href="#linearGradient2202" y1="97.375304" y2="99.607314"></linearGradient><linearGradient xmlns="http://www.w3.org/2000/svg" id="linearGradient6216" gradientTransform="matrix(0 -.913 .913 0 7.825 26.042)" gradientUnits="userSpaceOnUse" x1="25.903" x2="7.326" xmlns:xlink="http://www.w3.org/1999/xlink" xlink:href="#linearGradient2202" y1="24.454" y2="12.093"></linearGradient><linearGradient xmlns="http://www.w3.org/2000/svg" id="linearGradient11196-2-2-9" gradientUnits="userSpaceOnUse" x1="11.507912" x2="11.507912" xmlns:xlink="http://www.w3.org/1999/xlink" xlink:href="#linearGradient7435" y1="10.78827" y2="27.568145"></linearGradient><linearGradient xmlns="http://www.w3.org/2000/svg" id="linearGradient7435"><stop id="stop7431" offset="0" stop-color="#bca6ae"></stop><stop id="stop7433" offset="1" stop-color="#534666"></stop></linearGradient><linearGradient xmlns="http://www.w3.org/2000/svg" id="linearGradient11204-6-9-5" gradientUnits="userSpaceOnUse" x1="16.084" x2="16.084" xmlns:xlink="http://www.w3.org/1999/xlink" xlink:href="#linearGradient7435" y1="14.057" y2="32.807"></linearGradient><g xmlns="http://www.w3.org/2000/svg" id="layer1"><path id="path6214" d="m23.292746 1.058123c-5.25562.0000247-9.51613 4.2605354-9.516155 9.516154.000025 5.255607 4.260535 9.51613 9.516155 9.516143 5.255619-.000013 9.516129-4.260536 9.516154-9.516143.000074-.8259658-.925556-1.1636935-1.489298-.5841414-.970675.9978924-2.321251 1.5941584-3.773509 1.5942444-2.906742.000149-5.263252-2.3560771-5.263462-5.2628068.000086-1.4402325.586529-2.7804668 1.569551-3.7493231.525427-.5178557.318712-1.507063-.480841-1.5137931-.02623-.0002227-.05246-.000334-.07856-.000334z" fill="url(#linearGradient6216)" stroke-dasharray=".242 .967" stroke-linecap="square" stroke-width=".242" paint-order="fill markers stroke" data-original="url(#linearGradient6216)"></path><path id="path11170-2-8-8" d="m20.87159 19.592187a9.2454587 9.2454587 0 0 1 -9.24545 9.24546 9.2454587 9.2454587 0 0 1 -9.24546-9.24546 9.2454587 9.2454587 0 0 1 9.24546-9.24546 9.2454587 9.2454587 0 0 1 9.24545 9.24546z" fill="url(#linearGradient11196-2-2-9)" paint-order="fill markers stroke" data-original="url(#linearGradient11196-2-2-9)"></path><path id="circle11180-2-6-7" d="m22.89002 18.338367a5.355413 5.355413 0 0 0 -5.3511 5.35575 5.355413 5.355413 0 0 0 .37518 1.96835h-13.28446c-1.97883 0-3.57188 1.59306-3.57188 3.57188s1.59305 3.57187 3.57188 3.57187h24.60625c1.97881 0 3.57187-1.59305 3.57187-3.57187s-1.59306-3.57188-3.57187-3.57188h-1.36116a5.355413 5.355413 0 0 0 .37517-1.96835 5.355413 5.355413 0 0 0 -5.35575-5.35575 5.355413 5.355413 0 0 0 -.004 0z" fill="url(#linearGradient11204-6-9-5)" paint-order="fill markers stroke" data-original="url(#linearGradient11204-6-9-5)"></path><path id="path6680-6-1" d="m2.16622 30.800917v.26355h.52917v-.26355zm1.3224 0v.26355h.52917v-.26355zm1.32395 0v.26355h.52917v-.26355zm1.3224 0v.26355h.52917v-.26355zm1.3224 0v.26355h.52917v-.26355zm1.32395 0v.26355h.52917v-.26355zm1.3224 0v.26355h.52917v-.26355zm1.3224 0v.26355h.52917v-.26355zm1.32395 0v.26355h.52762v-.26355zm1.22266 0v.26355h.52917v-.26355zm1.32395 0v.26355h.52917v-.26355zm1.3224 0v.26355h.52917v-.26355zm1.3224 0v.26355h.52917v-.26355zm1.32395 0v.26355h.52917v-.26355zm1.3224 0v.26355h.52917v-.26355zm1.3224 0v.26355h.52917v-.26355zm1.32395 0v.26355h.52917v-.26355zm1.3224 0v.26355h.52917v-.26355zm1.3224 0v.26355h.52917v-.26355zm1.32395 0v.26355h.52917v-.26355zm1.3224 0v.26355h.52917v-.26355zm1.3224 0v.26355h.52917v-.26355zm1.32395 0v.26355h.52762v-.26355z" fill="#433850" font-variant-ligatures="normal" font-variant-position="normal" font-variant-caps="normal" font-variant-numeric="normal" font-variant-alternates="normal" font-variant-east-asian="normal" font-feature-settings="normal" font-variation-settings="normal" text-indent="0" text-align="start" text-decoration-line="none" text-decoration-style="solid" text-decoration-color="#000000" text-transform="none" text-orientation="mixed" white-space="normal" shape-padding="0" shape-margin="0" inline-size="0" isolation="auto" mix-blend-mode="normal" solid-color="#000000" solid-opacity="1" vector-effect="none" paint-order="markers fill stroke" data-original="#433850"></path></g></g></svg>