<svg xmlns="http://www.w3.org/2000/svg" version="1.1" xmlns:xlink="http://www.w3.org/1999/xlink" xmlns:svgjs="http://svgjs.com/svgjs" width="512" height="512" x="0" y="0" viewBox="0 0 33.866666 33.866668" style="enable-background:new 0 0 512 512" xml:space="preserve" class=""><g><linearGradient xmlns="http://www.w3.org/2000/svg" id="linearGradient2202"><stop id="stop2198" offset="0" stop-color="#f6f600"></stop><stop id="stop2200" offset="1" stop-color="#f69134"></stop></linearGradient><linearGradient xmlns="http://www.w3.org/2000/svg" id="linearGradient3363" gradientUnits="userSpaceOnUse" x1="-180.440378" x2="-180.440378" xmlns:xlink="http://www.w3.org/1999/xlink" xlink:href="#linearGradient2202" y1="97.375304" y2="99.607314"></linearGradient><linearGradient xmlns="http://www.w3.org/2000/svg" id="linearGradient3728"><stop id="stop3724" offset="0" stop-color="#f5f8ff"></stop><stop id="stop3726" offset="1" stop-color="#a0c9ff"></stop></linearGradient><linearGradient xmlns="http://www.w3.org/2000/svg" id="linearGradient11196" gradientUnits="userSpaceOnUse" x1="11.508912" x2="11.508912" xmlns:xlink="http://www.w3.org/1999/xlink" xlink:href="#linearGradient3728" y1="10.79527" y2="27.575145"></linearGradient><linearGradient xmlns="http://www.w3.org/2000/svg" id="linearGradient11204" gradientUnits="userSpaceOnUse" x1="16.085" x2="16.085" xmlns:xlink="http://www.w3.org/1999/xlink" xlink:href="#linearGradient3728" y1="14.065" y2="32.815"></linearGradient><linearGradient xmlns="http://www.w3.org/2000/svg" id="linearGradient11212" gradientTransform="matrix(0 -.576 .576 0 12.72 20.337)" gradientUnits="userSpaceOnUse" x1="6.515" x2="27.351" y1="16.933" y2="16.933"><stop id="stop1881" offset="0" stop-color="#ff5e3f"></stop><stop id="stop1883" offset="1" stop-color="#ffbe3f"></stop></linearGradient><linearGradient xmlns="http://www.w3.org/2000/svg" id="linearGradient11222" gradientTransform="matrix(.097 .616 -.616 .097 23.619 -10.298)" gradientUnits="userSpaceOnUse" x1="17.661" x2="47.955" xmlns:xlink="http://www.w3.org/1999/xlink" xlink:href="#linearGradient2202" y1="7.21" y2="7.21"></linearGradient><g xmlns="http://www.w3.org/2000/svg" id="layer1"><path id="path11214" d="m16.751434 18.328399c-.639078-.464813-.681477-2.175632-1.14564-2.815181-.464165-.639549-2.077571-1.21018-2.321385-1.961862-.243816-.751681.727478-2.160684.727878-2.950919.0004-.7902338-.969464-2.200221-.724887-2.9516553.244577-.7514338 1.858561-1.3204293 2.323373-1.9595073.464813-.6390774.508945-2.349853 1.148494-2.8140174.63955-.4641636 2.279737.024186 3.031418-.2196299.751681-.2438149 1.792955-1.6019202 2.58319-1.6015196.790234.0004001 1.830128 1.3595609 2.581563 1.604138.751434.2445765 2.392116-.2421088 3.031194.2227038.639078.464812.681476 2.1756314 1.14564 2.8151795.464164.6395486 2.07757 1.2101808 2.321386 1.9618624.243814.7516814-.72748 2.160684-.72788 2.9509188-.0004.790235.969464 2.200221.724886 2.951656-.244576.751434-1.858561 1.320429-2.323372 1.959506-.464813.639078-.508946 2.349855-1.148494 2.814018-.639549.464164-2.279737-.02418-3.031418.219631-.751682.243814-1.792955 1.601919-2.583189 1.601519-.790235-.0004-1.83013-1.359561-2.581563-1.604138-.751435-.244577-2.392116.242108-3.031194-.222703z" fill="url(#linearGradient11222)" paint-order="fill markers stroke" data-original="url(#linearGradient11222)"></path><path id="path11210" d="m22.467807 4.5917595a5.9973209 5.9973209 0 0 1 5.997319 5.9973225 5.9973209 5.9973209 0 0 1 -5.997319 5.997321 5.9973209 5.9973209 0 0 1 -5.997323-5.997321 5.9973209 5.9973209 0 0 1 5.997323-5.9973225z" fill="url(#linearGradient11212)" stroke-dasharray=".152 .609" stroke-linecap="square" stroke-width=".152" paint-order="fill markers stroke" data-original="url(#linearGradient11212)"></path><path id="path11170" d="m20.872167 19.599807a9.2454586 9.2454586 0 0 1 -9.245458 9.245458 9.2454586 9.2454586 0 0 1 -9.2454586-9.245458 9.2454586 9.2454586 0 0 1 9.2454586-9.245459 9.2454586 9.2454586 0 0 1 9.245458 9.245459z" fill="url(#linearGradient11196)" paint-order="fill markers stroke" data-original="url(#linearGradient11196)"></path><path id="circle11180" d="m16.085323 22.200711c.000139 1.224565.338677 2.425273.978235 3.469555h-12.4333497c-1.9788198 0-3.571875 1.593055-3.571875 3.571875 0 1.978819 1.5930552 3.571875 3.571875 3.571875h24.6062497c1.978819 0 3.571875-1.593056 3.571875-3.571875 0-1.97882-1.593056-3.571875-3.571875-3.571875h-.839227c.639377-1.044334.977736-2.24504.97772-3.469555-.000034-3.669875-2.975198-6.644807-6.645073-6.644556-3.779569 0-6.644714 3.001357-6.644555 6.644556z" fill="url(#linearGradient11204)" paint-order="fill markers stroke" data-original="url(#linearGradient11204)"></path><path id="path6680" d="m2.1667924 30.808454v.263551h.5291667v-.263551zm1.3224 0v.263551h.5291666v-.263551zm1.3239501 0v.263551h.5291666v-.263551zm1.3223999 0v.263551h.5291667v-.263551zm1.3223999 0v.263551h.5291667v-.263551zm1.3239501 0v.263551h.5291667v-.263551zm1.3223996 0v.263551h.529167v-.263551zm1.3224 0v.263551h.529167v-.263551zm1.32395 0v.263551h.527617v-.263551zm1.222665 0v.263551h.529166v-.263551zm1.32395 0v.263551h.529167v-.263551zm1.3224 0v.263551h.529167v-.263551zm1.3224 0v.263551h.529166v-.263551zm1.32395 0v.263551h.529167v-.263551zm1.3224 0v.263551h.529166v-.263551zm1.3224 0v.263551h.529166v-.263551zm1.32395 0v.263551h.529166v-.263551zm1.3224 0v.263551h.529166v-.263551zm1.3224 0v.263551h.529166v-.263551zm1.323948 0v.263551h.529167v-.263551zm1.322401 0v.263551h.529167v-.263551zm1.322401 0v.263551h.529167v-.263551zm1.323948 0v.263551h.527619v-.263551z" fill="#6e98f5" font-variant-ligatures="normal" font-variant-position="normal" font-variant-caps="normal" font-variant-numeric="normal" font-variant-alternates="normal" font-variant-east-asian="normal" font-feature-settings="normal" font-variation-settings="normal" text-indent="0" text-align="start" text-decoration-line="none" text-decoration-style="solid" text-decoration-color="#000000" text-transform="none" text-orientation="mixed" white-space="normal" shape-padding="0" shape-margin="0" inline-size="0" isolation="auto" mix-blend-mode="normal" solid-color="#000000" solid-opacity="1" vector-effect="none" paint-order="markers fill stroke" data-original="#6e98f5"></path></g></g></svg>