<svg xmlns="http://www.w3.org/2000/svg" version="1.1" xmlns:xlink="http://www.w3.org/1999/xlink" xmlns:svgjs="http://svgjs.com/svgjs" width="512" height="512" x="0" y="0" viewBox="0 0 33.866666 33.866668" style="enable-background:new 0 0 512 512" xml:space="preserve" class=""><g><linearGradient xmlns="http://www.w3.org/2000/svg" id="linearGradient2202"><stop id="stop2198" offset="0" stop-color="#f6f600"></stop><stop id="stop2200" offset="1" stop-color="#f69134"></stop></linearGradient><linearGradient xmlns="http://www.w3.org/2000/svg" id="linearGradient3363" gradientUnits="userSpaceOnUse" x1="-180.440378" x2="-180.440378" xmlns:xlink="http://www.w3.org/1999/xlink" xlink:href="#linearGradient2202" y1="97.375304" y2="99.607314"></linearGradient><linearGradient xmlns="http://www.w3.org/2000/svg" id="linearGradient11196-2-2" gradientUnits="userSpaceOnUse" x1="11.508912" x2="11.508912" xmlns:xlink="http://www.w3.org/1999/xlink" xlink:href="#linearGradient3728" y1="4.14227" y2="20.922145"></linearGradient><linearGradient xmlns="http://www.w3.org/2000/svg" id="linearGradient11204-6-9" gradientUnits="userSpaceOnUse" x1="16.085" x2="16.085" xmlns:xlink="http://www.w3.org/1999/xlink" xlink:href="#linearGradient3728" y1="7.411" y2="26.161"></linearGradient><linearGradient xmlns="http://www.w3.org/2000/svg" id="linearGradient48113" gradientUnits="userSpaceOnUse" x1="10.041" x2="6.874" xmlns:xlink="http://www.w3.org/1999/xlink" xlink:href="#linearGradient3146" y1="27.441" y2="32.808"></linearGradient><linearGradient xmlns="http://www.w3.org/2000/svg" id="linearGradient3146"><stop id="stop3142" offset="0" stop-color="#0cc8ef"></stop><stop id="stop3144" offset="1" stop-color="#047afa"></stop></linearGradient><linearGradient xmlns="http://www.w3.org/2000/svg" id="linearGradient48117" gradientUnits="userSpaceOnUse" x1="28.118" x2="24.951" xmlns:xlink="http://www.w3.org/1999/xlink" xlink:href="#linearGradient3146" y1="27.441" y2="32.808"></linearGradient><linearGradient xmlns="http://www.w3.org/2000/svg" id="linearGradient6127" gradientUnits="userSpaceOnUse" x1="19.079" x2="15.912" xmlns:xlink="http://www.w3.org/1999/xlink" xlink:href="#linearGradient3146" y1="27.441" y2="32.808"></linearGradient><linearGradient xmlns="http://www.w3.org/2000/svg" id="linearGradient11222" gradientTransform="matrix(.082 .518 -.518 .082 22.25 -8.5)" gradientUnits="userSpaceOnUse" x1="17.661" x2="47.955" xmlns:xlink="http://www.w3.org/1999/xlink" xlink:href="#linearGradient2202" y1="7.21" y2="7.21"></linearGradient><linearGradient xmlns="http://www.w3.org/2000/svg" id="linearGradient11212" gradientTransform="matrix(0 -.485 .485 0 13.073 17.293)" gradientUnits="userSpaceOnUse" x1="6.515" x2="27.351" y1="16.933" y2="16.933"><stop id="stop1881" offset="0" stop-color="#ff5e3f"></stop><stop id="stop1883" offset="1" stop-color="#ffbe3f"></stop></linearGradient><linearGradient xmlns="http://www.w3.org/2000/svg" id="linearGradient3728"><stop id="stop3724" offset="0" stop-color="#f5f8ff"></stop><stop id="stop3726" offset="1" stop-color="#a0c9ff"></stop></linearGradient><g xmlns="http://www.w3.org/2000/svg" id="layer1"><path id="path11214" d="m16.46764 15.60137c-.53807-.39135-.57377-1.83177-.96457-2.37024s-1.74921-1.01891-1.95449-1.65179c-.20528-.63287.6125-1.81918.61284-2.48452s-.81624-1.85247-.61032-2.48514 1.56481-1.11174 1.95616-1.64981.42851-1.97845.96698-2.36926c.53846-.3908 1.91942.0204 2.5523-.18491.63287-.20528 1.50957-1.34874 2.17491-1.3484.66533.00034 1.54087 1.14468 2.17354 1.3506s2.01404-.20384 2.55211.18751.57377 1.83177.96457 2.37023c.39081.53847 1.74921 1.01891 1.95449 1.65179s-.6125 1.81919-.61284 2.48452c-.00026.66534.81624 1.85248.61032 2.48515s-1.56481 1.11173-1.95616 1.6498-.42851 1.97846-.96697 2.36926c-.53847.3908-1.91942-.0204-2.5523.18492-.63288.20528-1.50958 1.34873-2.17492 1.3484-.66533-.00035-1.54087-1.14469-2.17354-1.35061s-2.01404.20385-2.55211-.1875z" fill="url(#linearGradient11222)" paint-order="fill markers stroke" data-original="url(#linearGradient11222)"></path><g stroke-linecap="square"><path id="path11210" d="m21.28053 4.03582a5.0494372 5.0494372 0 0 1 5.04944 5.04944 5.0494372 5.0494372 0 0 1 -5.04944 5.04944 5.0494372 5.0494372 0 0 1 -5.04943-5.04944 5.0494372 5.0494372 0 0 1 5.04943-5.04944z" fill="url(#linearGradient11212)" stroke-dasharray=".128 .513" stroke-width=".128" paint-order="fill markers stroke" data-original="url(#linearGradient11212)"></path><path id="path48102" d="m9.6117799 31.576369c-.6804 1.17848-2.18732 1.58226-3.3658.90187-1.17848-.6804-1.58226-2.18732-.90186-3.3658.68039-1.17848 3.72354-2.49022 4.14301-2.24804s.8050401 3.53349.12465 4.71197z" fill="url(#linearGradient48113)" stroke-dasharray=".265 1.058" stroke-width=".265" paint-order="fill markers stroke" data-original="url(#linearGradient48113)"></path><path id="path48115" d="m27.688391 31.576369c-.6804 1.17848-2.18731 1.58226-3.3658.90187-1.17848-.6804-1.58226-2.18732-.90186-3.3658s3.72354-2.49022 4.14301-2.24804.80505 3.53349.12465 4.71197z" fill="url(#linearGradient48117)" stroke-dasharray=".265 1.058" stroke-width=".265" paint-order="fill markers stroke" data-original="url(#linearGradient48117)"></path><path id="path6125" d="m18.650084 31.576369c-.6804 1.17848-2.18731 1.58226-3.3658.90187-1.17848-.6804-1.58226-2.18732-.90186-3.3658s3.72354-2.49022 4.14301-2.24804.80505 3.53349.12465 4.71197z" fill="url(#linearGradient6127)" stroke-dasharray=".265 1.058" stroke-width=".265" paint-order="fill markers stroke" data-original="url(#linearGradient6127)"></path></g><path id="path11170-2-8" d="m20.87216 12.946647a9.2454587 9.2454587 0 0 1 -9.24545 9.24546 9.2454587 9.2454587 0 0 1 -9.2454599-9.24546 9.2454587 9.2454587 0 0 1 9.2454599-9.2454607 9.2454587 9.2454587 0 0 1 9.24545 9.2454607z" fill="url(#linearGradient11196-2-2)" paint-order="fill markers stroke" data-original="url(#linearGradient11196-2-2)"></path><path id="circle11180-2-6" d="m22.890592 11.692826a5.3554129 5.3554129 0 0 0 -5.351094 5.355746 5.3554129 5.3554129 0 0 0 .375171 1.968355h-13.2844609c-1.97882 0-3.5718751 1.593055-3.5718751 3.571875s1.5930551 3.571875 3.5718751 3.571875h24.6062499c1.978811 0 3.571875-1.593055 3.571875-3.571875s-1.593064-3.571875-3.571875-3.571875h-1.361156a5.3554129 5.3554129 0 0 0 .375171-1.968355 5.3554129 5.3554129 0 0 0 -5.355747-5.355746 5.3554129 5.3554129 0 0 0 -.0041 0z" fill="url(#linearGradient11204-6-9)" paint-order="fill markers stroke" data-original="url(#linearGradient11204-6-9)"></path><path id="path6680-6" d="m2.1667891 24.155378v.26355h.52917v-.26355zm1.3224 0v.26355h.52917v-.26355zm1.32395 0v.26355h.52917v-.26355zm1.3224 0v.26355h.52917v-.26355zm1.3224 0v.26355h.52917v-.26355zm1.32395 0v.26355h.52917v-.26355zm1.3223999 0v.26355h.52917v-.26355zm1.3224 0v.26355h.52917v-.26355zm1.32395 0v.26355h.52762v-.26355zm1.22266 0v.26355h.52917v-.26355zm1.32395 0v.26355h.52917v-.26355zm1.3224 0v.26355h.52917v-.26355zm1.3224 0v.26355h.52917v-.26355zm1.32395 0v.26355h.52917v-.26355zm1.3224 0v.26355h.52917v-.26355zm1.3224 0v.26355h.52917v-.26355zm1.32395 0v.26355h.52917v-.26355zm1.3224 0v.26355h.52917v-.26355zm1.3224 0v.26355h.52917v-.26355zm1.32395 0v.26355h.52917v-.26355zm1.3224 0v.26355h.52917v-.26355zm1.3224 0v.26355h.52917v-.26355zm1.32395 0v.26355h.52762v-.26355z" fill="#6e98f5" font-variant-ligatures="normal" font-variant-position="normal" font-variant-caps="normal" font-variant-numeric="normal" font-variant-alternates="normal" font-variant-east-asian="normal" font-feature-settings="normal" font-variation-settings="normal" text-indent="0" text-align="start" text-decoration-line="none" text-decoration-style="solid" text-decoration-color="#000000" text-transform="none" text-orientation="mixed" white-space="normal" shape-padding="0" shape-margin="0" inline-size="0" isolation="auto" mix-blend-mode="normal" solid-color="#000000" solid-opacity="1" vector-effect="none" paint-order="markers fill stroke" data-original="#6e98f5"></path></g></g></svg>