<svg xmlns="http://www.w3.org/2000/svg" version="1.1" xmlns:xlink="http://www.w3.org/1999/xlink" xmlns:svgjs="http://svgjs.com/svgjs" width="512" height="512" x="0" y="0" viewBox="0 0 33.866666 33.866668" style="enable-background:new 0 0 512 512" xml:space="preserve" class=""><g><linearGradient xmlns="http://www.w3.org/2000/svg" id="linearGradient2202"><stop id="stop2198" offset="0" stop-color="#f6f600"></stop><stop id="stop2200" offset="1" stop-color="#f69134"></stop></linearGradient><linearGradient xmlns="http://www.w3.org/2000/svg" id="linearGradient3363" gradientUnits="userSpaceOnUse" x1="-180.440378" x2="-180.440378" xmlns:xlink="http://www.w3.org/1999/xlink" xlink:href="#linearGradient2202" y1="97.375304" y2="99.607314"></linearGradient><linearGradient xmlns="http://www.w3.org/2000/svg" id="linearGradient11196-2-2" gradientUnits="userSpaceOnUse" x1="11.508912" x2="11.508912" xmlns:xlink="http://www.w3.org/1999/xlink" xlink:href="#linearGradient7435" y1="4.14227" y2="20.922145"></linearGradient><linearGradient xmlns="http://www.w3.org/2000/svg" id="linearGradient7435"><stop id="stop7431" offset="0" stop-color="#bca6ae"></stop><stop id="stop7433" offset="1" stop-color="#534666"></stop></linearGradient><linearGradient xmlns="http://www.w3.org/2000/svg" id="linearGradient11204-6-9" gradientUnits="userSpaceOnUse" x1="60.8013" x2="60.8013" xmlns:xlink="http://www.w3.org/1999/xlink" xlink:href="#linearGradient7435" y1="28.01714" y2="98.89214"></linearGradient><linearGradient xmlns="http://www.w3.org/2000/svg" id="linearGradient48113" gradientUnits="userSpaceOnUse" x1="8.74" x2="5.573" xmlns:xlink="http://www.w3.org/1999/xlink" xlink:href="#linearGradient3146" y1="24.995" y2="30.362"></linearGradient><linearGradient xmlns="http://www.w3.org/2000/svg" id="linearGradient3146"><stop id="stop3142" offset="0" stop-color="#0cc8ef"></stop><stop id="stop3144" offset="1" stop-color="#047afa"></stop></linearGradient><linearGradient xmlns="http://www.w3.org/2000/svg" id="linearGradient48117" gradientUnits="userSpaceOnUse" x1="26.817" x2="23.65" xmlns:xlink="http://www.w3.org/1999/xlink" xlink:href="#linearGradient3146" y1="24.995" y2="30.362"></linearGradient><linearGradient xmlns="http://www.w3.org/2000/svg" id="linearGradient6127" gradientUnits="userSpaceOnUse" x1="17.778" x2="14.611" xmlns:xlink="http://www.w3.org/1999/xlink" xlink:href="#linearGradient3146" y1="24.995" y2="30.362"></linearGradient><linearGradient xmlns="http://www.w3.org/2000/svg" id="linearGradient6216" gradientTransform="matrix(0 -.738 .738 0 12.615 21.253)" gradientUnits="userSpaceOnUse" x1="23.768" x2="11.934" xmlns:xlink="http://www.w3.org/1999/xlink" xlink:href="#linearGradient2202" y1="21.383" y2="14.55"></linearGradient><g xmlns="http://www.w3.org/2000/svg" id="layer1"><path id="path6214" d="m25.117433 1.0583333c-4.248188.0000157-7.692021 3.4438488-7.692037 7.692037.000016 4.2481877 3.443849 7.6920207 7.692037 7.6920367 4.248188-.000016 7.69202-3.443849 7.692036-7.6920367.000064-.6676388-.748137-.9406255-1.203822-.4721632-.784606.8066065-1.876297 1.2885787-3.05018 1.2886507-2.349554.000117-4.254353-1.9044502-4.254522-4.2540039.000071-1.1641648.474096-2.2474917 1.268683-3.03063.424711-.4185922.257623-1.2181788-.388667-1.2236183-.02117-.0001782-.04235-.000269-.06353-.0002723z" fill="url(#linearGradient6216)" stroke-dasharray=".195 .781" stroke-linecap="square" stroke-width=".195" paint-order="fill markers stroke" data-original="url(#linearGradient6216)"></path><path id="path11170-2-8" d="m20.87216 12.946647a9.2454587 9.2454587 0 0 1 -9.24545 9.24546 9.2454587 9.2454587 0 0 1 -9.24546-9.24546 9.2454587 9.2454587 0 0 1 9.24546-9.2454607 9.2454587 9.2454587 0 0 1 9.24545 9.2454607z" fill="url(#linearGradient11196-2-2)" paint-order="fill markers stroke" data-original="url(#linearGradient11196-2-2)"></path><path id="circle11180-2-6" d="m86.515625 44.193359a20.240931 20.240931 0 0 0 -20.224609 20.242188 20.240931 20.240931 0 0 0 1.417968 7.439453h-50.208984c-7.479005 0-13.5 6.020995-13.5 13.5s6.020995 13.5 13.5 13.5h93c7.47897 0 13.5-6.020995 13.5-13.5s-6.02103-13.5-13.5-13.5h-5.14453a20.240931 20.240931 0 0 0 1.41797-7.439453 20.240931 20.240931 0 0 0 -20.24219-20.242188 20.240931 20.240931 0 0 0 -.015625 0z" fill="url(#linearGradient11204-6-9)" transform="scale(.265)" paint-order="fill markers stroke" data-original="url(#linearGradient11204-6-9)"></path><g id="g6132" stroke-dasharray=".265 1.058" stroke-linecap="square" stroke-width=".265" transform="translate(1.698 2.446)"><path id="path48102" d="m8.31089 29.13026c-.6804 1.17848-2.18732 1.58226-3.3658.90187-1.17848-.6804-1.58226-2.18732-.90186-3.3658.68039-1.17848 3.72354-2.49022 4.14301-2.24804s.80504 3.53349.12465 4.71197z" fill="url(#linearGradient48113)" paint-order="fill markers stroke" data-original="url(#linearGradient48113)"></path><path id="path48115" d="m26.387501 29.13026c-.6804 1.17848-2.18731 1.58226-3.3658.90187-1.17848-.6804-1.58226-2.18732-.90186-3.3658s3.72354-2.49022 4.14301-2.24804.80505 3.53349.12465 4.71197z" fill="url(#linearGradient48117)" paint-order="fill markers stroke" data-original="url(#linearGradient48117)"></path><path id="path6125" d="m17.349194 29.13026c-.6804 1.17848-2.18731 1.58226-3.3658.90187-1.17848-.6804-1.58226-2.18732-.90186-3.3658s3.72354-2.49022 4.14301-2.24804.80505 3.53349.12465 4.71197z" fill="url(#linearGradient6127)" paint-order="fill markers stroke" data-original="url(#linearGradient6127)"></path></g><path id="path6680-6" d="m2.1667891 24.155378v.26355h.52917v-.26355zm1.3224 0v.26355h.52917v-.26355zm1.32395 0v.26355h.52917v-.26355zm1.3224 0v.26355h.52917v-.26355zm1.3224 0v.26355h.52917v-.26355zm1.32395 0v.26355h.52917v-.26355zm1.3223999 0v.26355h.52917v-.26355zm1.3224 0v.26355h.52917v-.26355zm1.32395 0v.26355h.52762v-.26355zm1.22266 0v.26355h.52917v-.26355zm1.32395 0v.26355h.52917v-.26355zm1.3224 0v.26355h.52917v-.26355zm1.3224 0v.26355h.52917v-.26355zm1.32395 0v.26355h.52917v-.26355zm1.3224 0v.26355h.52917v-.26355zm1.3224 0v.26355h.52917v-.26355zm1.32395 0v.26355h.52917v-.26355zm1.3224 0v.26355h.52917v-.26355zm1.3224 0v.26355h.52917v-.26355zm1.32395 0v.26355h.52917v-.26355zm1.3224 0v.26355h.52917v-.26355zm1.3224 0v.26355h.52917v-.26355zm1.32395 0v.26355h.52762v-.26355z" fill="#433850" font-variant-ligatures="normal" font-variant-position="normal" font-variant-caps="normal" font-variant-numeric="normal" font-variant-alternates="normal" font-variant-east-asian="normal" font-feature-settings="normal" font-variation-settings="normal" text-indent="0" text-align="start" text-decoration-line="none" text-decoration-style="solid" text-decoration-color="#000000" text-transform="none" text-orientation="mixed" white-space="normal" shape-padding="0" shape-margin="0" inline-size="0" isolation="auto" mix-blend-mode="normal" solid-color="#000000" solid-opacity="1" vector-effect="none" paint-order="markers fill stroke" data-original="#433850"></path></g></g></svg>