<svg xmlns="http://www.w3.org/2000/svg" version="1.1" xmlns:xlink="http://www.w3.org/1999/xlink" xmlns:svgjs="http://svgjs.com/svgjs" width="512" height="512" x="0" y="0" viewBox="0 0 33.866666 33.866668" style="enable-background:new 0 0 512 512" xml:space="preserve" class=""><g><linearGradient xmlns="http://www.w3.org/2000/svg" id="linearGradient3363" gradientUnits="userSpaceOnUse" x1="-180.440378" x2="-180.440378" y1="97.375304" y2="99.607314"><stop id="stop2198" offset="0" stop-color="#f6f600"></stop><stop id="stop2200" offset="1" stop-color="#f69134"></stop></linearGradient><linearGradient xmlns="http://www.w3.org/2000/svg" id="linearGradient3728"><stop id="stop3724" offset="0" stop-color="#f5f8ff"></stop><stop id="stop3726" offset="1" stop-color="#a0c9ff"></stop></linearGradient><linearGradient xmlns="http://www.w3.org/2000/svg" id="linearGradient13300" gradientUnits="userSpaceOnUse" x1="16.969" x2="16.969" y1="2.74542" y2="18.28555"><stop id="stop3142" offset="0" stop-color="#0cc8ef"></stop><stop id="stop3144" offset="1" stop-color="#047afa"></stop></linearGradient><linearGradient xmlns="http://www.w3.org/2000/svg" id="linearGradient11442" gradientUnits="userSpaceOnUse" x1="64" x2="64" y1="73.25" y2="129.75"><stop id="stop7431" offset="0" stop-color="#bca6ae"></stop><stop id="stop7433" offset="1" stop-color="#534666"></stop></linearGradient><linearGradient xmlns="http://www.w3.org/2000/svg" id="linearGradient11465" gradientUnits="userSpaceOnUse" x1="15.823" x2="16.699" xmlns:xlink="http://www.w3.org/1999/xlink" xlink:href="#linearGradient3728" y1="23.606" y2="28.284"></linearGradient><linearGradient xmlns="http://www.w3.org/2000/svg" id="linearGradient11473" gradientUnits="userSpaceOnUse" x1="64" x2="64" xmlns:xlink="http://www.w3.org/1999/xlink" xlink:href="#linearGradient3728" y1="114" y2="124"></linearGradient><linearGradient xmlns="http://www.w3.org/2000/svg" id="linearGradient11481" gradientUnits="userSpaceOnUse" x1="64" x2="64" xmlns:xlink="http://www.w3.org/1999/xlink" xlink:href="#linearGradient3728" y1="72.813" y2="82.678"></linearGradient><g xmlns="http://www.w3.org/2000/svg" id="layer1"><path id="path13311" d="m19.141475 1.058313c-.33746.005-.67021.14001-.92139.39119l-1.28675 1.2852-1.28519-1.2852c-.52556-.52556001-1.36089-.51031001-1.8712 0-.51685.51667-.51685 1.35454 0 1.87121l1.83399 1.8339903v1.73168h-3.22357l-1.834-1.834c-.51667-.51684-1.3545402-.51684-1.8712002 0-.51685.51667-.51685 1.35454 0 1.87121l1.28674 1.2851902-1.28674 1.28674c-.51685.5166705-.51685 1.3545395 0 1.8712095.51666.51684 1.3545302.51684 1.8712002 0l1.834-1.8360695h1.6061l1.07074 1.0707395-1.57923 1.57923h-2.59365c-.7308-.00012-1.3235502.59263-1.3234302 1.32343-.00012.73081.5926302 1.32304 1.3234302 1.32292l1.8185-.001v1.82005c-.00013.7308.59263 1.32304 1.32343 1.32291.7308.00013 1.32304-.59211 1.32292-1.32291l-.002-2.59519 1.57975-1.57975 1.57923 1.57975-.002 2.59519c-.00013.7308.59211 1.32304 1.32291 1.32291.73081.00013 1.32356-.59211 1.32343-1.32291v-1.82007l1.8185.001c.7308.00013 1.32356-.59211 1.32343-1.32291.00013-.7308-.59263-1.32356-1.32343-1.32344h-2.59364l-1.57923-1.57923 1.07073-1.0707295h1.60249l1.83399 1.8360595c.51667.51684 1.35454.51684 1.87121 0 .54036-.54036.50237-1.3688295 0-1.8711995l-1.2852-1.28675 1.2852-1.2851902c.52556-.52556.51031-1.36089 0-1.8712-.51667-.51685-1.35454-.51685-1.87121 0l-1.83389 1.83403h-3.22203v-1.73168l1.83607-1.8340003c.51684-.51667.51684-1.35454 0-1.8712-.27018-.27018-.61236-.39594-.94982-.39119z" fill="url(#linearGradient13300)" font-variant-ligatures="normal" font-variant-position="normal" font-variant-caps="normal" font-variant-numeric="normal" font-variant-alternates="normal" font-variant-east-asian="normal" font-feature-settings="normal" font-variation-settings="normal" text-indent="0" text-align="start" text-decoration-line="none" text-decoration-style="solid" text-decoration-color="#000000" text-transform="none" text-orientation="mixed" white-space="normal" shape-padding="0" shape-margin="0" inline-size="0" isolation="auto" mix-blend-mode="normal" solid-color="#000000" solid-opacity="1" vector-effect="none" paint-order="fill markers stroke" data-original="url(#linearGradient13300)"></path><g fill="#0352a6"><path id="path6680-6-7-0" d="m10.104205 8.0770035v.26355h.52917v-.26355zm1.3224 0v.26355h.52917v-.26355zm1.32395 0v.26355h.52917v-.26355zm1.3224 0v.26355h.52917v-.26355zm1.3224 0v.26355h.52917v-.26355zm1.32395 0v.26355h.52917v-.26355zm1.3224 0v.26355h.52917v-.26355zm1.3224 0v.26355h.52917v-.26355zm1.32395 0v.26355h.52762v-.26355zm1.22266 0v.26355h.52917v-.26355zm1.32394 0v.26355h.52917v-.26355z" font-variant-ligatures="normal" font-variant-position="normal" font-variant-caps="normal" font-variant-numeric="normal" font-variant-alternates="normal" font-variant-east-asian="normal" font-feature-settings="normal" font-variation-settings="normal" text-indent="0" text-align="start" text-decoration-line="none" text-decoration-style="solid" text-decoration-color="#000000" text-transform="none" text-orientation="mixed" white-space="normal" shape-padding="0" shape-margin="0" inline-size="0" isolation="auto" mix-blend-mode="normal" solid-color="#000000" solid-opacity="1" vector-effect="none" paint-order="markers fill stroke" fill="#0352a6" data-original="#0352a6"></path><path id="path13428" d="m12.946505 14.418703.18636.18636.37418-.37418-.18636-.18636zm.93618-.93618.18635.18636.37418-.37418-.18636-.18636zm.93507-.93507.18636.18635.37418-.37418-.18636-.18635zm.93508-.93508.18636.18636.37418-.37418-.18636-.18636zm.93618-.93618.18635.18636.37418-.37418-.18636-.186359z" font-variant-ligatures="normal" font-variant-position="normal" font-variant-caps="normal" font-variant-numeric="normal" font-variant-alternates="normal" font-variant-east-asian="normal" font-feature-settings="normal" font-variation-settings="normal" text-indent="0" text-align="start" text-decoration-line="none" text-decoration-style="solid" text-decoration-color="#000000" text-transform="none" text-orientation="mixed" white-space="normal" shape-padding="0" shape-margin="0" inline-size="0" isolation="auto" mix-blend-mode="normal" solid-color="#000000" solid-opacity="1" vector-effect="none" paint-order="markers fill stroke" fill="#0352a6" data-original="#0352a6"></path><path id="path13430" d="m20.921525 14.418703-.18636.18636-.37418-.37418.18636-.18636zm-.93617-.93618-.18636.18636-.37418-.37418.18636-.18636zm-.93508-.93507-.18636.18635-.37418-.37418.18636-.18635zm-.93508-.93508-.18636.18636-.37418-.37418.18636-.18636z" font-variant-ligatures="normal" font-variant-position="normal" font-variant-caps="normal" font-variant-numeric="normal" font-variant-alternates="normal" font-variant-east-asian="normal" font-feature-settings="normal" font-variation-settings="normal" text-indent="0" text-align="start" text-decoration-line="none" text-decoration-style="solid" text-decoration-color="#000000" text-transform="none" text-orientation="mixed" white-space="normal" shape-padding="0" shape-margin="0" inline-size="0" isolation="auto" mix-blend-mode="normal" solid-color="#000000" solid-opacity="1" vector-effect="none" paint-order="markers fill stroke" fill="#0352a6" data-original="#0352a6"></path></g><path id="rect11424" d="m47.605469 73c-3.211942 0-5.264355 2.73257-6.855469 5l-26.6875 38.03125c-1.591116 2.26743-1.488751 7.96875 4.15625 7.96875h91.5625c5.645 0 5.74737-5.70132 4.15625-7.96875l-26.6875-38.03125c-1.591113-2.267429-3.643528-5-6.855469-5z" fill="url(#linearGradient11442)" transform="scale(.265)" paint-order="fill markers stroke" data-original="url(#linearGradient11442)"></path><path id="rect11444" d="m60.90625 73-1.21875 5.75c-.344615 1.625878.608798 3 2.270796 3h4.260185c1.661998 0 2.578612-1.606794 2.094019-3l-1.375-5.75z" fill="url(#linearGradient11481)" transform="scale(.265)" paint-order="fill markers stroke" data-original="url(#linearGradient11481)"></path><path id="rect11446" d="m16.290761 23.605796h1.285143c.439737 0 .710027.362056.79375.79375l.529167 2.728513c.08372.431695-.354013.79375-.79375.79375h-2.343477c-.439737 0-.877473-.362056-.79375-.79375l.529167-2.728513c.08372-.431692.354013-.79375.79375-.79375z" fill="url(#linearGradient11465)" paint-order="fill markers stroke" data-original="url(#linearGradient11465)"></path><path id="rect11448" d="m57.538452 114c-1.661998 0-2.532603 1.36411-3 3l-2 7h23.099873l-2-7c-.456586-1.59805-1.338002-3-3-3z" fill="url(#linearGradient11473)" transform="scale(.265)" paint-order="fill markers stroke" data-original="url(#linearGradient11473)"></path><path id="path6680-6-1-9" d="m4.20078 30.676154v.26356h.52917v-.26356zm1.3224 0v.26356h.52917v-.26356zm1.32395 0v.26356h.52917v-.26356zm1.3224 0v.26356h.52917v-.26356zm1.3224 0v.26356h.52917v-.26356zm1.32395 0v.26356h.52917v-.26356zm1.3224 0v.26356h.52917v-.26356zm1.3224 0v.26356h.52917v-.26356zm6.51536 0v.26356h.52917v-.26356zm1.32395 0v.26356h.52917v-.26356zm1.3224 0v.26356h.52917v-.26356zm1.3224 0v.26356h.52917v-.26356zm1.32395 0v.26356h.52917v-.26356zm1.3224 0v.26356h.52917v-.26356zm1.3224 0v.26356h.52917v-.26356zm1.32395 0v.26356h.52917v-.26356z" fill="#433850" font-variant-ligatures="normal" font-variant-position="normal" font-variant-caps="normal" font-variant-numeric="normal" font-variant-alternates="normal" font-variant-east-asian="normal" font-feature-settings="normal" font-variation-settings="normal" text-indent="0" text-align="start" text-decoration-line="none" text-decoration-style="solid" text-decoration-color="#000000" text-transform="none" text-orientation="mixed" white-space="normal" shape-padding="0" shape-margin="0" inline-size="0" isolation="auto" mix-blend-mode="normal" solid-color="#000000" solid-opacity="1" vector-effect="none" paint-order="markers fill stroke" data-original="#433850"></path></g></g></svg>