<svg xmlns="http://www.w3.org/2000/svg" version="1.1" xmlns:xlink="http://www.w3.org/1999/xlink" xmlns:svgjs="http://svgjs.com/svgjs" width="512" height="512" x="0" y="0" viewBox="0 0 33.866666 33.866668" style="enable-background:new 0 0 512 512" xml:space="preserve" class=""><g><linearGradient xmlns="http://www.w3.org/2000/svg" id="linearGradient3363" gradientUnits="userSpaceOnUse" x1="-180.440378" x2="-180.440378" y1="97.375304" y2="99.607314"><stop id="stop2198" offset="0" stop-color="#f6f600"></stop><stop id="stop2200" offset="1" stop-color="#f69134"></stop></linearGradient><linearGradient xmlns="http://www.w3.org/2000/svg" id="linearGradient11196-2-2" gradientUnits="userSpaceOnUse" x1="11.508912" x2="11.508912" xmlns:xlink="http://www.w3.org/1999/xlink" xlink:href="#linearGradient3728" y1="1.50427" y2="18.284145"></linearGradient><linearGradient xmlns="http://www.w3.org/2000/svg" id="linearGradient11204-6-9" gradientUnits="userSpaceOnUse" x1="16.085" x2="16.085" xmlns:xlink="http://www.w3.org/1999/xlink" xlink:href="#linearGradient3728" y1="4.333" y2="23.083"></linearGradient><linearGradient xmlns="http://www.w3.org/2000/svg" id="linearGradient3146"><stop id="stop3142" offset="0" stop-color="#0cc8ef"></stop><stop id="stop3144" offset="1" stop-color="#047afa"></stop></linearGradient><linearGradient xmlns="http://www.w3.org/2000/svg" id="linearGradient3728"><stop id="stop7431" offset="0" stop-color="#bca6ae"></stop><stop id="stop7433" offset="1" stop-color="#534666"></stop></linearGradient><linearGradient xmlns="http://www.w3.org/2000/svg" id="linearGradient12563" gradientUnits="userSpaceOnUse" x1="13.294" x2="13.294" xmlns:xlink="http://www.w3.org/1999/xlink" xlink:href="#linearGradient3146" y1="19.957" y2="25.359"></linearGradient><linearGradient xmlns="http://www.w3.org/2000/svg" id="linearGradient12565" gradientUnits="userSpaceOnUse" x1="20.979" x2="20.979" xmlns:xlink="http://www.w3.org/1999/xlink" xlink:href="#linearGradient3146" y1="24.649" y2="31.876"></linearGradient><g xmlns="http://www.w3.org/2000/svg" id="layer1"><path id="path11170-2-8" d="m20.87216 10.308258a9.2454587 9.2454587 0 0 1 -9.24545 9.24546 9.2454587 9.2454587 0 0 1 -9.2454599-9.24546 9.2454587 9.2454587 0 0 1 9.2454599-9.2454605 9.2454587 9.2454587 0 0 1 9.24545 9.2454605z" fill="url(#linearGradient11196-2-2)" paint-order="fill markers stroke" data-original="url(#linearGradient11196-2-2)"></path><path id="circle11180-2-6" d="m22.890592 8.6149451a5.3554129 5.3554129 0 0 0 -5.351094 5.3557449 5.3554129 5.3554129 0 0 0 .375171 1.968355h-13.2844609c-1.97882 0-3.5718751 1.593055-3.5718751 3.571875s1.5930551 3.571875 3.5718751 3.571875h24.6062499c1.978811 0 3.571875-1.593055 3.571875-3.571875s-1.593064-3.571875-3.571875-3.571875h-1.361156a5.3554129 5.3554129 0 0 0 .375171-1.968355 5.3554129 5.3554129 0 0 0 -5.355747-5.3557449 5.3554129 5.3554129 0 0 0 -.0041 0z" fill="url(#linearGradient11204-6-9)" paint-order="fill markers stroke" data-original="url(#linearGradient11204-6-9)"></path><path id="path6680-6" d="m2.1667891 21.077496v.26355h.52917v-.26355zm1.3224 0v.26355h.52917v-.26355zm1.32395 0v.26355h.52917v-.26355zm1.3224 0v.26355h.52917v-.26355zm1.3224 0v.26355h.52917v-.26355zm1.32395 0v.26355h.52917v-.26355zm1.3223999 0v.26355h.52917v-.26355zm1.3224 0v.26355h.52917v-.26355zm1.32395 0v.26355h.52762v-.26355zm1.22266 0v.26355h.52917v-.26355zm7.9375 0v.26355h.52917v-.26355zm1.32395 0v.26355h.52917v-.26355zm1.3224 0v.26355h.52917v-.26355zm1.3224 0v.26355h.52917v-.26355zm1.32395 0v.26355h.52917v-.26355zm1.3224 0v.26355h.52917v-.26355zm1.3224 0v.26355h.52917v-.26355zm1.32395 0v.26355h.52762v-.26355z" fill="#433850" font-variant-ligatures="normal" font-variant-position="normal" font-variant-caps="normal" font-variant-numeric="normal" font-variant-alternates="normal" font-variant-east-asian="normal" font-feature-settings="normal" font-variation-settings="normal" text-indent="0" text-align="start" text-decoration-line="none" text-decoration-style="solid" text-decoration-color="#000000" text-transform="none" text-orientation="mixed" white-space="normal" shape-padding="0" shape-margin="0" inline-size="0" isolation="auto" mix-blend-mode="normal" solid-color="#000000" solid-opacity="1" vector-effect="none" paint-order="markers fill stroke" data-original="#6e98f5" class=""></path><g id="g12569"><path id="path12553" d="m15.736065 19.106838c-.63242.365302-.849165 1.173989-.484209 1.806609.365303.63242 1.173988.849164 1.806608.484208.332824-.192156.738611-.157114 1.033012.08992.2944.247031.399127.638803.267684.999939-.131443.361135-.465248.595829-.84956.595829h-11.3807012c-.7308288-.000858-1.3238973.591054-1.3244669 1.321883.0002841.731031.5934363 1.323258 1.3244669 1.3224h11.3807012c1.304015.000309 2.763945-.761334 3.33623-2.333674.508762-1.397812.08479-2.977451-1.054716-3.93361-1.040853-.873379-2.650446-1.164453-4.055049-.353504z" fill="url(#linearGradient12563)" font-variant-ligatures="normal" font-variant-position="normal" font-variant-caps="normal" font-variant-numeric="normal" font-variant-alternates="normal" font-variant-east-asian="normal" font-feature-settings="normal" font-variation-settings="normal" text-indent="0" text-align="start" text-decoration-line="none" text-decoration-style="solid" text-decoration-color="#000000" text-transform="none" text-orientation="mixed" white-space="normal" shape-padding="0" shape-margin="0" inline-size="0" isolation="auto" mix-blend-mode="normal" solid-color="#000000" solid-opacity="1" vector-effect="none" paint-order="fill markers stroke" data-original="url(#linearGradient12563)"></path><path id="path12555" d="m11.288274 25.711092c-.730829-.000858-1.3238981.591054-1.3244671 1.321884.0002852.73103.5934371 1.323256 1.3244671 1.322398h14.225488c.384312 0 .718119.234694.849561.595831.131443.361133.02465.752907-.269751.999938-.2944.24703-.698121.282072-1.030945.08992-.632734-.365308-1.441807-.148523-1.807125.484206-.364871.632755-.147883 1.441485.484725 1.80661 1.148141.662878 2.807893.692589 4.054533-.353468 1.139505-.95616 1.563477-2.535798 1.054716-3.933611-.496778-1.364887-1.786017-2.286766-3.231328-2.329572-.03473-.0027-.06955-.0041-.104386-.0041z" fill="url(#linearGradient12565)" font-variant-ligatures="normal" font-variant-position="normal" font-variant-caps="normal" font-variant-numeric="normal" font-variant-alternates="normal" font-variant-east-asian="normal" font-feature-settings="normal" font-variation-settings="normal" text-indent="0" text-align="start" text-decoration-line="none" text-decoration-style="solid" text-decoration-color="#000000" text-transform="none" text-orientation="mixed" white-space="normal" shape-padding="0" shape-margin="0" inline-size="0" isolation="auto" mix-blend-mode="normal" solid-color="#000000" solid-opacity="1" vector-effect="none" paint-order="fill markers stroke" data-original="url(#linearGradient12565)"></path></g></g></g></svg>