<svg xmlns="http://www.w3.org/2000/svg" version="1.1" xmlns:xlink="http://www.w3.org/1999/xlink" xmlns:svgjs="http://svgjs.com/svgjs" width="512" height="512" x="0" y="0" viewBox="0 0 33.866666 33.866668" style="enable-background:new 0 0 512 512" xml:space="preserve" class=""><g><linearGradient xmlns="http://www.w3.org/2000/svg" id="linearGradient3363" gradientUnits="userSpaceOnUse" x1="-180.440378" x2="-180.440378" y1="97.375304" y2="99.607314"><stop id="stop2198" offset="0" stop-color="#f6f600"></stop><stop id="stop2200" offset="1" stop-color="#f69134"></stop></linearGradient><linearGradient xmlns="http://www.w3.org/2000/svg" id="linearGradient11196-2-2" gradientUnits="userSpaceOnUse" x1="11.508912" x2="11.508912" xmlns:xlink="http://www.w3.org/1999/xlink" xlink:href="#linearGradient7435" y1="1.49827" y2="18.278145"></linearGradient><linearGradient xmlns="http://www.w3.org/2000/svg" id="linearGradient7435"><stop id="stop3724" offset="0" stop-color="#f5f8ff"></stop><stop id="stop3726" offset="1" stop-color="#a0c9ff"></stop></linearGradient><linearGradient xmlns="http://www.w3.org/2000/svg" id="linearGradient11204-6-9" gradientUnits="userSpaceOnUse" x1="16.085" x2="16.085" xmlns:xlink="http://www.w3.org/1999/xlink" xlink:href="#linearGradient7435" y1="4.767" y2="23.517"></linearGradient><linearGradient xmlns="http://www.w3.org/2000/svg" id="linearGradient48113" gradientUnits="userSpaceOnUse" x1="8.74" x2="5.573" xmlns:xlink="http://www.w3.org/1999/xlink" xlink:href="#linearGradient3146" y1="24.995" y2="30.362"></linearGradient><linearGradient xmlns="http://www.w3.org/2000/svg" id="linearGradient3146"><stop id="stop3142" offset="0" stop-color="#0cc8ef"></stop><stop id="stop3144" offset="1" stop-color="#047afa"></stop></linearGradient><linearGradient xmlns="http://www.w3.org/2000/svg" id="linearGradient48117" gradientUnits="userSpaceOnUse" x1="30.19" x2="27.023" xmlns:xlink="http://www.w3.org/1999/xlink" xlink:href="#linearGradient3146" y1="24.995" y2="30.362"></linearGradient><linearGradient xmlns="http://www.w3.org/2000/svg" id="linearGradient48121" gradientUnits="userSpaceOnUse" x1="13.92016" x2="11.595582" xmlns:xlink="http://www.w3.org/1999/xlink" xlink:href="#linearGradient3146" y1="28.876612" y2="32.81599"></linearGradient><linearGradient xmlns="http://www.w3.org/2000/svg" id="linearGradient48125" gradientUnits="userSpaceOnUse" x1="22.61816" x2="20.293582" xmlns:xlink="http://www.w3.org/1999/xlink" xlink:href="#linearGradient3146" y1="28.876612" y2="32.81599"></linearGradient><linearGradient xmlns="http://www.w3.org/2000/svg" id="linearGradient5986" gradientUnits="userSpaceOnUse" x1="19.149" x2="15.982" xmlns:xlink="http://www.w3.org/1999/xlink" xlink:href="#linearGradient3146" y1="20.761" y2="26.128"></linearGradient><g xmlns="http://www.w3.org/2000/svg" id="layer1"><g stroke-linecap="square"><path id="path48102" d="m8.31089 29.13026c-.6804 1.17848-2.18732 1.58226-3.3658.90187-1.17848-.6804-1.58226-2.18732-.90186-3.3658.68039-1.17848 3.72354-2.49022 4.14301-2.24804s.80504 3.53349.12465 4.71197z" fill="url(#linearGradient48113)" stroke-dasharray=".265 1.058" stroke-width=".265" paint-order="fill markers stroke" data-original="url(#linearGradient48113)"></path><path id="path48115" d="m29.76094 29.13026c-.6804 1.17848-2.18731 1.58226-3.3658.90187-1.17848-.6804-1.58226-2.18732-.90186-3.3658s3.72354-2.49022 4.14301-2.24804.80505 3.53349.12465 4.71197z" fill="url(#linearGradient48117)" stroke-dasharray=".265 1.058" stroke-width=".265" paint-order="fill markers stroke" data-original="url(#linearGradient48117)"></path><g id="g5990" stroke-dasharray=".194 .777" stroke-width=".194" transform="translate(.531)"><path id="path48119" d="m13.603746 31.90574c-.49926.86475-1.60501 1.16103-2.46976.66177s-1.1610298-1.60502-.66177-2.46976c.49926-.86475 2.73227-1.82728 3.04007-1.64958.3078.17771.59073 2.59282.0915 3.45757z" fill="url(#linearGradient48121)" paint-order="fill markers stroke" data-original="url(#linearGradient48121)"></path><path id="path48123" d="m22.301828 31.90574c-.49926.86475-1.60501 1.16103-2.46976.66177s-1.16104-1.60502-.66177-2.46976c.49926-.86475 2.73227-1.82728 3.04007-1.64958.3078.17771.59072 2.59282.0915 3.45757z" fill="url(#linearGradient48125)" paint-order="fill markers stroke" data-original="url(#linearGradient48125)"></path></g></g><path id="path11170-2-8" d="m20.87216 10.3021a9.2454587 9.2454587 0 0 1 -9.24545 9.24546 9.2454587 9.2454587 0 0 1 -9.24546-9.24546 9.2454587 9.2454587 0 0 1 9.24546-9.24546 9.2454587 9.2454587 0 0 1 9.24545 9.24546z" fill="url(#linearGradient11196-2-2)" paint-order="fill markers stroke" data-original="url(#linearGradient11196-2-2)"></path><path id="circle11180-2-6" d="m16.08532 12.903c.00014 1.22457.33868 2.42528.97823 3.46956h-12.43334c-1.97882 0-3.57188 1.59305-3.57188 3.57187s1.59306 3.57188 3.57188 3.57188h24.60625c1.97881 0 3.57187-1.59306 3.57187-3.57188s-1.59306-3.57187-3.57187-3.57187h-.83923c.63937-1.04434.97773-2.24504.97772-3.46956-.00004-3.66987-2.9752-6.6448-6.64508-6.64455-3.77956 0-6.64471 3.00135-6.64455 6.64455z" fill="url(#linearGradient11204-6-9)" paint-order="fill markers stroke" data-original="url(#linearGradient11204-6-9)"></path><path id="path6680-4-6" d="m8.1894531 81.300781v.996094h1.9999999v-.996094zm4.9980469 0v.996094h2v-.996094zm5.003906 0v.996094h2v-.996094zm4.998047 0v.996094h2v-.996094zm4.998047 0v.996094h2v-.996094zm5.003906 0v.996094h2v-.996094zm4.998047 0v.996094h2v-.996094zm4.998047 0v.996094h2v-.996094zm5.003906 0v.996094h1.994141v-.996094zm4.898438 0v.996094h2v-.996094zm20.234375 0v.996094h2v-.996094zm4.490234 0v.996094h2v-.996094zm4.998047 0v.996094h2v-.996094zm5.003906 0v.996094h2v-.996094zm4.998047 0v.996094h2v-.996094zm4.998047 0v.996094h2v-.996094zm5.00391 0v.996094h2v-.996094zm4.99804 0v.996094h2v-.996094zm4.99805 0v.996094h2v-.996094zm5.00391 0v.996094h1.99414v-.996094z" fill="#6e98f5" transform="scale(.265)" font-variant-ligatures="normal" font-variant-position="normal" font-variant-caps="normal" font-variant-numeric="normal" font-variant-alternates="normal" font-variant-east-asian="normal" font-feature-settings="normal" font-variation-settings="normal" text-indent="0" text-align="start" text-decoration-line="none" text-decoration-style="solid" text-decoration-color="#000000" text-transform="none" text-orientation="mixed" white-space="normal" shape-padding="0" shape-margin="0" inline-size="0" isolation="auto" mix-blend-mode="normal" solid-color="#000000" solid-opacity="1" vector-effect="none" paint-order="markers fill stroke" data-original="#433850" class=""></path><path id="path5984" d="m18.719555 24.896927c-.6804 1.17848-2.18731 1.58226-3.3658.90187-1.17848-.6804-1.58226-2.18732-.90186-3.3658s3.72354-2.49022 4.14301-2.24804.80505 3.53349.12465 4.71197z" fill="url(#linearGradient5986)" stroke-dasharray=".265 1.058" stroke-linecap="square" stroke-width=".265" paint-order="fill markers stroke" data-original="url(#linearGradient5986)"></path></g></g></svg>