<svg xmlns="http://www.w3.org/2000/svg" version="1.1" xmlns:xlink="http://www.w3.org/1999/xlink" xmlns:svgjs="http://svgjs.com/svgjs" width="512" height="512" x="0" y="0" viewBox="0 0 33.866666 33.866668" style="enable-background:new 0 0 512 512" xml:space="preserve" class=""><g><linearGradient xmlns="http://www.w3.org/2000/svg" id="linearGradient3363" gradientUnits="userSpaceOnUse" x1="-180.440378" x2="-180.440378" y1="97.375304" y2="99.607314"><stop id="stop2198" offset="0" stop-color="#f6f600"></stop><stop id="stop2200" offset="1" stop-color="#f69134"></stop></linearGradient><linearGradient xmlns="http://www.w3.org/2000/svg" id="linearGradient11196-2-2" gradientUnits="userSpaceOnUse" x1="11.508912" x2="11.508912" xmlns:xlink="http://www.w3.org/1999/xlink" xlink:href="#linearGradient3728" y1="1.50427" y2="18.284145"></linearGradient><linearGradient xmlns="http://www.w3.org/2000/svg" id="linearGradient11204-6-9" gradientUnits="userSpaceOnUse" x1="16.085" x2="16.085" xmlns:xlink="http://www.w3.org/1999/xlink" xlink:href="#linearGradient3728" y1="4.773" y2="23.523"></linearGradient><linearGradient xmlns="http://www.w3.org/2000/svg" id="linearGradient3146"><stop id="stop3142" offset="0" stop-color="#0cc8ef"></stop><stop id="stop3144" offset="1" stop-color="#047afa"></stop></linearGradient><linearGradient xmlns="http://www.w3.org/2000/svg" id="linearGradient3728"><stop id="stop7431" offset="0" stop-color="#bca6ae"></stop><stop id="stop7433" offset="1" stop-color="#534666"></stop></linearGradient><linearGradient xmlns="http://www.w3.org/2000/svg" id="linearGradient7970" gradientUnits="userSpaceOnUse" x1="6.53" x2="6.532" xmlns:xlink="http://www.w3.org/1999/xlink" xlink:href="#linearGradient3146" y1="24.693" y2="32.64"></linearGradient><linearGradient xmlns="http://www.w3.org/2000/svg" id="linearGradient7974" gradientUnits="userSpaceOnUse" x1="16.933" x2="16.935" xmlns:xlink="http://www.w3.org/1999/xlink" xlink:href="#linearGradient3146" y1="24.693" y2="32.64"></linearGradient><linearGradient xmlns="http://www.w3.org/2000/svg" id="linearGradient7978" gradientUnits="userSpaceOnUse" x1="27.342" x2="27.344" xmlns:xlink="http://www.w3.org/1999/xlink" xlink:href="#linearGradient3146" y1="24.693" y2="32.64"></linearGradient><g xmlns="http://www.w3.org/2000/svg" id="layer1"><path id="path11170-2-8" d="m20.87216 10.308258a9.2454587 9.2454587 0 0 1 -9.24545 9.24546 9.2454587 9.2454587 0 0 1 -9.2454599-9.24546 9.2454587 9.2454587 0 0 1 9.2454599-9.2454605 9.2454587 9.2454587 0 0 1 9.24545 9.2454605z" fill="url(#linearGradient11196-2-2)" paint-order="fill markers stroke" data-original="url(#linearGradient11196-2-2)"></path><path id="circle11180-2-6" d="m22.890592 9.0544372a5.3554129 5.3554129 0 0 0 -5.351094 5.3557458 5.3554129 5.3554129 0 0 0 .375171 1.968355h-13.2844609c-1.97882 0-3.5718751 1.593055-3.5718751 3.571875s1.5930551 3.571875 3.5718751 3.571875h24.6062499c1.978811 0 3.571875-1.593055 3.571875-3.571875s-1.593064-3.571875-3.571875-3.571875h-1.361156a5.3554129 5.3554129 0 0 0 .375171-1.968355 5.3554129 5.3554129 0 0 0 -5.355747-5.3557458 5.3554129 5.3554129 0 0 0 -.0041 0z" fill="url(#linearGradient11204-6-9)" paint-order="fill markers stroke" data-original="url(#linearGradient11204-6-9)"></path><path id="path6680-6" d="m2.1667891 21.516989v.26355h.52917v-.26355zm1.3224 0v.26355h.52917v-.26355zm1.32395 0v.26355h.52917v-.26355zm1.3224 0v.26355h.52917v-.26355zm1.3224 0v.26355h.52917v-.26355zm1.32395 0v.26355h.52917v-.26355zm1.3223999 0v.26355h.52917v-.26355zm1.3224 0v.26355h.52917v-.26355zm1.32395 0v.26355h.52762v-.26355zm1.22266 0v.26355h.52917v-.26355zm1.32395 0v.26355h.52917v-.26355zm1.3224 0v.26355h.52917v-.26355zm1.3224 0v.26355h.52917v-.26355zm1.32395 0v.26355h.52917v-.26355zm1.3224 0v.26355h.52917v-.26355zm1.3224 0v.26355h.52917v-.26355zm1.32395 0v.26355h.52917v-.26355zm1.3224 0v.26355h.52917v-.26355zm1.3224 0v.26355h.52917v-.26355zm1.32395 0v.26355h.52917v-.26355zm1.3224 0v.26355h.52917v-.26355zm1.3224 0v.26355h.52917v-.26355zm1.32395 0v.26355h.52762v-.26355z" fill="#433850" font-variant-ligatures="normal" font-variant-position="normal" font-variant-caps="normal" font-variant-numeric="normal" font-variant-alternates="normal" font-variant-east-asian="normal" font-feature-settings="normal" font-variation-settings="normal" text-indent="0" text-align="start" text-decoration-line="none" text-decoration-style="solid" text-decoration-color="#000000" text-transform="none" text-orientation="mixed" white-space="normal" shape-padding="0" shape-margin="0" inline-size="0" isolation="auto" mix-blend-mode="normal" solid-color="#000000" solid-opacity="1" vector-effect="none" paint-order="markers fill stroke" data-original="#6e98f5" class=""></path><path id="path7962" d="m6.530014 24.692552c-.366462-.216428-.839647-.238237-1.243335-.0052-.588716.340501-.790181 1.093626-.450101 1.682585l.46147.798401v.266134h-.266133l-.797884-.461988c-.552138-.31841-1.323793-.169925-1.682585.450619-.223266.385248-.22129.860987.0052 1.244368-.22505.382471-.227024.856419-.0052 1.240751.340501.588716 1.093625.790182 1.682585.450102l.79685-.459403h.267167v.263581l-.46147.800468c-.340081.58896-.138615 1.342085.450101 1.682586.385249.223266.860988.221289 1.244369-.0052.382471.225049.856419.227023 1.240751.0052.588717-.340501.790182-1.093626.450102-1.682586l-.459404-.79685v-.267167h.267684l.796851.459403c.588844.339728 1.341581.138305 1.682068-.450102.221739-.384649.21937-.858853-.0062-1.241268.226576-.383064.228947-.858547.0062-1.243851-.423425-.730342-1.245009-.701407-1.682068-.450619l-.800468.461988h-.264067v-.267684l.459404-.796851c.34008-.588959.138615-1.342084-.450102-1.682585-.386886-.223368-.859914-.220689-1.241785.0052z" fill="url(#linearGradient7970)" font-variant-ligatures="normal" font-variant-position="normal" font-variant-caps="normal" font-variant-numeric="normal" font-variant-alternates="normal" font-variant-east-asian="normal" font-feature-settings="normal" font-variation-settings="normal" text-indent="0" text-align="start" text-decoration-line="none" text-decoration-style="solid" text-decoration-color="#000000" text-transform="none" text-orientation="mixed" white-space="normal" shape-padding="0" shape-margin="0" inline-size="0" isolation="auto" mix-blend-mode="normal" solid-color="#000000" solid-opacity="1" vector-effect="none" paint-order="fill markers stroke" data-original="url(#linearGradient7970)"></path><path id="path7972" d="m16.933335 24.692552c-.366462-.216428-.839647-.238237-1.243335-.0052-.588716.340501-.790181 1.093626-.450101 1.682585l.46147.798401v.266134h-.266133l-.797884-.461988c-.552138-.31841-1.323793-.169925-1.682585.450619-.223266.385248-.22129.860987.0052 1.244368-.22505.382471-.227024.856419-.0052 1.240751.340501.588716 1.093625.790182 1.682585.450102l.79685-.459403h.267167v.263581l-.46147.800468c-.340081.58896-.138615 1.342085.450101 1.682586.385249.223266.860988.221289 1.244369-.0052.382471.225049.856419.227023 1.240751.0052.588717-.340501.790182-1.093626.450102-1.682586l-.459404-.79685v-.267167h.267684l.796851.459403c.588844.339728 1.341581.138305 1.682068-.450102.221739-.384649.21937-.858853-.0062-1.241268.226576-.383064.228947-.858547.0062-1.243851-.423425-.730342-1.245009-.701407-1.682068-.450619l-.800468.461988h-.264067v-.267684l.459404-.796851c.34008-.588959.138615-1.342084-.450102-1.682585-.386886-.223368-.859914-.220689-1.241785.0052z" fill="url(#linearGradient7974)" font-variant-ligatures="normal" font-variant-position="normal" font-variant-caps="normal" font-variant-numeric="normal" font-variant-alternates="normal" font-variant-east-asian="normal" font-feature-settings="normal" font-variation-settings="normal" text-indent="0" text-align="start" text-decoration-line="none" text-decoration-style="solid" text-decoration-color="#000000" text-transform="none" text-orientation="mixed" white-space="normal" shape-padding="0" shape-margin="0" inline-size="0" isolation="auto" mix-blend-mode="normal" solid-color="#000000" solid-opacity="1" vector-effect="none" paint-order="fill markers stroke" data-original="url(#linearGradient7974)"></path><path id="path7976" d="m27.342982 24.692552c-.366462-.216428-.839647-.238237-1.243335-.0052-.588716.340501-.790181 1.093626-.450101 1.682585l.46147.798401v.266134h-.266133l-.797884-.461988c-.552138-.31841-1.323793-.169925-1.682585.450619-.223266.385248-.22129.860987.0052 1.244368-.22505.382471-.227024.856419-.0052 1.240751.340501.588716 1.093625.790182 1.682585.450102l.79685-.459403h.267167v.263581l-.46147.800468c-.340081.58896-.138615 1.342085.450101 1.682586.385249.223266.860988.221289 1.244369-.0052.382471.225049.856419.227023 1.240751.0052.588717-.340501.790182-1.093626.450102-1.682586l-.459404-.79685v-.267167h.267684l.796851.459403c.588844.339728 1.341581.138305 1.682068-.450102.221739-.384649.21937-.858853-.0062-1.241268.226576-.383064.228947-.858547.0062-1.243851-.423425-.730342-1.245009-.701407-1.682068-.450619l-.800468.461988h-.264067v-.267684l.459404-.796851c.34008-.588959.138615-1.342084-.450102-1.682585-.386886-.223368-.859914-.220689-1.241785.0052z" fill="url(#linearGradient7978)" font-variant-ligatures="normal" font-variant-position="normal" font-variant-caps="normal" font-variant-numeric="normal" font-variant-alternates="normal" font-variant-east-asian="normal" font-feature-settings="normal" font-variation-settings="normal" text-indent="0" text-align="start" text-decoration-line="none" text-decoration-style="solid" text-decoration-color="#000000" text-transform="none" text-orientation="mixed" white-space="normal" shape-padding="0" shape-margin="0" inline-size="0" isolation="auto" mix-blend-mode="normal" solid-color="#000000" solid-opacity="1" vector-effect="none" paint-order="fill markers stroke" data-original="url(#linearGradient7978)"></path></g></g></svg>