<svg xmlns="http://www.w3.org/2000/svg" version="1.1" xmlns:xlink="http://www.w3.org/1999/xlink" xmlns:svgjs="http://svgjs.com/svgjs" width="512" height="512" x="0" y="0" viewBox="0 0 33.866666 33.866668" style="enable-background:new 0 0 512 512" xml:space="preserve" class=""><g><linearGradient xmlns="http://www.w3.org/2000/svg" id="linearGradient2202"><stop id="stop2198" offset="0" stop-color="#f6f600"></stop><stop id="stop2200" offset="1" stop-color="#f69134"></stop></linearGradient><linearGradient xmlns="http://www.w3.org/2000/svg" id="linearGradient3363" gradientUnits="userSpaceOnUse" x1="-180.440378" x2="-180.440378" xmlns:xlink="http://www.w3.org/1999/xlink" xlink:href="#linearGradient2202" y1="97.375304" y2="99.607314"></linearGradient><linearGradient xmlns="http://www.w3.org/2000/svg" id="linearGradient11196" gradientUnits="userSpaceOnUse" x1="11.508912" x2="11.508912" xmlns:xlink="http://www.w3.org/1999/xlink" xlink:href="#linearGradient7435" y1="1.49627" y2="18.276145"></linearGradient><linearGradient xmlns="http://www.w3.org/2000/svg" id="linearGradient11204" gradientUnits="userSpaceOnUse" x1="16.085" x2="16.085" xmlns:xlink="http://www.w3.org/1999/xlink" xlink:href="#linearGradient7435" y1="4.765" y2="23.515"></linearGradient><linearGradient xmlns="http://www.w3.org/2000/svg" id="linearGradient13886-2" gradientUnits="userSpaceOnUse" x1="17.063" x2="17.02" xmlns:xlink="http://www.w3.org/1999/xlink" xlink:href="#linearGradient2202" y1="16.371" y2="32.282"></linearGradient><linearGradient xmlns="http://www.w3.org/2000/svg" id="linearGradient47428" gradientUnits="userSpaceOnUse" x1="7.12129" x2="6.981325" xmlns:xlink="http://www.w3.org/1999/xlink" xlink:href="#linearGradient2202" y1="30.6734" y2="23.19398"></linearGradient><linearGradient xmlns="http://www.w3.org/2000/svg" id="linearGradient47436" gradientUnits="userSpaceOnUse" x1="27.16629" x2="26.404545" xmlns:xlink="http://www.w3.org/1999/xlink" xlink:href="#linearGradient2202" y1="30.6734" y2="21.76982"></linearGradient><linearGradient xmlns="http://www.w3.org/2000/svg" id="linearGradient7435"><stop id="stop7431" offset="0" stop-color="#bca6ae"></stop><stop id="stop7433" offset="1" stop-color="#534666"></stop></linearGradient><g xmlns="http://www.w3.org/2000/svg" id="layer1"><path id="path47434" d="m26.633537 21.659816h2.759279c.242927 0 .4917.169309.384761.461194l-1.395028 3.406296h1.182807c.401452 0 .823516.584696.468524 1.199561l-2.862754 3.954937c-.342739.617004-1.107694.314074-.888913-.289996l1.008919-2.670147h-3.103718c-.286645 0-.552676-.17409-.437734-.603054l2.073424-4.98904c.177505-.405627.463633-.469751.81042-.469751z" fill="url(#linearGradient47436)" paint-order="fill markers stroke" data-original="url(#linearGradient47436)"></path><path id="path47426" d="m6.5880235 21.659816h2.7592794c.2429267 0 .4917001.169309.3847611.461194l-1.3950282 3.406296h1.1828066c.4014524 0 .8235166.584696.4685239 1.199561l-2.8627535 3.954937c-.3427394.617004-1.1076946.314074-.8889134-.289996l1.0089188-2.670147h-3.1037178c-.2866446 0-.5526757-.17409-.437734-.603054l2.0734242-4.98904c.1775046-.405627.4636328-.469751.81042-.469751z" fill="url(#linearGradient47428)" paint-order="fill markers stroke" data-original="url(#linearGradient47428)"></path><path id="path11170" d="m20.872167 10.300636a9.2454586 9.2454586 0 0 1 -9.245458 9.245458 9.2454586 9.2454586 0 0 1 -9.2454586-9.245458 9.2454586 9.2454586 0 0 1 9.2454586-9.2454589 9.2454586 9.2454586 0 0 1 9.245458 9.2454589z" fill="url(#linearGradient11196)" paint-order="fill markers stroke" data-original="url(#linearGradient11196)"></path><path id="circle11180" d="m16.085323 12.90154c.000139 1.224565.338677 2.425273.978235 3.469555h-12.4333497c-1.9788198 0-3.571875 1.593055-3.571875 3.571875 0 1.978819 1.5930552 3.571875 3.571875 3.571875h24.6062497c1.978819 0 3.571875-1.593056 3.571875-3.571875 0-1.97882-1.593056-3.571875-3.571875-3.571875h-.839227c.639377-1.044334.977736-2.24504.97772-3.469555-.000034-3.6698747-2.975198-6.6448064-6.645073-6.6445554-3.779569 0-6.644714 3.0013567-6.644555 6.6445554z" fill="url(#linearGradient11204)" paint-order="fill markers stroke" data-original="url(#linearGradient11204)"></path><path id="path6680" d="m2.1667924 21.509283v.263551h.5291667v-.263551zm1.3224 0v.263551h.5291666v-.263551zm1.3239501 0v.263551h.5291666v-.263551zm1.3223999 0v.263551h.5291667v-.263551zm1.3223999 0v.263551h.5291667v-.263551zm1.3239501 0v.263551h.5291667v-.263551zm1.3223996 0v.263551h.529167v-.263551zm1.3224 0v.263551h.529167v-.263551zm1.32395 0v.263551h.527617v-.263551zm7.837765 0v.263551h.529166v-.263551zm1.3224 0v.263551h.529166v-.263551zm1.32395 0v.263551h.529166v-.263551zm1.3224 0v.263551h.529166v-.263551zm1.3224 0v.263551h.529166v-.263551zm1.323948 0v.263551h.529167v-.263551zm1.322401 0v.263551h.529167v-.263551zm1.322401 0v.263551h.529167v-.263551zm1.323948 0v.263551h.527619v-.263551z" fill="#433850" font-variant-ligatures="normal" font-variant-position="normal" font-variant-caps="normal" font-variant-numeric="normal" font-variant-alternates="normal" font-variant-east-asian="normal" font-feature-settings="normal" font-variation-settings="normal" text-indent="0" text-align="start" text-decoration-line="none" text-decoration-style="solid" text-decoration-color="#000000" text-transform="none" text-orientation="mixed" white-space="normal" shape-padding="0" shape-margin="0" inline-size="0" isolation="auto" mix-blend-mode="normal" solid-color="#000000" solid-opacity="1" vector-effect="none" paint-order="markers fill stroke" data-original="#433850"></path><path id="path13878-0" d="m16.187254 18.302753h4.27545c.37641 0 .76188.26234.59618.71461l-2.16157 5.27799h2.065626c.712606-.000441 1.300281.733593.708077 1.561674l-4.650779 6.42512c-.531068.956035-1.716351.486651-1.377354-.449344l1.5633-4.13734h-4.80915c-.44415 0-.85636-.26975-.67826-.93442l3.21273-7.73042c.27504-.62851.71839-.72787 1.25573-.72787z" fill="url(#linearGradient13886-2)" paint-order="fill markers stroke" data-original="url(#linearGradient13886-2)"></path></g></g></svg>