<svg xmlns="http://www.w3.org/2000/svg" version="1.1" xmlns:xlink="http://www.w3.org/1999/xlink" xmlns:svgjs="http://svgjs.com/svgjs" width="512" height="512" x="0" y="0" viewBox="0 0 33.866666 33.866668" style="enable-background:new 0 0 512 512" xml:space="preserve" class=""><g><linearGradient xmlns="http://www.w3.org/2000/svg" id="linearGradient3363" gradientUnits="userSpaceOnUse" x1="-180.440378" x2="-180.440378" y1="97.375304" y2="99.607314"><stop id="stop2198" offset="0" stop-color="#f6f600"></stop><stop id="stop2200" offset="1" stop-color="#f69134"></stop></linearGradient><linearGradient xmlns="http://www.w3.org/2000/svg" id="linearGradient3146"><stop id="stop3142" offset="0" stop-color="#0cc8ef"></stop><stop id="stop3144" offset="1" stop-color="#047afa"></stop></linearGradient><linearGradient xmlns="http://www.w3.org/2000/svg" id="linearGradient8181-5" gradientUnits="userSpaceOnUse" x1="-491.058" x2="-491.058" xmlns:xlink="http://www.w3.org/1999/xlink" xlink:href="#linearGradient3728" y1="-76.819" y2="-50.758"></linearGradient><linearGradient xmlns="http://www.w3.org/2000/svg" id="linearGradient3728"><stop id="stop3724" offset="0" stop-color="#f5f8ff"></stop><stop id="stop3726" offset="1" stop-color="#a0c9ff"></stop></linearGradient><linearGradient xmlns="http://www.w3.org/2000/svg" id="linearGradient8179-9" gradientUnits="userSpaceOnUse" x1="-496.322" x2="-496.322" y1="-78.187825" y2="-70.4485"><stop id="stop940" offset="0" stop-color="#d90947"></stop><stop id="stop942" offset="1" stop-color="#ff585b"></stop></linearGradient><linearGradient xmlns="http://www.w3.org/2000/svg" id="linearGradient8173-0" gradientUnits="userSpaceOnUse" x1="-504.276906" x2="-504.276906" xmlns:xlink="http://www.w3.org/1999/xlink" xlink:href="#linearGradient3146" y1="-67.842192" y2="-63.661422"></linearGradient><linearGradient xmlns="http://www.w3.org/2000/svg" id="linearGradient8171-2" gradientUnits="userSpaceOnUse" x1="-496.107906" x2="-496.107906" xmlns:xlink="http://www.w3.org/1999/xlink" xlink:href="#linearGradient3146" y1="-67.842192" y2="-63.661422"></linearGradient><linearGradient xmlns="http://www.w3.org/2000/svg" id="linearGradient8169-9" gradientUnits="userSpaceOnUse" x1="-487.938906" x2="-487.938906" xmlns:xlink="http://www.w3.org/1999/xlink" xlink:href="#linearGradient3146" y1="-67.842192" y2="-63.661422"></linearGradient><linearGradient xmlns="http://www.w3.org/2000/svg" id="linearGradient8167-3" gradientUnits="userSpaceOnUse" x1="-504.276906" x2="-504.276906" xmlns:xlink="http://www.w3.org/1999/xlink" xlink:href="#linearGradient3146" y1="-60.698192" y2="-56.517422"></linearGradient><linearGradient xmlns="http://www.w3.org/2000/svg" id="linearGradient8165-5" gradientTransform="matrix(.738 0 0 -.738 -505.158 -49.392)" gradientUnits="userSpaceOnUse" x1="12.263" x2="12.263" y1="9.016" y2="14.681"><stop id="stop1881" offset="0" stop-color="#ff5e3f"></stop><stop id="stop1883" offset="1" stop-color="#ffbe3f"></stop></linearGradient><linearGradient xmlns="http://www.w3.org/2000/svg" id="linearGradient14169" gradientUnits="userSpaceOnUse" x1="-503.260192" x2="-505.715328" xmlns:xlink="http://www.w3.org/1999/xlink" xlink:href="#linearGradient9189" y1="-77.121608" y2="-80.961992"></linearGradient><linearGradient xmlns="http://www.w3.org/2000/svg" id="linearGradient9189"><stop id="stop9185" offset="0" stop-color="#ff5e3f"></stop><stop id="stop9187" offset="1" stop-color="#ffb93f"></stop></linearGradient><linearGradient xmlns="http://www.w3.org/2000/svg" id="linearGradient14183" gradientUnits="userSpaceOnUse" x1="-487.872192" x2="-490.327328" xmlns:xlink="http://www.w3.org/1999/xlink" xlink:href="#linearGradient9189" y1="-77.121608" y2="-80.961992"></linearGradient><linearGradient xmlns="http://www.w3.org/2000/svg" id="linearGradient14196" gradientTransform="matrix(-1 0 0 -1 -460.035 -27.672)" gradientUnits="userSpaceOnUse" x1="30.625" x2="27.683" xmlns:xlink="http://www.w3.org/1999/xlink" xlink:href="#linearGradient3728" y1="31.419" y2="27.326"></linearGradient><g xmlns="http://www.w3.org/2000/svg" id="layer1"><g id="g14597" transform="translate(513.267 83.569)"><path id="path14193" d="m-496.25628-71.702676c-4.85799.11301-9.74686.70351-14.64459 1.43247v16.86719c0 1.46579 1.18004 2.64583 2.64583 2.64583h16.7349l9.72344-9.72343v-9.78959c-4.7745-1.181-9.6016-1.54548-14.45958-1.43247z" fill="url(#linearGradient8181-5)" stroke-linecap="round" stroke-linejoin="round" stroke-width="2.646" paint-order="markers fill stroke" data-original="url(#linearGradient8181-5)"></path><path id="path6789-4" d="m-508.22581-78.586706c-1.46579 0-2.63827 1.18006-2.64583 2.64583l-.0292 5.67068h29.10417l.0292-5.67068c.008-1.46577-1.18004-2.64583-2.64584-2.64583z" fill="url(#linearGradient8179-9)" stroke-linecap="round" stroke-linejoin="round" stroke-width="4.141" paint-order="markers fill stroke" data-original="url(#linearGradient8179-9)"></path><g stroke-dasharray=".781 3.124" stroke-linecap="square" stroke-width=".781"><path id="path6797-8" d="m-502.5334-65.515716a1.984375 1.9843753 0 0 1 -1.9844 1.98437 1.984375 1.9843753 0 0 1 -1.9844-1.98437 1.984375 1.9843753 0 0 1 1.9844-1.98438 1.984375 1.9843753 0 0 1 1.9844 1.98438z" fill="url(#linearGradient8173-0)" paint-order="markers fill stroke" data-original="url(#linearGradient8173-0)"></path><path id="path6799-6" d="m-494.36439-65.515716a1.984375 1.9843753 0 0 1 -1.9844 1.98437 1.984375 1.9843753 0 0 1 -1.9844-1.98437 1.984375 1.9843753 0 0 1 1.9844-1.98438 1.984375 1.9843753 0 0 1 1.9844 1.98438z" fill="url(#linearGradient8171-2)" paint-order="markers fill stroke" data-original="url(#linearGradient8171-2)"></path><path id="path6801-9" d="m-486.19538-65.515716a1.984375 1.9843753 0 0 1 -1.9844 1.98437 1.984375 1.9843753 0 0 1 -1.9844-1.98437 1.984375 1.9843753 0 0 1 1.9844-1.98438 1.984375 1.9843753 0 0 1 1.9844 1.98438z" fill="url(#linearGradient8169-9)" paint-order="markers fill stroke" data-original="url(#linearGradient8169-9)"></path><path id="path6803-4" d="m-502.5334-58.371966a1.984375 1.9843753 0 0 1 -1.9844 1.98437 1.984375 1.9843753 0 0 1 -1.9844-1.98437 1.984375 1.9843753 0 0 1 1.9844-1.98438 1.984375 1.9843753 0 0 1 1.9844 1.98438z" fill="url(#linearGradient8167-3)" paint-order="markers fill stroke" data-original="url(#linearGradient8167-3)"></path><path id="path6805-4" d="m-494.36439-58.371976a1.984375 1.9843753 0 0 0 -1.9844-1.98437 1.984375 1.9843753 0 0 0 -1.9844 1.98437 1.984375 1.9843753 0 0 0 1.9844 1.98438 1.984375 1.9843753 0 0 0 1.9844-1.98438z" fill="url(#linearGradient8165-5)" paint-order="markers fill stroke" data-original="url(#linearGradient8165-5)"></path></g><path id="path6809-2" d="m-510.10659-53.403016v.26355h.52916v-.26355zm1.3224 0v.26355h.52916v-.26355zm1.3224 0v.26355h.52916v-.26355zm1.32395 0v.26355h.52916v-.26355zm1.3224 0v.26355h.52916v-.26355zm1.3224 0v.26355h.52916v-.26355zm1.32395 0v.26355h.52916v-.26355zm1.3224 0v.26355h.52916v-.26355zm1.3224 0v.26355h.52916v-.26355zm1.32395 0v.26355h.52916v-.26355zm1.3224 0v.26355h.52916v-.26355zm1.3224 0v.26355h.52916v-.26355zm1.32395 0v.26355h.52916v-.26355zm1.3224 0v.26355h.52916v-.26355z" fill="#6e98f5" font-variant-ligatures="normal" font-variant-position="normal" font-variant-caps="normal" font-variant-numeric="normal" font-variant-alternates="normal" font-variant-east-asian="normal" font-feature-settings="normal" font-variation-settings="normal" text-indent="0" text-align="start" text-decoration-line="none" text-decoration-style="solid" text-decoration-color="#000000" text-transform="none" text-orientation="mixed" white-space="normal" shape-padding="0" shape-margin="0" inline-size="0" isolation="auto" mix-blend-mode="normal" solid-color="#000000" solid-opacity="1" vector-effect="none" paint-order="markers fill stroke" data-original="#6e98f5"></path><path id="path14177" d="m-510.50374-72.097406v.26355h.52916v-.26355zm1.3224 0v.26355h.52916v-.26355zm1.3224 0v.26355h.52916v-.26355zm1.32395 0v.26355h.52916v-.26355zm1.3224 0v.26355h.52916v-.26355zm1.3224 0v.26355h.52916v-.26355zm1.32395 0v.26355h.52916v-.26355zm1.3224 0v.26355h.52916v-.26355zm1.3224 0v.26355h.52916v-.26355zm1.32395 0v.26355h.52916v-.26355zm1.3224 0v.26355h.52916v-.26355zm1.3224 0v.26355h.52916v-.26355zm1.32395 0v.26355h.52916v-.26355zm1.3224 0v.26355h.52916v-.26355zm1.3224 0v.26355h.52916v-.26355zm1.32395 0v.26355h.52761v-.26355zm1.3224 0v.26355h.52916v-.26355zm1.3224 0v.26355h.52916v-.26355zm1.32395 0v.26355h.52761v-.26355zm1.32188 0v.26355h.52917v-.26355zm1.3224 0v.26355h.52917v-.26355zm1.32395 0v.26355h.52917v-.26355z" fill="#8c092f" font-variant-ligatures="normal" font-variant-position="normal" font-variant-caps="normal" font-variant-numeric="normal" font-variant-alternates="normal" font-variant-east-asian="normal" font-feature-settings="normal" font-variation-settings="normal" text-indent="0" text-align="start" text-decoration-line="none" text-decoration-style="solid" text-decoration-color="#000000" text-transform="none" text-orientation="mixed" white-space="normal" shape-padding="0" shape-margin="0" inline-size="0" isolation="auto" mix-blend-mode="normal" solid-color="#000000" solid-opacity="1" vector-effect="none" paint-order="markers fill stroke" data-original="#8c092f"></path><path id="path14167" d="m-505.48889-74.939136c-.96863-.38412-1.76587-1.14691-2.18013-2.14701-.60752-1.46669-.27171-3.15492.85085-4.27748 1.12255-1.12255 2.81078-1.45836 4.27747-.85084s2.42299 2.03874 2.42299 3.62627h-3.92504v2.70801c0 .43584-.41635 1.29951-1.44614.94105z" fill="url(#linearGradient14169)" paint-order="fill markers stroke" data-original="url(#linearGradient14169)"></path><path id="path14181" d="m-490.10085-74.939136c-.96863-.38412-1.76587-1.14691-2.18012-2.14701-.60752-1.46669-.27172-3.15492.85084-4.27748 1.12255-1.12255 2.81078-1.45836 4.27747-.85084s2.423 2.03874 2.423 3.62627h-3.92505v2.70801c0 .43584-.41634 1.29951-1.44614.94105z" fill="url(#linearGradient14183)" paint-order="fill markers stroke" data-original="url(#linearGradient14183)"></path><path id="path6787-8" d="m-491.52014-50.757186 9.72344-9.72343h-7.07761c-1.4658 0-2.64583 1.18004-2.64583 2.64583z" fill="url(#linearGradient14196)" stroke-linecap="round" stroke-linejoin="round" stroke-width="2.646" paint-order="markers fill stroke" data-original="url(#linearGradient14196)"></path></g></g></g></svg>