<svg xmlns="http://www.w3.org/2000/svg" version="1.1" xmlns:xlink="http://www.w3.org/1999/xlink" xmlns:svgjs="http://svgjs.com/svgjs" width="512" height="512" x="0" y="0" viewBox="0 0 33.866666 33.866668" style="enable-background:new 0 0 512 512" xml:space="preserve" class=""><g><linearGradient xmlns="http://www.w3.org/2000/svg" id="linearGradient3363" gradientUnits="userSpaceOnUse" x1="-180.440378" x2="-180.440378" y1="97.375304" y2="99.607314"><stop id="stop2198" offset="0" stop-color="#f6f600"></stop><stop id="stop2200" offset="1" stop-color="#f69134"></stop></linearGradient><linearGradient xmlns="http://www.w3.org/2000/svg" id="linearGradient5616-30" gradientTransform="matrix(0 1.435 1.435 0 2.215 -4.707)" gradientUnits="userSpaceOnUse" x1="7.734" x2="26.133" y1="10.258" y2="10.258"><stop id="stop3142" offset="0" stop-color="#0cc8ef"></stop><stop id="stop3144" offset="1" stop-color="#047afa"></stop></linearGradient><linearGradient xmlns="http://www.w3.org/2000/svg" id="linearGradient5618-90" gradientTransform="matrix(0 .996 .996 0 6.712 2.717)" gradientUnits="userSpaceOnUse" x1="7.734" x2="26.133" xmlns:xlink="http://www.w3.org/1999/xlink" xlink:href="#linearGradient3218" y1="10.258" y2="10.258"></linearGradient><linearGradient xmlns="http://www.w3.org/2000/svg" id="linearGradient7435"><stop id="stop7431" offset="0" stop-color="#bca6ae"></stop><stop id="stop7433" offset="1" stop-color="#534666"></stop></linearGradient><linearGradient xmlns="http://www.w3.org/2000/svg" id="linearGradient3218"><stop id="stop3214" offset="0" stop-color="#eaf2ff"></stop><stop id="stop3216" offset="1" stop-color="#9bbaff"></stop></linearGradient><linearGradient xmlns="http://www.w3.org/2000/svg" id="linearGradient21690" gradientTransform="matrix(.006 1 -1 .006 19.744 -9.421)" gradientUnits="userSpaceOnUse" x1="14.236" x2="15.951" xmlns:xlink="http://www.w3.org/1999/xlink" xlink:href="#linearGradient3218" y1="2.899" y2="2.91"></linearGradient><linearGradient xmlns="http://www.w3.org/2000/svg" id="linearGradient1885"><stop id="stop1881" offset="0" stop-color="#ff5e3f"></stop><stop id="stop1883" offset="1" stop-color="#ffbe3f"></stop></linearGradient><linearGradient xmlns="http://www.w3.org/2000/svg" id="linearGradient22090" gradientUnits="userSpaceOnUse" x1="16.933" x2="16.933" xmlns:xlink="http://www.w3.org/1999/xlink" xlink:href="#linearGradient7435" y1="2.381" y2="7.419"></linearGradient><linearGradient xmlns="http://www.w3.org/2000/svg" id="linearGradient22094" gradientTransform="matrix(.723 .691 -.691 .723 -2.756 -2.364)" gradientUnits="userSpaceOnUse" x1="16.617" x2="13.107" xmlns:xlink="http://www.w3.org/1999/xlink" xlink:href="#linearGradient1885" y1="2.914" y2="2.892"></linearGradient><linearGradient xmlns="http://www.w3.org/2000/svg" id="linearGradient22098" gradientTransform="matrix(-.723 .691 .691 .723 36.75 -2.364)" gradientUnits="userSpaceOnUse" x1="16.617" x2="13.107" xmlns:xlink="http://www.w3.org/1999/xlink" xlink:href="#linearGradient1885" y1="2.914" y2="2.892"></linearGradient><linearGradient xmlns="http://www.w3.org/2000/svg" id="linearGradient7153-3" gradientUnits="userSpaceOnUse" x1="15.436154" x2="16.179307" xmlns:xlink="http://www.w3.org/1999/xlink" xlink:href="#linearGradient7435" y1="13.428588" y2="22.003011"></linearGradient><g xmlns="http://www.w3.org/2000/svg" id="layer1"><g id="g22102" transform="translate(-.064)"><path id="path22092" d="m7.3261484 8.7397559 2.7084466 1.7133581c.819928.518685-2.8501079 4.524661-3.3582662 3.698167l-1.7706029-2.879802c-.5081569-.826495-.7261078-1.7747859-.0556494-2.476073.6704591-.7012864 1.6561431-.5743348 2.4760719-.0556501z" fill="url(#linearGradient22094)" paint-order="fill markers stroke" data-original="url(#linearGradient22094)"></path><path id="path22096" d="m26.667904 8.7397559-2.708446 1.7133581c-.819928.518685 2.850107 4.524661 3.358266 3.698167l1.770603-2.879802c.508157-.826495.726108-1.7747859.05565-2.476073-.670459-.7012864-1.656143-.5743348-2.476072-.05565z" fill="url(#linearGradient22098)" paint-order="fill markers stroke" data-original="url(#linearGradient22098)"></path></g><path id="path22081" d="m21.61055 5.735549a4.6772161 4.6772161 0 0 1 -4.677217 4.677216 4.6772161 4.6772161 0 0 1 -4.677216-4.677216 4.6772161 4.6772161 0 0 1 4.677216-4.6772161 4.6772161 4.6772161 0 0 1 4.677217 4.6772161z" fill="url(#linearGradient22090)" paint-order="fill markers stroke" data-original="url(#linearGradient22090)"></path><path id="path21688" d="m18.77844 5.5461098.652593 3.1377384c.197559.9498874-5.233351 1.0989577-4.992906.1590098l.8378-3.2751163c.240447-.9399482.770244-1.7560809 1.740441-1.762072.970197-.00599 1.564512.7905521 1.762072 1.7404401z" fill="url(#linearGradient21690)" paint-order="fill markers stroke" data-original="url(#linearGradient21690)"></path><path id="path8056-21" d="m16.933333 32.788818a13.199717 13.199717 0 0 0 13.199726-13.199706 13.199717 13.199717 0 0 0 -13.199726-13.1997269 13.199717 13.199717 0 0 0 -13.1997249 13.1997269 13.199717 13.199717 0 0 0 13.1997249 13.199706z" fill="url(#linearGradient5616-30)" stroke-linecap="round" stroke-linejoin="round" stroke-width="3.796" paint-order="markers fill stroke" data-original="url(#linearGradient5616-30)"></path><path id="path8058-5" d="m16.933333 28.755507a9.1664005 9.1664005 0 0 0 9.166433-9.166396 9.1664005 9.1664005 0 0 0 -9.166433-9.166415 9.1664005 9.1664005 0 0 0 -9.166433 9.166415 9.1664005 9.1664005 0 0 0 9.166433 9.166396z" fill="url(#linearGradient5618-90)" stroke-linecap="round" stroke-linejoin="round" stroke-width="2.636" paint-order="markers fill stroke" data-original="url(#linearGradient5618-90)"></path><path id="path21970" d="m16.642578 8.9003906.002.2636719h.525391l.0039-.2636719zm1.337891.046875-.03125.2617188.521489.064453.03711-.2617187zm-2.144531.00586-.527344.066406.03711.2617188.521485-.066406zm3.464843.2050781-.0625.2578125.509764.130859.07031-.2558594zm-4.785156.0136713-.515625.1328125.06836.2539063.509766-.1308594zm6.070313.3652344-.09375.2460937.488281.193359.101562-.2460937zm-7.353516.0175781-.494141.1953125.09961.2460938.490234-.1953126zm8.580078.5175785-.123047.234375.460939.25.128906-.230469zm-9.802734.02344-.466797.255859.128906.230469.460937-.251953zm10.951172.662109-.150391.216797.427733.306647.15625-.214844zm-12.097657.0293-.43164.310547.15625.212891.425781-.306641zm13.152344.792969-.175781.197266.382813.357422.185547-.189454zm-14.2070312.0332-.3867188.367188.1855469.189453.3808593-.361328zm15.1562502.914063-.203125.171875.337893.404295.205079-.166016zm-16.0957034.03906-.3398437.410156.2070312.166016.3339844-.404297zm16.9140624 1.019532-.220703.146484.28515.441406.22461-.140625zm-17.7285155.04297-.2871094.449219.2246094.138672.2832031-.443359zm18.4101565 1.109375-.238282.117188.22851.474609.240234-.111328zm-19.0859378.04492-.2285156.480469.2402344.113281.2265625-.474609zm19.6171878 1.183594-.25.08789.16797.498043.251954-.08203zm-20.1425784.04687-.1679687.505859.2519531.08203.1660156-.5zm20.5156254 1.238281-.257813.05664.1016.515624.261718-.05078zm-20.8828129.04883-.1035156.523438.2597656.04883.1035157-.515625zm21.0917969 1.273438-.263672.02344.03709.523435.263672-.01563zm-21.2929688.050783-.037109.53125.2636719.01563.037109-.523437zm21.0703128 1.277344-.0274.525386.263672.01563.0294-.53125zm-20.8437502.05078-.2636719.0098.029297.53125.2636718-.01563zm20.7246092 1.248047-.0918.517578.259766.05078.09375-.523437zm-20.5976561.05078-.2617188.04297.095703.523437.2597657-.04883zm20.3164061 1.224609-.15625.501957.251953.08203.1582-.50781zm-20.0292968.04883-.2539062.07617.1601562.507813.2519532-.08203zm19.5898438 1.18164-.2168.478512.238281.111328.2207-.484375zm-19.1445312.04687-.2421876.105469.2207032.484375.2402344-.113281zm18.5546872 1.117188-.275429.447266.224609.140625.279283-.453124zm-17.9628904.04297-.2246094.138672.2851563.449219.2226563-.144531zm17.2343754 1.03711-.332025.408207.201172.169922.337888-.41211zm-16.4960941.04102-.2070313.166015.3378906.410156.203125-.169921zm15.6347661.941406-.378902.363275.179688.193359.384764-.367188zm-14.7695318.03516-.1835937.189453.3847656.367188.1796875-.19336zm13.7929688.833984-.421874.31446.15625.21289.427736-.31837zm-12.8125.0293-.160156.210938.427734.316406.154297-.212891zm11.736328.708985-.457026.261722.128906.230469.462892-.263676zm-10.65625.02539-.134765.228516.46875.261719.123046-.234375zm9.496094.574219-.486363.20116.101562.246094.490236-.20511zm-8.335938.02148-.09961.244141.494141.197266.09375-.246094zm7.113282.429688-.507815.1328.0625.257813.513667-.13676zm-5.884766.01172-.07031.255859.515626.134766.0625-.257813zm4.611328.279296-.521486.06841.03125.261719.527339-.06835zm-3.337891.0059-.03711.261719.529295.06839.0293-.261719zm1.366928.123047-.0039.265625h.597265l-.0039-.265625z" fill="#024292" font-variant-ligatures="normal" font-variant-position="normal" font-variant-caps="normal" font-variant-numeric="normal" font-variant-alternates="normal" font-variant-east-asian="normal" font-feature-settings="normal" font-variation-settings="normal" text-indent="0" text-align="start" text-decoration-line="none" text-decoration-style="solid" text-decoration-color="#000000" text-transform="none" text-orientation="mixed" white-space="normal" shape-padding="0" shape-margin="0" inline-size="0" isolation="auto" mix-blend-mode="normal" solid-color="#000000" solid-opacity="1" vector-effect="none" paint-order="markers fill stroke" data-original="#024292"></path><path id="rect7137-81" d="m17.658975 13.198092c-1.1654 0-1.48778.96076-1.7156 2.10368l-.64265 2.895008-1.47348.45657c-1.11316.34501-2.10368.5502-2.10368 1.7156s.93828 1.53021 2.10368 1.53021h3.25825c1.1654 0 2.10369-.93829 2.10369-2.10369v-4.493698c0-1.1654-.36481-2.10368-1.53021-2.10368z" fill="url(#linearGradient7153-3)" paint-order="markers fill stroke" data-original="url(#linearGradient7153-3)"></path></g></g></svg>