<svg xmlns="http://www.w3.org/2000/svg" version="1.1" xmlns:xlink="http://www.w3.org/1999/xlink" xmlns:svgjs="http://svgjs.com/svgjs" width="512" height="512" x="0" y="0" viewBox="0 0 33.866666 33.866668" style="enable-background:new 0 0 512 512" xml:space="preserve" class=""><g><linearGradient xmlns="http://www.w3.org/2000/svg" id="linearGradient2202"><stop id="stop2198" offset="0" stop-color="#f6f600"></stop><stop id="stop2200" offset="1" stop-color="#f69134"></stop></linearGradient><linearGradient xmlns="http://www.w3.org/2000/svg" id="linearGradient3363" gradientUnits="userSpaceOnUse" x1="-180.440378" x2="-180.440378" xmlns:xlink="http://www.w3.org/1999/xlink" xlink:href="#linearGradient2202" y1="97.375304" y2="99.607314"></linearGradient><linearGradient xmlns="http://www.w3.org/2000/svg" id="linearGradient3728"><stop id="stop3724" offset="0" stop-color="#f5f8ff"></stop><stop id="stop3726" offset="1" stop-color="#a0c9ff"></stop></linearGradient><linearGradient xmlns="http://www.w3.org/2000/svg" id="linearGradient6442" gradientUnits="userSpaceOnUse" x1="64.00674" x2="64.00674" y1="134.76834" y2="10.00188"><stop id="stop3142" offset="0" stop-color="#0cc8ef"></stop><stop id="stop3144" offset="1" stop-color="#047afa"></stop></linearGradient><linearGradient xmlns="http://www.w3.org/2000/svg" id="linearGradient6459" gradientUnits="userSpaceOnUse" x1="64" x2="64" xmlns:xlink="http://www.w3.org/1999/xlink" xlink:href="#linearGradient3728" y1="4" y2="20.706"></linearGradient><linearGradient xmlns="http://www.w3.org/2000/svg" id="linearGradient11222-8" gradientTransform="matrix(.07 .444 -.444 .07 22.371 -.093)" gradientUnits="userSpaceOnUse" x1="17.661" x2="47.955" xmlns:xlink="http://www.w3.org/1999/xlink" xlink:href="#linearGradient2202" y1="7.21" y2="7.21"></linearGradient><linearGradient xmlns="http://www.w3.org/2000/svg" id="linearGradient11212-5" gradientTransform="matrix(0 -.416 .416 0 14.504 22.019)" gradientUnits="userSpaceOnUse" x1="6.515" x2="27.351" y1="16.933" y2="16.933"><stop id="stop1881" offset="0" stop-color="#ff5e3f"></stop><stop id="stop1883" offset="1" stop-color="#ffbe3f"></stop></linearGradient><linearGradient xmlns="http://www.w3.org/2000/svg" id="linearGradient11196-9" gradientUnits="userSpaceOnUse" x1="13.630208" x2="13.630208" xmlns:xlink="http://www.w3.org/1999/xlink" xlink:href="#linearGradient3728" y1="13.47793" y2="25.590555"></linearGradient><linearGradient xmlns="http://www.w3.org/2000/svg" id="linearGradient11204-18" gradientUnits="userSpaceOnUse" x1="16.93637" x2="16.93637" xmlns:xlink="http://www.w3.org/1999/xlink" xlink:href="#linearGradient3728" y1="15.839186" y2="29.376686"></linearGradient><linearGradient xmlns="http://www.w3.org/2000/svg" id="linearGradient6546" gradientTransform="matrix(0 -.717 -.717 0 50.039 12.341)" gradientUnits="userSpaceOnUse" x1="10.945" x2="13.751" y1="30.082" y2="30.082"><stop id="stop940" offset="0" stop-color="#d90947"></stop><stop id="stop942" offset="1" stop-color="#ff585b"></stop></linearGradient><linearGradient xmlns="http://www.w3.org/2000/svg" id="linearGradient6550" gradientTransform="matrix(0 -.717 -.717 0 46.633 12.341)" gradientUnits="userSpaceOnUse" x1="10.945" x2="13.751" y1="30.082" y2="30.082"><stop id="stop6264" offset="0" stop-color="#00ce4e"></stop><stop id="stop6266" offset="1" stop-color="#a7e890"></stop></linearGradient><g xmlns="http://www.w3.org/2000/svg" id="layer1"><path id="rect6433" d="m4 23.75v90.25c0 5.54 4.4600003 10 10 10h100c5.54 0 10-4.46 10-10v-90.25c-39.671497-4.927451-79.661852-5.07212-120 0z" fill="url(#linearGradient6442)" stroke-dasharray="1 4" stroke-linecap="square" transform="scale(.265)" paint-order="fill markers stroke" data-original="url(#linearGradient6442)"></path><path id="rect6444" d="m14 4c-5.5399997 0-10 4.4600003-10 10v9.75h120v-9.75c0-5.5399997-4.46-10-10-10z" fill="url(#linearGradient6459)" stroke-dasharray="1 4" stroke-linecap="square" transform="scale(.265)" paint-order="fill markers stroke" data-original="url(#linearGradient6459)"></path><g id="g6542" transform="matrix(.911 0 0 .911 .958 .834)"><path id="path11214-23" d="m17.414127 20.569014c-.461268-.335488-.491901-1.570372-.826924-2.032001-.335045-.461638-1.49959-.873509-1.675572-1.416069-.175974-.542538.525118-1.559587.52534-2.129976.000287-.570366-.699764-1.588116-.523199-2.130506.176565-.542391 1.341509-.953081 1.677011-1.414364.335488-.461268.367376-1.6961294.828984-2.0311596.461637-.335045 1.645514.017715 2.188075-.158554.542538-.1759743 1.294156-1.1562632 1.864544-1.1559754.570367.0002879 1.320989.9813298 1.863379 1.157865.542391.1765648 1.72663-.1747932 2.187912.1607685.461269.3354879.491902 1.5703715.826925 2.0319935.335045.461637 1.49959.873509 1.675579 1.416076.175974.542539-.525118 1.559587-.525413 2.129976-.000384.570366.699763 1.588116.523198 2.130506-.176564.542391-1.341508.953081-1.677011 1.414364-.335488.461268-.367376 1.696129-.828976 2.03116-.461637.335045-1.645522-.01772-2.188082.158554-.542538.175974-1.294157 1.156263-1.864545 1.155975-.570366-.000281-1.320988-.98133-1.863371-1.157865-.542391-.176565-1.72663.174719-2.18792-.160768z" fill="url(#linearGradient11222-8)" paint-order="fill markers stroke" data-original="url(#linearGradient11222-8)"></path><path id="path11210-7" d="m21.5402 10.653904a4.3288664 4.3288664 0 0 1 4.328871 4.328871 4.3288664 4.3288664 0 0 1 -4.328871 4.328871 4.3288664 4.3288664 0 0 1 -4.328864-4.328871 4.3288664 4.3288664 0 0 1 4.328864-4.328871z" fill="url(#linearGradient11212-5)" stroke-dasharray=".11 .44" stroke-linecap="square" stroke-width=".11" paint-order="fill markers stroke" data-original="url(#linearGradient11212-5)"></path><path id="path11170-8" d="m20.388484 19.832461a6.6733899 6.6733899 0 0 1 -6.673382 6.673389 6.6733899 6.6733899 0 0 1 -6.6733892-6.673389 6.6733899 6.6733899 0 0 1 6.6733892-6.673389 6.6733899 6.6733899 0 0 1 6.673382 6.673389z" fill="url(#linearGradient11196-9)" paint-order="fill markers stroke" data-original="url(#linearGradient11196-9)"></path><path id="circle11180-1" d="m16.933335 21.709798c.000096.883894.244474 1.750575.706112 2.504334h-8.9744082c-1.428322 0-2.578193 1.149863-2.578193 2.578178 0 1.428322 1.149871 2.578193 2.578193 2.578193h17.7608312c1.428315 0 2.578186-1.149871 2.578186-2.578193 0-1.428315-1.149871-2.578178-2.578186-2.578178h-.605723c.46149-.753803.705742-1.620477.705742-2.504334-.000029-2.648922-2.147506-4.796229-4.796435-4.796052-2.728089 0-4.796163 2.16638-4.796045 4.796052z" fill="url(#linearGradient11204-18)" paint-order="fill markers stroke" data-original="url(#linearGradient11204-18)"></path></g><g stroke-dasharray=".19 .759" stroke-linecap="square" stroke-width=".19"><path id="path6544" d="m28.465447 2.4790531a1.0062901-1.0062901 0 0 0 -1.00629 1.0062899 1.0062901-1.0062901 0 0 0 1.00629 1.0062905 1.0062901-1.0062901 0 0 0 1.006291-1.0062905 1.0062901-1.0062901 0 0 0 -1.006291-1.0062899z" fill="url(#linearGradient6546)" paint-order="fill markers stroke" data-original="url(#linearGradient6546)"></path><path id="path6548" d="m25.058937 2.4790531a1.0062901-1.0062901 0 0 0 -1.00629 1.0062899 1.0062901-1.0062901 0 0 0 1.00629 1.0062905 1.0062901-1.0062901 0 0 0 1.006291-1.0062905 1.0062901-1.0062901 0 0 0 -1.006291-1.0062899z" fill="url(#linearGradient6550)" paint-order="fill markers stroke" data-original="url(#linearGradient6550)"></path></g></g></g></svg>