<svg xmlns="http://www.w3.org/2000/svg" version="1.1" xmlns:xlink="http://www.w3.org/1999/xlink" xmlns:svgjs="http://svgjs.com/svgjs" width="512" height="512" x="0" y="0" viewBox="0 0 33.866666 33.866668" style="enable-background:new 0 0 512 512" xml:space="preserve" class=""><g><linearGradient xmlns="http://www.w3.org/2000/svg" id="linearGradient3363" gradientUnits="userSpaceOnUse" x1="-180.440378" x2="-180.440378" y1="97.375304" y2="99.607314"><stop id="stop2198" offset="0" stop-color="#f6f600"></stop><stop id="stop2200" offset="1" stop-color="#f69134"></stop></linearGradient><linearGradient xmlns="http://www.w3.org/2000/svg" id="linearGradient11196-2-2" gradientTransform="matrix(-.703 0 0 .703 29.914 2.02)" gradientUnits="userSpaceOnUse" x1="9.353" x2="14.677" xmlns:xlink="http://www.w3.org/1999/xlink" xlink:href="#linearGradient3728" y1="8.112" y2="20.306"></linearGradient><linearGradient xmlns="http://www.w3.org/2000/svg" id="linearGradient11204-6-9" gradientTransform="matrix(-.718 0 0 .718 30.925 .41)" gradientUnits="userSpaceOnUse" x1="16.085" x2="16.085" xmlns:xlink="http://www.w3.org/1999/xlink" xlink:href="#linearGradient3728" y1="11.413" y2="30.163"></linearGradient><linearGradient xmlns="http://www.w3.org/2000/svg" id="linearGradient3728"><stop id="stop3724" offset="0" stop-color="#f5f8ff"></stop><stop id="stop3726" offset="1" stop-color="#a0c9ff"></stop></linearGradient><linearGradient xmlns="http://www.w3.org/2000/svg" id="linearGradient6305" gradientUnits="userSpaceOnUse" x1="12.816" x2="12.816" xmlns:xlink="http://www.w3.org/1999/xlink" xlink:href="#linearGradient3728" y1="2.381" y2="32.368"></linearGradient><linearGradient xmlns="http://www.w3.org/2000/svg" id="linearGradient6313" gradientTransform="matrix(0 1.212 -1.212 0 49.681 12.278)" gradientUnits="userSpaceOnUse" x1="10.945" x2="13.751" xmlns:xlink="http://www.w3.org/1999/xlink" xlink:href="#linearGradient3728" y1="30.082" y2="30.082"></linearGradient><linearGradient xmlns="http://www.w3.org/2000/svg" id="linearGradient6317" gradientUnits="userSpaceOnUse" x1="12.878728" x2="12.878728" y1="4.805373" y2="29.784544"><stop id="stop3142" offset="0" stop-color="#0cc8ef"></stop><stop id="stop3144" offset="1" stop-color="#047afa"></stop></linearGradient><g xmlns="http://www.w3.org/2000/svg" id="layer1"><g stroke-linecap="square"><path id="rect6293" d="m6.3499997 1.058333h13.7354403c1.465792 0 2.645834 1.1800417 2.645834 2.6458333v26.4583357c0 1.465791-1.180042 2.645833-2.645834 2.645833h-13.7354403c-1.4657917 0-2.6458333-1.180042-2.6458333-2.645833v-26.4583357c0-1.4657916 1.1800416-2.6458333 2.6458333-2.6458333z" fill="url(#linearGradient6305)" stroke-dasharray=".265 1.058" stroke-width=".265" paint-order="fill markers stroke" data-original="url(#linearGradient6305)"></path><path id="path6315" d="m7.4946329 2.675179c-1.2214931 0-2.2050332.9835404-2.2050332 2.2050333v23.0772547c0 1.221492.9835401 2.205033 2.2050332 2.205033h11.4463301c1.221494 0 2.204516-.983541 2.204516-2.205033v-23.0772547c0-1.2214929-.983022-2.2050333-2.204516-2.2050333h-1.982825c-.375641 0-.746631.2726561-.747241.7330752 0 .4397373-.354012.79375-.79375.79375h-4.399215c-.439738 0-.79375-.3540125-.79375-.79375 0-.4759729-.3604861-.7330752-.740523-.7330752z" fill="url(#linearGradient6317)" stroke-dasharray=".22 .882" stroke-width=".22" paint-order="fill markers stroke" data-original="url(#linearGradient6317)"></path><path id="path6296" d="m13.21772 28.946426a1.7008213 1.7008213 0 0 1 -1.700821-1.700821 1.7008213 1.7008213 0 0 1 1.700821-1.700822 1.7008213 1.7008213 0 0 1 1.700822 1.700822 1.7008213 1.7008213 0 0 1 -1.700822 1.700821z" fill="url(#linearGradient6313)" stroke-dasharray=".321 1.283" stroke-width=".321" paint-order="fill markers stroke" data-original="url(#linearGradient6313)"></path></g><path id="path11170-2-8" d="m15.943267 14.27981a6.1487668 6.1487668 0 0 0 6.148761 6.148767 6.1487668 6.1487668 0 0 0 6.148768-6.148767 6.1487668 6.1487668 0 0 0 -6.148768-6.1487686 6.1487668 6.1487668 0 0 0 -6.148761 6.1487686z" fill="url(#linearGradient11196-2-2)" paint-order="fill markers stroke" data-original="url(#linearGradient11196-2-2)"></path><path id="circle11180-2-6" d="m14.494423 11.676046a3.844152 3.844152 0 0 1 3.841052 3.844391 3.844152 3.844152 0 0 1 -.269301 1.412898h9.535678c1.420411 0 2.563917 1.143506 2.563917 2.563916 0 1.420411-1.143506 2.563917-2.563917 2.563917h-17.6625337c-1.4204045 0-2.5639175-1.143506-2.5639175-2.563917 0-1.42041 1.143513-2.563916 2.5639175-2.563916h.9770467a3.844152 3.844152 0 0 1 -.2693-1.412898 3.844152 3.844152 0 0 1 3.844391-3.844391 3.844152 3.844152 0 0 1 .003 0z" fill="url(#linearGradient11204-6-9)" paint-order="fill markers stroke" data-original="url(#linearGradient11204-6-9)"></path><path id="path6680-6" d="m29.450679 20.383559v.26355h-.52917v-.26355zm-1.3224 0v.26355h-.529171v-.26355zm-1.322401 0v.26355h-.52917v-.26355zm-1.32395 0v.26355h-.52917v-.26355zm-1.3224 0v.26355h-.52917v-.26355zm-1.3224 0v.26355h-.52917v-.26355zm-1.32395 0v.26355h-.52762v-.26355zm-1.22266 0v.26355h-.52917v-.26355zm-1.32395 0v.26355h-.52917v-.26355zm-1.3224 0v.26355h-.52917v-.26355zm-1.3224 0v.26355h-.52917v-.26355zm-1.32395 0v.26355h-.52917v-.26355zm-1.322399 0v.26355h-.52917v-.26355zm-1.322401 0v.26355h-.52917v-.26355zm-1.32395 0v.26355h-.52917v-.26355zm-1.3223987 0v.26355h-.52917v-.26355zm-1.3224005 0v.26355h-.52917v-.26355z" fill="#6e98f5" font-variant-ligatures="normal" font-variant-position="normal" font-variant-caps="normal" font-variant-numeric="normal" font-variant-alternates="normal" font-variant-east-asian="normal" font-feature-settings="normal" font-variation-settings="normal" text-indent="0" text-align="start" text-decoration-line="none" text-decoration-style="solid" text-decoration-color="#000000" text-transform="none" text-orientation="mixed" white-space="normal" shape-padding="0" shape-margin="0" inline-size="0" isolation="auto" mix-blend-mode="normal" solid-color="#000000" solid-opacity="1" vector-effect="none" paint-order="markers fill stroke" data-original="#6e98f5"></path></g></g></svg>