<svg xmlns="http://www.w3.org/2000/svg" version="1.1" xmlns:xlink="http://www.w3.org/1999/xlink" xmlns:svgjs="http://svgjs.com/svgjs" width="512" height="512" x="0" y="0" viewBox="0 0 32 32" style="enable-background:new 0 0 512 512" xml:space="preserve" class=""><g><linearGradient xmlns="http://www.w3.org/2000/svg" id="SVGID_1_" gradientUnits="userSpaceOnUse" x1="6.297" x2="25.163" y1="26.904" y2="9.372"><stop offset="0" stop-color="#00c0ff"></stop><stop offset="1" stop-color="#5357ff"></stop></linearGradient><path xmlns="http://www.w3.org/2000/svg" d="m22.93 10.255c-2.323-3.481-4.886-6.944-5.939-9.574-.166-.408-.561-.675-1-.671-.432.003-.822.269-.984.671-1.056 2.631-3.611 6.093-5.936 9.574-2.321 3.482-4.492 6.98-4.492 10.334 0 6.284 5.125 11.401 11.418 11.401 6.294 0 11.427-5.118 11.427-11.401-.001-3.354-2.171-6.852-4.494-10.334zm1.04 9.186c0 4.382-3.585 7.956-7.974 7.956-.588.013-1.076-.454-1.09-1.042-.012-.59.455-1.077 1.043-1.09h.049c3.236 0 5.84-2.598 5.84-5.824-.008-.585.461-1.068 1.046-1.078v-.001c.591-.012 1.075.458 1.086 1.047z" fill="url(#SVGID_1_)" data-original="url(#SVGID_1_)"></path></g></svg>