<svg xmlns="http://www.w3.org/2000/svg" version="1.1" width="512" height="512" x="0" y="0" viewBox="0 0 512 512">
    <defs>
        <linearGradient id="grad" x1="0%" y1="0%" x2="100%" y2="100%">
            <stop stop-color="#00c6fb" offset="0%" />
            <stop stop-color="#005bea" offset="100%" />
        </linearGradient>

        <style>
            svg {
                fill: none;
                stroke: #0099F4;
                stroke-width: 30px;
                stroke-linecap: round;
                stroke-linejoin: round;
            }

            @keyframes line {
                100% {
                    stroke-dashoffset: 0;
                }
            }

            svg g path {
                stroke: url(#grad);
                stroke-dasharray: 1458;
                stroke-dashoffset: 1458;
                animation: line 1.6s cubic-bezier(0.65, 0, 0.35, 1) infinite alternate 0s;
            }

            svg g line:nth-child(1) {
                stroke-dasharray: 32;
                stroke-dashoffset: 32;
                animation: line 1s cubic-bezier(0.65, 0, 0.35, 1) infinite alternate 0.2s;
            }
            svg g line:nth-child(2) {
                stroke-dasharray: 32;
                stroke-dashoffset: 32;
                animation: line 1s cubic-bezier(0.65, 0, 0.35, 1) infinite alternate 0.2s;
            }
            svg g line:nth-child(3) {
                stroke-dasharray: 32;
                stroke-dashoffset: 32;
                animation: line 1s cubic-bezier(0.65, 0, 0.35, 1) infinite alternate 0.2s;
            }
            svg g line:nth-child(4) {
                stroke-dasharray: 32;
                stroke-dashoffset: 32;
                animation: line 1s cubic-bezier(0.65, 0, 0.35, 1) infinite alternate 0.2s;
            }
        </style>
    </defs>

    <g>
        <line x1="183.66" y1="45.2" x2="183.66" y2="15" />
        <line x1="40.99" y1="128.24" x2="15" y2="112.86" />
        <line x1="41.35" y1="293.03" x2="15.71" y2="308.98" />
        <line x1="327.21" y1="128.05" x2="353.42" y2="113.05" />
        <path d="M199.87,323c-9.65-20.69-.59-40.23,7.34-57.46,11.08-24.07,34.54-40.16,60-47.63l5.76-1.69A91.57,91.57,0,0,1,385.28,274.2l3.29,9.52,8.3-.91c31.49-3.49,62.88,9.34,82,34.58a89.72,89.72,0,0,1,18.28,54.42h0A90.13,90.13,0,0,1,407,461.94H181.09C157.4,454.66,142.27,448,132,431.11a68.16,68.16,0,0,1-9.69-35.54V385.48c3-34.27,30.65-62.11,64.92-62.33Zm85.28-109.48c-13.79-41.37-54.93-72.3-100.94-72.3-57.53,0-103.8,46.63-104.16,104.16-.25,39.84,33.12,82.58,61.65,97.42" transform="translate(-1.09 -34.97)" />
    </g>
</svg>