<svg xmlns="http://www.w3.org/2000/svg" version="1.1" xmlns:xlink="http://www.w3.org/1999/xlink" xmlns:svgjs="http://svgjs.com/svgjs" width="512" height="512" x="0" y="0" viewBox="0 0 479.364 479.364" style="enable-background:new 0 0 512 512" xml:space="preserve" class=""><g><linearGradient xmlns="http://www.w3.org/2000/svg" id="rect7150_1_" gradientTransform="matrix(15.118 0 0 -15.118 931.795 9445.638)" gradientUnits="userSpaceOnUse" x1="-40.281" x2="-37.308" y1="604.838" y2="599.679"><stop offset="0" stop-color="#ff7e3f"></stop><stop offset="1" stop-color="#ffbe3f"></stop></linearGradient><linearGradient xmlns="http://www.w3.org/2000/svg" id="path7011_1_" gradientTransform="matrix(0 -16.036 -16.036 0 10118.372 -794.007)" gradientUnits="userSpaceOnUse" x1="-72.412" x2="-49.525" y1="619.548" y2="619.548"><stop offset="0" stop-color="#0056ff"></stop><stop offset="1" stop-color="#0ab0f2"></stop></linearGradient><linearGradient xmlns="http://www.w3.org/2000/svg" id="path7022_1_" gradientTransform="matrix(0 10.799 -10.799 0 6857.437 606.086)" gradientUnits="userSpaceOnUse" x1="-50.562" x2="-27.675" y1="618.038" y2="618.038"><stop offset="0" stop-color="#f5f8ff"></stop><stop offset="1" stop-color="#a0c9ff"></stop></linearGradient><linearGradient xmlns="http://www.w3.org/2000/svg" id="path7029_1_" gradientTransform="matrix(10.69 -10.69 -10.69 -10.69 7254.121 6381.742)" gradientUnits="userSpaceOnUse" x1="-40.795" x2="-40.795" y1="604.703" y2="594.748"><stop offset="0" stop-color="#bca6ae"></stop><stop offset="1" stop-color="#534666"></stop></linearGradient><g xmlns="http://www.w3.org/2000/svg"><g id="layer1_20_"><path id="rect7150" d="m285.311 285.147c7.835-7.835 19.939-7.289 28.284 0l89.354 78.041c8.345 7.289-32.309 47.943-39.598 39.598l-78.041-89.354c-7.288-8.346-7.834-20.45.001-28.285z" fill="url(#rect7150_1_)" data-original="url(#rect7150_1_)"></path><path id="path7011" d="m183.5.164c101.344 0 183.5 82.156 183.5 183.5s-82.156 183.5-183.5 183.5c-101.344 0-183.5-82.156-183.5-183.5 0-101.345 82.156-183.5 183.5-183.5z" fill="url(#path7011_1_)" data-original="url(#path7011_1_)" class=""></path><path id="path7022" d="m183.5 307.234c68.246 0 123.571-55.325 123.571-123.571 0-68.246-55.325-123.571-123.571-123.571-68.246 0-123.571 55.325-123.571 123.571 0 68.247 55.325 123.571 123.571 123.571z" fill="url(#path7022_1_)" data-original="url(#path7022_1_)"></path><path id="path7029" d="m341.465 382.957 41.656-41.656c7.835-7.835 20.45-7.835 28.284 0l54.156 54.156c43.642 43.642-26.299 113.583-69.941 69.941l-54.156-54.156c-7.834-7.835-7.834-20.45.001-28.285z" fill="url(#path7029_1_)" data-original="url(#path7029_1_)"></path><path id="path7175" d="m185.819 38.996-.148 3.986 7.943.384.236-3.986zm-12.254.325-8.002.797.443 3.957 7.913-.768zm32.422 1.417-.65 3.957 7.795 1.417.768-3.927zm-52.471 1.388-7.825 1.831.945 3.898 7.736-1.831zm72.225 3.13-1.211 3.809 7.53 2.539 1.329-3.78zm-91.713 2.421-7.5 2.953 1.535 3.72 7.382-2.923zm110.669 4.843-1.772 3.573 7.087 3.602 1.86-3.543zm-129.212 3.396-6.969 4.016 2.037 3.455 6.909-3.957zm146.87 6.466-2.185 3.337 6.467 4.488 2.362-3.218zm-164.026 4.311-6.348 4.961 2.51 3.1 6.26-4.902zm180.207 7.914-2.657 2.982 5.846 5.374 2.746-2.953zm-195.65 5.137-5.669 5.787 2.923 2.746 5.522-5.669zm209.971 9.183-3.071 2.598 5.049 6.142 3.13-2.51zm-223.524 5.906-4.813 6.467 3.248 2.333 4.724-6.378zm235.689 10.305-3.396 2.126 4.134 6.791 3.455-2.037zm-247.028 6.496-3.809 7.087 3.543 1.86 3.78-6.968zm256.861 11.25-3.691 1.594 3.13 7.323 3.691-1.506zm-265.719 6.998-2.746 7.559 3.75 1.329 2.746-7.47zm272.864 11.929-3.839 1.152 2.067 7.618 3.898-.945zm-279.065 7.382-1.654 7.884 3.927.738 1.624-7.766zm283.554 12.402-3.957.561 1.004 7.884 3.957-.472zm-286.92 7.559-.591 8.031 3.986.236.59-7.913zm284.616 12.608-.15 7.943 3.986.148.148-8.032zm-281.279 7.412-3.986.266.591 8.031 3.957-.354zm280.157 12.283-1.211 7.854 3.927.65 1.24-7.943zm-277.972 7.323-3.927.768 1.624 7.884 3.898-.856zm274.163 11.988-2.362 7.618 3.809 1.211 2.362-7.677zm-269.35 7.116-3.78 1.329 2.776 7.559 3.72-1.417zm262.766 11.516-3.337 7.146 3.602 1.801 3.396-7.352zm-255.296 6.703-3.543 1.86 3.839 7.087 3.484-1.949zm246.26 10.777-4.311 6.673 3.337 2.215 4.37-6.762zm-236.22 6.231-3.278 2.274 4.754 6.555 3.159-2.451zm224.793 9.832-5.197 5.994 2.982 2.657 5.286-6.083zm-212.539 5.581-2.953 2.746 5.581 5.787 2.864-2.776zm199.015 8.711-5.994 5.227 2.569 3.041 6.083-5.256zm-184.754 4.872-2.51 3.13 6.319 4.961 2.451-3.159zm169.371 7.441-6.673 4.311 2.096 3.396 6.762-4.37zm-153.367 4.045-2.037 3.455 6.969 3.986 1.949-3.484zm136.359 5.964-7.175 3.337 1.594 3.661 7.352-3.425zm-118.908 3.16-1.506 3.691 7.47 2.982 1.417-3.75zm100.719 4.399-7.618 2.333 1.152 3.839 7.707-2.392zm-82.087 2.156-1.063 3.839 7.884 1.949.827-3.898zm63.012 2.746-7.854 1.211.561 3.957 7.943-1.211zm-43.73 1.152-.443 3.957 8.002.827.354-3.986zm24.124 1.033-7.943.15.059 3.986 8.031-.148z" fill="#024292" data-original="#024292"></path></g></g></g></svg>