<svg xmlns="http://www.w3.org/2000/svg" version="1.1" xmlns:xlink="http://www.w3.org/1999/xlink" xmlns:svgjs="http://svgjs.com/svgjs" width="512" height="512" x="0" y="0" viewBox="0 0 33.866666 33.866668" style="enable-background:new 0 0 512 512" xml:space="preserve" class=""><g><linearGradient xmlns="http://www.w3.org/2000/svg" id="linearGradient3363" gradientUnits="userSpaceOnUse" x1="-180.440378" x2="-180.440378" y1="97.375304" y2="99.607314"><stop id="stop2198" offset="0" stop-color="#f6f600"></stop><stop id="stop2200" offset="1" stop-color="#f69134"></stop></linearGradient><linearGradient xmlns="http://www.w3.org/2000/svg" id="linearGradient12802" gradientUnits="userSpaceOnUse" x1="9.6545" x2="9.6545" y1="1.06" y2="32.846485"><stop id="stop3724" offset="0" stop-color="#f5f8ff"></stop><stop id="stop3726" offset="1" stop-color="#a0c9ff"></stop></linearGradient><linearGradient xmlns="http://www.w3.org/2000/svg" id="linearGradient12833" gradientUnits="userSpaceOnUse" x1="7.50429" x2="7.50429" xmlns:xlink="http://www.w3.org/1999/xlink" xlink:href="#linearGradient3146" y1="16.96" y2="28.992325"></linearGradient><linearGradient xmlns="http://www.w3.org/2000/svg" id="linearGradient3146"><stop id="stop3142" offset="0" stop-color="#0cc8ef"></stop><stop id="stop3144" offset="1" stop-color="#047afa"></stop></linearGradient><linearGradient xmlns="http://www.w3.org/2000/svg" id="linearGradient13300" gradientUnits="userSpaceOnUse" x1="22.884" x2="22.884" xmlns:xlink="http://www.w3.org/1999/xlink" xlink:href="#linearGradient3146" y1="5.39142" y2="20.93155"></linearGradient><linearGradient xmlns="http://www.w3.org/2000/svg" id="linearGradient13438" gradientUnits="userSpaceOnUse" x1="9.637" x2="9.637" y1="20.22" y2="1.058"><stop id="stop13432" offset="0" stop-color="#cae8ff"></stop><stop id="stop13434" offset="1" stop-color="#fff"></stop></linearGradient><g xmlns="http://www.w3.org/2000/svg" id="layer1"><path id="path12789" d="m9.6370133 1.0583333c-2.0470301 0-3.6948649 1.6478343-3.6948649 3.6948649v14.4978228a7.2760405 7.2760405 0 0 0 -3.5811766 6.267835 7.2760405 7.2760405 0 0 0 7.2760415 7.276041 7.2760405 7.2760405 0 0 0 7.2760407-7.276041 7.2760405 7.2760405 0 0 0 -3.581177-6.267835v-14.4978228c0-2.0470306-1.647834-3.6948649-3.6948637-3.6948649z" fill="url(#linearGradient12802)" paint-order="fill markers stroke" data-original="url(#linearGradient12802)"></path><path id="path12804" d="m9.6370133 3.1998046c-.861152 0-1.5544271.6932745-1.5544271 1.5544271v16.8196453a4.5309895 4.5309895 0 0 0 -2.9765624 4.256071 4.5309895 4.5309895 0 0 0 4.5309895 4.530989 4.5309895 4.5309895 0 0 0 4.5309887-4.530989 4.5309895 4.5309895 0 0 0 -2.976563-4.256071v-16.8196453c0-.8611526-.693273-1.5544271-1.5544257-1.5544271z" fill="url(#linearGradient13438)" paint-order="fill markers stroke" data-original="url(#linearGradient13438)"></path><path id="path12811" d="m9.6370133 17.818034c-.861152 0-1.5544271.693274-1.5544271 1.554427v2.201416c-1.7875051.652852-2.976588 2.353075-2.9765624 4.256071 0 2.502397 2.0285934 4.530989 4.5309895 4.530989 2.5023957 0 4.5309887-2.028592 4.5309887-4.530989.000026-1.902996-1.189057-3.603219-2.976563-4.256071v-2.201416c0-.861153-.693273-1.554427-1.5544257-1.554427z" fill="url(#linearGradient12833)" paint-order="fill markers stroke" data-original="url(#linearGradient12833)"></path><path id="path13311" d="m25.056027 3.704166c-.33746.00475-.670205.1400042-.92139.3911891l-1.286743 1.2851934-1.285192-1.2851934c-.525561-.5255604-1.36089-.5103151-1.871205 0-.516842.5166677-.516842 1.3545362 0 1.8712042l1.833997 1.8339966v1.7316772h-3.223575l-1.833997-1.8339966c-.516667-.5168429-1.354537-.5168429-1.871204 0-.516843.5166666-.516843 1.3545366 0 1.8712036l1.286742 1.2851929-1.286742 1.286743c-.516843.516667-.516843 1.354537 0 1.871204.516667.516843 1.354537.516843 1.871204 0l1.833997-1.836064h1.606103l1.070737 1.070736-1.579232 1.579231h-2.593642c-.7308-.000123-1.323557.592633-1.323432 1.323434-.000125.730803.592629 1.32304 1.323432 1.322916l1.818495-.001v1.820044c-.000125.730803.592629 1.323041 1.323432 1.322916.730803.000125 1.323041-.592115 1.322917-1.322916l-.0016-2.59519 1.579751-1.579749 1.579232 1.579749-.0016 2.59519c-.000124.730801.592114 1.323041 1.322917 1.322916.730803.000125 1.323557-.592113 1.323432-1.322916v-1.820077l1.818495.001c.730803.000124 1.323557-.592113 1.323432-1.322916.000125-.730801-.592632-1.323557-1.323432-1.323434h-2.593642l-1.579232-1.579231 1.070737-1.070736h1.602486l1.833997 1.836064c.516668.516843 1.354537.516843 1.871202 0 .540361-.540359.502372-1.368833 0-1.871204l-1.285192-1.286743 1.285192-1.2851929c.525563-.525561.510315-1.360888 0-1.8712036-.516668-.5168429-1.354534-.5168429-1.871202 0l-1.833899 1.8340296h-3.222027v-1.7316772l1.836066-1.8339966c.516842-.516667.516842-1.3545365 0-1.8712042-.270179-.2701793-.612355-.3959384-.949815-.3911891z" fill="url(#linearGradient13300)" font-variant-ligatures="normal" font-variant-position="normal" font-variant-caps="normal" font-variant-numeric="normal" font-variant-alternates="normal" font-variant-east-asian="normal" font-feature-settings="normal" font-variation-settings="normal" text-indent="0" text-align="start" text-decoration-line="none" text-decoration-style="solid" text-decoration-color="#000000" text-transform="none" text-orientation="mixed" white-space="normal" shape-padding="0" shape-margin="0" inline-size="0" isolation="auto" mix-blend-mode="normal" solid-color="#000000" solid-opacity="1" vector-effect="none" paint-order="fill markers stroke" data-original="url(#linearGradient13300)"></path><g fill="#0352a6"><path id="path6680-6-7" d="m16.018757 10.722858v.26355h.52917v-.26355zm1.3224 0v.26355h.52917v-.26355zm1.32395 0v.26355h.52917v-.26355zm1.3224 0v.26355h.52917v-.26355zm1.3224 0v.26355h.52917v-.26355zm1.32395 0v.26355h.52917v-.26355zm1.3224 0v.26355h.52917v-.26355zm1.3224 0v.26355h.52917v-.26355zm1.32395 0v.26355h.52762v-.26355zm1.22266 0v.26355h.52917v-.26355zm1.32395 0v.26355h.52917v-.26355z" font-variant-ligatures="normal" font-variant-position="normal" font-variant-caps="normal" font-variant-numeric="normal" font-variant-alternates="normal" font-variant-east-asian="normal" font-feature-settings="normal" font-variation-settings="normal" text-indent="0" text-align="start" text-decoration-line="none" text-decoration-style="solid" text-decoration-color="#000000" text-transform="none" text-orientation="mixed" white-space="normal" shape-padding="0" shape-margin="0" inline-size="0" isolation="auto" mix-blend-mode="normal" solid-color="#000000" solid-opacity="1" vector-effect="none" paint-order="markers fill stroke" fill="#0352a6" data-original="#0352a6"></path><path id="path13428" d="m18.861063 17.064551.186358.186358.374179-.374179-.186358-.186358zm.936174-.936174.186358.186358.374179-.374179-.186358-.186358zm.935078-.935078.186358.186358.374179-.374179-.186358-.186358zm.935078-.935078.186358.186358.374179-.374179-.186358-.186358zm.936174-.936174.186358.186358.374179-.374179-.186358-.186358z" font-variant-ligatures="normal" font-variant-position="normal" font-variant-caps="normal" font-variant-numeric="normal" font-variant-alternates="normal" font-variant-east-asian="normal" font-feature-settings="normal" font-variation-settings="normal" text-indent="0" text-align="start" text-decoration-line="none" text-decoration-style="solid" text-decoration-color="#000000" text-transform="none" text-orientation="mixed" white-space="normal" shape-padding="0" shape-margin="0" inline-size="0" isolation="auto" mix-blend-mode="normal" solid-color="#000000" solid-opacity="1" vector-effect="none" paint-order="markers fill stroke" fill="#0352a6" data-original="#0352a6"></path><path id="path13430" d="m26.836081 17.064551-.186358.186358-.374179-.374179.186358-.186358zm-.936174-.936174-.186358.186358-.374179-.374179.186358-.186358zm-.935078-.935078-.186358.186358-.374179-.374179.186358-.186358zm-.935078-.935078-.186358.186358-.374179-.374179.186358-.186358z" font-variant-ligatures="normal" font-variant-position="normal" font-variant-caps="normal" font-variant-numeric="normal" font-variant-alternates="normal" font-variant-east-asian="normal" font-feature-settings="normal" font-variation-settings="normal" text-indent="0" text-align="start" text-decoration-line="none" text-decoration-style="solid" text-decoration-color="#000000" text-transform="none" text-orientation="mixed" white-space="normal" shape-padding="0" shape-margin="0" inline-size="0" isolation="auto" mix-blend-mode="normal" solid-color="#000000" solid-opacity="1" vector-effect="none" paint-order="markers fill stroke" fill="#0352a6" data-original="#0352a6"></path></g></g></g></svg>