<svg xmlns="http://www.w3.org/2000/svg" version="1.1" xmlns:xlink="http://www.w3.org/1999/xlink" xmlns:svgjs="http://svgjs.com/svgjs" width="512" height="512" x="0" y="0" viewBox="0 0 33.866666 33.866668" style="enable-background:new 0 0 512 512" xml:space="preserve" class=""><g><linearGradient xmlns="http://www.w3.org/2000/svg" id="linearGradient2202"><stop id="stop2198" offset="0" stop-color="#f6f600"></stop><stop id="stop2200" offset="1" stop-color="#f69134"></stop></linearGradient><linearGradient xmlns="http://www.w3.org/2000/svg" id="linearGradient3363" gradientUnits="userSpaceOnUse" x1="-180.440378" x2="-180.440378" xmlns:xlink="http://www.w3.org/1999/xlink" xlink:href="#linearGradient2202" y1="97.375304" y2="99.607314"></linearGradient><linearGradient xmlns="http://www.w3.org/2000/svg" id="linearGradient11222" gradientTransform="matrix(.102 .648 -.648 .102 21.879 -9.593)" gradientUnits="userSpaceOnUse" x1="17.661" x2="47.955" xmlns:xlink="http://www.w3.org/1999/xlink" xlink:href="#linearGradient2202" y1="7.21" y2="7.21"></linearGradient><linearGradient xmlns="http://www.w3.org/2000/svg" id="linearGradient11212" gradientTransform="matrix(0 -.498 .498 0 12.235 20.816)" gradientUnits="userSpaceOnUse" x1="6.515" x2="27.351" y1="16.933" y2="16.933"><stop id="stop1881" offset="0" stop-color="#ff5e3f"></stop><stop id="stop1883" offset="1" stop-color="#ffbe3f"></stop></linearGradient><linearGradient xmlns="http://www.w3.org/2000/svg" id="linearGradient12802" gradientUnits="userSpaceOnUse" x1="10.9635" x2="10.9635" y1="1.06" y2="32.846485"><stop id="stop3724" offset="0" stop-color="#f5f8ff"></stop><stop id="stop3726" offset="1" stop-color="#a0c9ff"></stop></linearGradient><linearGradient xmlns="http://www.w3.org/2000/svg" id="linearGradient12833" gradientUnits="userSpaceOnUse" x1="10.92269" x2="10.92269" y1="30.21" y2="7.005275"><stop id="stop940" offset="0" stop-color="#d90947"></stop><stop id="stop942" offset="1" stop-color="#ff585b"></stop></linearGradient><linearGradient xmlns="http://www.w3.org/2000/svg" id="linearGradient6151" gradientUnits="userSpaceOnUse" x1="11.373" x2="11.373" y1="26.135" y2="1.058"><stop id="stop6153" offset="0" stop-color="#cae8ff"></stop><stop id="stop6155" offset="1" stop-color="#f6fbff"></stop></linearGradient><g xmlns="http://www.w3.org/2000/svg" id="layer1"><path id="path11214" d="m14.652562 20.52735c-.672432-.489074-.717046-2.28918-1.205433-2.962111-.488386-.672931-2.186003-1.273341-2.442544-2.064257-.25654-.790904.765447-2.273446.765872-3.104928.000425-.831481-1.020063-2.315049-.762723-3.1057028.257341-.790653 1.955558-1.3893513 2.444632-2.0617824.489073-.672431.535513-2.4724872 1.208444-2.9608861.672918-.4883864 2.398717.025494 3.189633-.2310837.790903-.2565403 1.886523-1.6855329 2.718005-1.685108.831469.0004249 1.925639 1.4305172 2.716293 1.6878573.790653.2573402 2.516964-.2547407 3.189395.234333s.717046 2.2891799 1.205432 2.9620984c.488399.6729309 2.186004 1.2733415 2.442544 2.0642575.256541.7909158-.765446 2.2734588-.765871 3.1049278-.000325.831481 1.020062 2.315061.762722 3.105715-.25734.790653-1.955557 1.389339-2.444631 2.06177s-.535513 2.4725-1.208431 2.960886c-.672931.488386-2.398717-.02549-3.189633.231096-.790916.256541-1.886536 1.685521-2.718018 1.685108-.831469-.000437-1.925639-1.43053-2.716293-1.68787s-2.516964.254754-3.189395-.23432z" fill="url(#linearGradient11222)" paint-order="fill markers stroke" data-original="url(#linearGradient11222)"></path><path id="path11210" d="m20.667276 7.1963081a5.187796 5.187796 0 0 1 5.187799 5.1877989 5.187796 5.187796 0 0 1 -5.187799 5.187799 5.187796 5.187796 0 0 1 -5.187789-5.187799 5.187796 5.187796 0 0 1 5.187789-5.1877989z" fill="url(#linearGradient11212)" stroke-dasharray=".132 .527" stroke-linecap="square" stroke-width=".132" paint-order="fill markers stroke" data-original="url(#linearGradient11212)"></path><path id="path12789" d="m10.946634 1.0583333c-2.0470301 0-3.6948649 1.6478343-3.6948649 3.6948649v14.4978228a7.2760405 7.2760405 0 0 0 -3.5811766 6.267835 7.2760405 7.2760405 0 0 0 7.2760415 7.276041 7.2760405 7.2760405 0 0 0 7.276041-7.276041 7.2760405 7.2760405 0 0 0 -3.581177-6.267835v-14.4978228c0-2.0470306-1.647834-3.6948649-3.694864-3.6948649z" fill="url(#linearGradient12802)" paint-order="fill markers stroke" data-original="url(#linearGradient12802)"></path><path id="path12804" d="m10.946634 3.1998046c-.861152 0-1.5544271.6932745-1.5544271 1.5544271v16.8196453a4.5309895 4.5309895 0 0 0 -2.9765624 4.256071 4.5309895 4.5309895 0 0 0 4.5309895 4.530989 4.5309895 4.5309895 0 0 0 4.530989-4.530989 4.5309895 4.5309895 0 0 0 -2.976563-4.256071v-16.8196453c0-.8611526-.693273-1.5544271-1.554426-1.5544271z" fill="url(#linearGradient6151)" paint-order="fill markers stroke" data-original="url(#linearGradient6151)"></path><path id="path12811" d="m10.946634 6.6393879c-.861152 0-1.5544271.6932745-1.5544271 1.5544271v13.380062c-1.7875051.652852-2.976588 2.353075-2.9765624 4.256071 0 2.502397 2.0285934 4.530989 4.5309895 4.530989 2.502396 0 4.530989-2.028592 4.530989-4.530989.000026-1.902996-1.189057-3.603219-2.976563-4.256071v-13.380062c0-.8611526-.693273-1.5544271-1.554426-1.5544271z" fill="url(#linearGradient12833)" paint-order="fill markers stroke" data-original="url(#linearGradient12833)"></path><path id="path12966" d="m20.537109 5.9394531-.0039.265625.525391.011719.0098-.2636719zm-.779297.064453-.527343.099609.05664.2578125.511719-.095703zm2.121094.048828-.05664.2597656.513672.1191406.0625-.2578125zm-3.427734.28125-.496094.2050781.107422.2402344.480469-.1972657zm4.716797.1113284-.105469.2421875.470703.2226562.121094-.2363281zm-5.927735.4824219-.441406.3046875.15625.2128906.429688-.2949219zm7.109375.1679687-.154297.2148438.414063.3164062.166016-.2050781zm-8.171875.6660157-.367187.3847656.193359.1796875.363282-.3808594zm9.19336.2167968-.197266.1757813.34375.3984375.201172-.171875zm-10.054688.8164063-.28125.4570312.228516.1328125.273437-.4433594zm10.865235.2578125-.226563.1347656.251953.4570312.234375-.1230468zm.574218 1.2207036-.251953.08203.150391.5.255859-.06836zm.304688 1.3125-.263672.0293.04492.521485.263672-.01563zm-.234375 1.320312-.06641.521484.261718.03711.06641-.529297zm-.246094 1.271484-.171875.492188.246094.0957.177734-.507813zm-11.460937.931641-.234375.123047.253906.466797.232422-.128907zm10.960937.257813-.273437.451171.224609.138672.277344-.455078zm-10.267578.835937-.207031.166016.347656.408203.197266-.175782zm9.523438.226563-.355469.378906.1875.185547.367187-.390625zm-8.623047.701171-.167969.205079.427734.326171.154297-.214843zm7.679687.181641-.427734.296875.144531.220703.441406-.304687zm-6.607422.539062-.11914.236329.484375.228515.105468-.242187zm5.503906.13086-.482421.199219.09375.248047.49414-.207032zm-4.302734.347656-.06836.25586.521484.125.05469-.259766zm3.078125.07227-.511719.09766.04102.259766.527344-.09766zm-1.806641.148437-.0098.263672.533203.01367.0039-.263672z" fill="#d02f33" font-variant-ligatures="normal" font-variant-position="normal" font-variant-caps="normal" font-variant-numeric="normal" font-variant-alternates="normal" font-variant-east-asian="normal" font-feature-settings="normal" font-variation-settings="normal" text-indent="0" text-align="start" text-decoration-line="none" text-decoration-style="solid" text-decoration-color="#000000" text-transform="none" text-orientation="mixed" white-space="normal" shape-padding="0" shape-margin="0" inline-size="0" isolation="auto" mix-blend-mode="normal" solid-color="#000000" solid-opacity="1" vector-effect="none" paint-order="fill markers stroke" data-original="#d02f33"></path></g></g></svg>