<svg xmlns="http://www.w3.org/2000/svg" version="1.1" xmlns:xlink="http://www.w3.org/1999/xlink" xmlns:svgjs="http://svgjs.com/svgjs" width="512" height="512" x="0" y="0" viewBox="0 0 33.866666 33.866668" style="enable-background:new 0 0 512 512" xml:space="preserve" class=""><g><linearGradient xmlns="http://www.w3.org/2000/svg" id="linearGradient3363" gradientUnits="userSpaceOnUse" x1="-180.440378" x2="-180.440378" y1="97.375304" y2="99.607314"><stop id="stop2198" offset="0" stop-color="#f6f600"></stop><stop id="stop2200" offset="1" stop-color="#f69134"></stop></linearGradient><linearGradient xmlns="http://www.w3.org/2000/svg" id="linearGradient12294" gradientTransform="matrix(1 0 0 -1 8.132 38.218)" gradientUnits="userSpaceOnUse" x1="8.801" x2="8.67" xmlns:xlink="http://www.w3.org/1999/xlink" xlink:href="#linearGradient4429" y1="5.41" y2="31.307"></linearGradient><linearGradient xmlns="http://www.w3.org/2000/svg" id="linearGradient12296" gradientUnits="userSpaceOnUse" x1="16.81552" x2="16.81552" xmlns:xlink="http://www.w3.org/1999/xlink" xlink:href="#linearGradient4429" y1="1.53235" y2="9.57351"></linearGradient><linearGradient xmlns="http://www.w3.org/2000/svg" id="linearGradient4429"><stop id="stop4425" offset="0" stop-color="#0056ff"></stop><stop id="stop4427" offset="1" stop-color="#0ab0f2"></stop></linearGradient><linearGradient xmlns="http://www.w3.org/2000/svg" id="linearGradient15236" gradientUnits="userSpaceOnUse" x1="16.933" x2="16.802" xmlns:xlink="http://www.w3.org/1999/xlink" xlink:href="#linearGradient4429" y1="1.058" y2="26.955"></linearGradient><linearGradient xmlns="http://www.w3.org/2000/svg" id="linearGradient15238" gradientTransform="matrix(.265 0 0 -.265 8.132 33.869)" gradientUnits="userSpaceOnUse" x1="32.768" x2="32.768" xmlns:xlink="http://www.w3.org/1999/xlink" xlink:href="#linearGradient4429" y1="5.574" y2="36.134"></linearGradient><linearGradient xmlns="http://www.w3.org/2000/svg" id="linearGradient15252" gradientTransform="matrix(0 1 -1 0 38.219 8.131)" gradientUnits="userSpaceOnUse" x1="8.801" x2="8.67" xmlns:xlink="http://www.w3.org/1999/xlink" xlink:href="#linearGradient4429" y1="5.41" y2="31.307"></linearGradient><linearGradient xmlns="http://www.w3.org/2000/svg" id="linearGradient15254" gradientTransform="matrix(0 .265 .265 0 -.002 8.132)" gradientUnits="userSpaceOnUse" x1="32.768" x2="32.768" xmlns:xlink="http://www.w3.org/1999/xlink" xlink:href="#linearGradient4429" y1="5.027" y2="36.134"></linearGradient><linearGradient xmlns="http://www.w3.org/2000/svg" id="linearGradient15256" gradientTransform="matrix(0 1 1 0 -4.352 8.131)" gradientUnits="userSpaceOnUse" x1="8.801" x2="8.67" xmlns:xlink="http://www.w3.org/1999/xlink" xlink:href="#linearGradient4429" y1="5.41" y2="31.307"></linearGradient><linearGradient xmlns="http://www.w3.org/2000/svg" id="linearGradient15258" gradientTransform="matrix(0 .265 -.265 0 33.869 8.132)" gradientUnits="userSpaceOnUse" x1="32.768" x2="32.768" xmlns:xlink="http://www.w3.org/1999/xlink" xlink:href="#linearGradient4429" y1="5.37" y2="36.134"></linearGradient><linearGradient xmlns="http://www.w3.org/2000/svg" id="linearGradient15332" gradientTransform="matrix(0 -1 1 0 0 33.867)" gradientUnits="userSpaceOnUse" x1="12.931" x2="19.414" y1="16.933" y2="16.933"><stop id="stop1972" offset="0" stop-color="#00e031"></stop><stop id="stop1974" offset="1" stop-color="#a7e890"></stop></linearGradient><g xmlns="http://www.w3.org/2000/svg" id="layer1"><path id="path12288" d="m14.949993 2.1205998-4.03696 6.07611c-.53026.79833-.2714 2.1009902.4439 2.5760702 1.00684.72105 2.09839.42497 2.99361-.47025l2.58279-2.5605702 2.58279 2.5605702c.89522.89522 1.98677 1.1913 2.99362.47025.71529-.47508.97415-1.7777402.44389-2.5760702l-4.03696-6.07611c-.964007-1.43613866-3.019167-1.41153985-3.96668 0z" fill="url(#linearGradient12296)" font-variant-ligatures="normal" font-variant-position="normal" font-variant-caps="normal" font-variant-numeric="normal" font-variant-alternates="normal" font-variant-east-asian="normal" font-feature-settings="normal" font-variation-settings="normal" text-indent="0" text-align="start" text-decoration-line="none" text-decoration-style="solid" text-decoration-color="#000000" text-transform="none" text-orientation="mixed" white-space="normal" shape-padding="0" shape-margin="0" inline-size="0" isolation="auto" mix-blend-mode="normal" solid-color="#000000" solid-opacity="1" vector-effect="none" paint-order="markers fill stroke" data-original="url(#linearGradient12296)"></path><path id="path12290" d="m16.932353 15.279688c-1.21739 0-1.85147-1.06603-1.85169-2.38086l-.52917-5.1100882c.00022-1.31482 1.06604-2.38064 2.38086-2.38085 1.31559-.00088 2.3826 1.06527 2.38282 2.38085l-.52917 5.1100882c-.00022 1.31559-.63625 2.38086-1.85365 2.38086z" fill="url(#linearGradient12294)" font-variant-ligatures="normal" font-variant-position="normal" font-variant-caps="normal" font-variant-numeric="normal" font-variant-alternates="normal" font-variant-east-asian="normal" font-feature-settings="normal" font-variation-settings="normal" text-indent="0" text-align="start" text-decoration-line="none" text-decoration-style="solid" text-decoration-color="#000000" text-transform="none" text-orientation="mixed" white-space="normal" shape-padding="0" shape-margin="0" inline-size="0" isolation="auto" mix-blend-mode="normal" solid-color="#000000" solid-opacity="1" vector-effect="none" paint-order="markers fill stroke" data-original="url(#linearGradient12294)"></path><path id="path12292" d="m16.801558 6.9117228v.529166h.26355v-.529166zm0 1.32395v.529167h.26355v-.529167zm0 1.3224v.5291662h.26355v-.5291662zm0 1.3224002v.529166h.26355v-.529166zm0 1.32395v.529166h.26355v-.529166zm0 1.3224v.529166h.26355v-.529166z" fill="#024292" font-variant-ligatures="normal" font-variant-position="normal" font-variant-caps="normal" font-variant-numeric="normal" font-variant-alternates="normal" font-variant-east-asian="normal" font-feature-settings="normal" font-variation-settings="normal" text-indent="0" text-align="start" text-decoration-line="none" text-decoration-style="solid" text-decoration-color="#000000" text-transform="none" text-orientation="mixed" white-space="normal" shape-padding="0" shape-margin="0" inline-size="0" isolation="auto" mix-blend-mode="normal" solid-color="#000000" solid-opacity="1" vector-effect="none" paint-order="markers fill stroke" data-original="#024292"></path><path id="path15230" d="m14.949993 31.745864-4.03696-6.07611c-.53026-.79833-.2714-2.100991.4439-2.576071 1.00684-.72105 2.09839-.42497 2.99361.47025l2.58279 2.560571 2.58279-2.560571c.89522-.89522 1.98677-1.1913 2.99362-.47025.71529.47508.97415 1.777741.44389 2.576071l-4.03696 6.07611c-1.168004 1.444223-2.868825 1.394528-3.96668 0z" fill="url(#linearGradient15238)" font-variant-ligatures="normal" font-variant-position="normal" font-variant-caps="normal" font-variant-numeric="normal" font-variant-alternates="normal" font-variant-east-asian="normal" font-feature-settings="normal" font-variation-settings="normal" text-indent="0" text-align="start" text-decoration-line="none" text-decoration-style="solid" text-decoration-color="#000000" text-transform="none" text-orientation="mixed" white-space="normal" shape-padding="0" shape-margin="0" inline-size="0" isolation="auto" mix-blend-mode="normal" solid-color="#000000" solid-opacity="1" vector-effect="none" paint-order="markers fill stroke" data-original="url(#linearGradient15238)"></path><path id="path15232" d="m16.932353 18.586775c-1.21739 0-1.85147 1.06603-1.85169 2.38086l-.52917 5.110089c.00022 1.31482 1.06604 2.38064 2.38086 2.38085 1.31559.00088 2.3826-1.06527 2.38282-2.38085l-.52917-5.110089c-.00022-1.31559-.63625-2.38086-1.85365-2.38086z" fill="url(#linearGradient15236)" font-variant-ligatures="normal" font-variant-position="normal" font-variant-caps="normal" font-variant-numeric="normal" font-variant-alternates="normal" font-variant-east-asian="normal" font-feature-settings="normal" font-variation-settings="normal" text-indent="0" text-align="start" text-decoration-line="none" text-decoration-style="solid" text-decoration-color="#000000" text-transform="none" text-orientation="mixed" white-space="normal" shape-padding="0" shape-margin="0" inline-size="0" isolation="auto" mix-blend-mode="normal" solid-color="#000000" solid-opacity="1" vector-effect="none" paint-order="markers fill stroke" data-original="url(#linearGradient15236)"></path><path id="path15234" d="m16.801558 26.954741v-.529166h.26355v.529166zm0-1.32395v-.529167h.26355v.529167zm0-1.3224v-.529167h.26355v.529167zm0-1.322401v-.529166h.26355v.529166zm0-1.32395v-.529166h.26355v.529166zm0-1.3224v-.529166h.26355v.529166z" fill="#024292" font-variant-ligatures="normal" font-variant-position="normal" font-variant-caps="normal" font-variant-numeric="normal" font-variant-alternates="normal" font-variant-east-asian="normal" font-feature-settings="normal" font-variation-settings="normal" text-indent="0" text-align="start" text-decoration-line="none" text-decoration-style="solid" text-decoration-color="#000000" text-transform="none" text-orientation="mixed" white-space="normal" shape-padding="0" shape-margin="0" inline-size="0" isolation="auto" mix-blend-mode="normal" solid-color="#000000" solid-opacity="1" vector-effect="none" paint-order="markers fill stroke" data-original="#024292"></path><path id="path15240" d="m31.745965 14.949892-6.07611-4.03696c-.79833-.53026-2.10099-.2714-2.57607.4439-.72105 1.00684-.42497 2.09839.47025 2.99361l2.56057 2.58279-2.56057 2.58279c-.89522.89522-1.1913 1.98677-.47025 2.99362.47508.71529 1.77774.97415 2.57607.44389l6.07611-4.03696c1.335178-.896237 1.50836-2.954175 0-3.96668z" fill="url(#linearGradient15258)" font-variant-ligatures="normal" font-variant-position="normal" font-variant-caps="normal" font-variant-numeric="normal" font-variant-alternates="normal" font-variant-east-asian="normal" font-feature-settings="normal" font-variation-settings="normal" text-indent="0" text-align="start" text-decoration-line="none" text-decoration-style="solid" text-decoration-color="#000000" text-transform="none" text-orientation="mixed" white-space="normal" shape-padding="0" shape-margin="0" inline-size="0" isolation="auto" mix-blend-mode="normal" solid-color="#000000" solid-opacity="1" vector-effect="none" paint-order="markers fill stroke" data-original="url(#linearGradient15258)"></path><path id="path15242" d="m18.586877 16.932252c0-1.21739 1.06603-1.85147 2.38086-1.85169l5.110088-.52917c1.31482.00022 2.38064 1.06604 2.38085 2.38086.00088 1.31559-1.06527 2.3826-2.38085 2.38282l-5.110088-.52917c-1.31559-.00022-2.38086-.63625-2.38086-1.85365z" fill="url(#linearGradient15256)" font-variant-ligatures="normal" font-variant-position="normal" font-variant-caps="normal" font-variant-numeric="normal" font-variant-alternates="normal" font-variant-east-asian="normal" font-feature-settings="normal" font-variation-settings="normal" text-indent="0" text-align="start" text-decoration-line="none" text-decoration-style="solid" text-decoration-color="#000000" text-transform="none" text-orientation="mixed" white-space="normal" shape-padding="0" shape-margin="0" inline-size="0" isolation="auto" mix-blend-mode="normal" solid-color="#000000" solid-opacity="1" vector-effect="none" paint-order="markers fill stroke" data-original="url(#linearGradient15256)"></path><path id="path15244" d="m26.954842 16.801457h-.529166v.26355h.529166zm-1.32395 0h-.529167v.26355h.529167zm-1.3224 0h-.529166v.26355h.529166zm-1.3224 0h-.529166v.26355h.529166zm-1.32395 0h-.529166v.26355h.529166zm-1.3224 0h-.529166v.26355h.529166z" fill="#024292" font-variant-ligatures="normal" font-variant-position="normal" font-variant-caps="normal" font-variant-numeric="normal" font-variant-alternates="normal" font-variant-east-asian="normal" font-feature-settings="normal" font-variation-settings="normal" text-indent="0" text-align="start" text-decoration-line="none" text-decoration-style="solid" text-decoration-color="#000000" text-transform="none" text-orientation="mixed" white-space="normal" shape-padding="0" shape-margin="0" inline-size="0" isolation="auto" mix-blend-mode="normal" solid-color="#000000" solid-opacity="1" vector-effect="none" paint-order="markers fill stroke" data-original="#024292"></path><path id="path15246" d="m2.1207011 14.949892 6.07611-4.03696c.79833-.53026 2.1009909-.2714 2.5760709.4439.72105 1.00684.42497 2.09839-.47025 2.99361l-2.5605709 2.58279 2.5605709 2.58279c.89522.89522 1.1913 1.98677.47025 2.99362-.47508.71529-1.7777409.97415-2.5760709.44389l-6.07611-4.03696c-1.34283026-.901373-1.4988335-2.96057 0-3.96668z" fill="url(#linearGradient15254)" font-variant-ligatures="normal" font-variant-position="normal" font-variant-caps="normal" font-variant-numeric="normal" font-variant-alternates="normal" font-variant-east-asian="normal" font-feature-settings="normal" font-variation-settings="normal" text-indent="0" text-align="start" text-decoration-line="none" text-decoration-style="solid" text-decoration-color="#000000" text-transform="none" text-orientation="mixed" white-space="normal" shape-padding="0" shape-margin="0" inline-size="0" isolation="auto" mix-blend-mode="normal" solid-color="#000000" solid-opacity="1" vector-effect="none" paint-order="markers fill stroke" data-original="url(#linearGradient15254)"></path><path id="path15248" d="m15.27979 16.932252c0-1.21739-1.06603-1.85147-2.38086-1.85169l-5.1100889-.52917c-1.31482.00022-2.38064 1.06604-2.38085 2.38086-.00088 1.31559 1.06527 2.3826 2.38085 2.38282l5.1100889-.52917c1.31559-.00022 2.38086-.63625 2.38086-1.85365z" fill="url(#linearGradient15252)" font-variant-ligatures="normal" font-variant-position="normal" font-variant-caps="normal" font-variant-numeric="normal" font-variant-alternates="normal" font-variant-east-asian="normal" font-feature-settings="normal" font-variation-settings="normal" text-indent="0" text-align="start" text-decoration-line="none" text-decoration-style="solid" text-decoration-color="#000000" text-transform="none" text-orientation="mixed" white-space="normal" shape-padding="0" shape-margin="0" inline-size="0" isolation="auto" mix-blend-mode="normal" solid-color="#000000" solid-opacity="1" vector-effect="none" paint-order="markers fill stroke" data-original="url(#linearGradient15252)"></path><path id="path15250" d="m6.9118241 16.801457h.529166v.26355h-.529166zm1.32395 0h.529167v.26355h-.529167zm1.3224 0h.5291669v.26355h-.5291669zm1.3224009 0h.529166v.26355h-.529166zm1.32395 0h.529166v.26355h-.529166zm1.3224 0h.529166v.26355h-.529166z" fill="#024292" font-variant-ligatures="normal" font-variant-position="normal" font-variant-caps="normal" font-variant-numeric="normal" font-variant-alternates="normal" font-variant-east-asian="normal" font-feature-settings="normal" font-variation-settings="normal" text-indent="0" text-align="start" text-decoration-line="none" text-decoration-style="solid" text-decoration-color="#000000" text-transform="none" text-orientation="mixed" white-space="normal" shape-padding="0" shape-margin="0" inline-size="0" isolation="auto" mix-blend-mode="normal" solid-color="#000000" solid-opacity="1" vector-effect="none" paint-order="markers fill stroke" data-original="#024292"></path><path id="path15260" d="m16.933333 12.931167a4.0021667 4.0021667 0 0 1 4.002167 4.002167 4.0021667 4.0021667 0 0 1 -4.002167 4.002166 4.0021667 4.0021667 0 0 1 -4.002166-4.002166 4.0021667 4.0021667 0 0 1 4.002166-4.002167z" fill="url(#linearGradient15332)" paint-order="markers fill stroke" data-original="url(#linearGradient15332)"></path></g></g></svg>