<svg xmlns="http://www.w3.org/2000/svg" version="1.1" xmlns:xlink="http://www.w3.org/1999/xlink" xmlns:svgjs="http://svgjs.com/svgjs" width="512" height="512" x="0" y="0" viewBox="0 0 33.866666 33.866668" style="enable-background:new 0 0 512 512" xml:space="preserve" class=""><g><linearGradient xmlns="http://www.w3.org/2000/svg" id="linearGradient2202"><stop id="stop2198" offset="0" stop-color="#f6f600"></stop><stop id="stop2200" offset="1" stop-color="#f69134"></stop></linearGradient><linearGradient xmlns="http://www.w3.org/2000/svg" id="linearGradient3363" gradientUnits="userSpaceOnUse" x1="-180.440378" x2="-180.440378" xmlns:xlink="http://www.w3.org/1999/xlink" xlink:href="#linearGradient2202" y1="97.375304" y2="99.607314"></linearGradient><linearGradient xmlns="http://www.w3.org/2000/svg" id="linearGradient3146"><stop id="stop3142" offset="0" stop-color="#0cc8ef"></stop><stop id="stop3144" offset="1" stop-color="#047afa"></stop></linearGradient><linearGradient xmlns="http://www.w3.org/2000/svg" id="linearGradient3728"><stop id="stop3724" offset="0" stop-color="#f5f8ff"></stop><stop id="stop3726" offset="1" stop-color="#a0c9ff"></stop></linearGradient><linearGradient xmlns="http://www.w3.org/2000/svg" id="linearGradient7074" gradientTransform="matrix(0 1 -1 0 7.607 0)" gradientUnits="userSpaceOnUse" x1="1.058" x2="6.548" xmlns:xlink="http://www.w3.org/1999/xlink" xlink:href="#linearGradient3146" y1="3.803" y2="3.803"></linearGradient><linearGradient xmlns="http://www.w3.org/2000/svg" id="linearGradient7082" gradientUnits="userSpaceOnUse" x1="3.704" x2="3.704" xmlns:xlink="http://www.w3.org/1999/xlink" xlink:href="#linearGradient3728" y1="34.396" y2="2.381"></linearGradient><linearGradient xmlns="http://www.w3.org/2000/svg" id="linearGradient7095" gradientUnits="userSpaceOnUse" x1="21.903" x2="21.669" xmlns:xlink="http://www.w3.org/1999/xlink" xlink:href="#linearGradient2202" y1="8.246" y2="21.05"></linearGradient><linearGradient xmlns="http://www.w3.org/2000/svg" id="linearGradient7109" gradientUnits="userSpaceOnUse" x1="83.119" x2="82.059" y1="76.266" y2="30.127"><stop id="stop1881" offset="0" stop-color="#ff5e3f"></stop><stop id="stop1883" offset="1" stop-color="#ffbe3f"></stop></linearGradient><linearGradient xmlns="http://www.w3.org/2000/svg" id="linearGradient7117" gradientUnits="userSpaceOnUse" x1="10.716" x2="10.716" xmlns:xlink="http://www.w3.org/1999/xlink" xlink:href="#linearGradient3146" y1="7.541" y2="21.786"></linearGradient><linearGradient xmlns="http://www.w3.org/2000/svg" id="linearGradient7121" gradientTransform="matrix(-2.673 2.673 -2.673 -2.673 64.314 49.997)" gradientUnits="userSpaceOnUse" x1="4.62" x2="3.44" xmlns:xlink="http://www.w3.org/1999/xlink" xlink:href="#linearGradient3728" y1="14.066" y2="2.778"></linearGradient><linearGradient xmlns="http://www.w3.org/2000/svg" id="linearGradient7125" gradientTransform="matrix(-2.673 -2.673 -2.673 2.673 64.314 62.371)" gradientUnits="userSpaceOnUse" x1="4.333" x2="3.704" xmlns:xlink="http://www.w3.org/1999/xlink" xlink:href="#linearGradient3728" y1="15.114" y2="2.381"></linearGradient><g xmlns="http://www.w3.org/2000/svg" id="layer1" stroke-linecap="square"><path id="path7123" d="m40.273438 71.059727c-1.437858 0-2.876755.550583-3.978516 1.652344l-21.798828 21.798828v15.910151l29.753906-29.753901c2.203521-2.203521 2.203521-5.751557 0-7.955078-1.101761-1.101761-2.538705-1.652344-3.976562-1.652344z" fill="url(#linearGradient7125)" stroke-dasharray="1 4" transform="scale(.265)" paint-order="fill markers stroke" data-original="url(#linearGradient7125)"></path><path id="path7119" d="m14.496094 12.552734v15.910157l21.798828 21.798828c2.20352 2.203521 5.751557 2.203521 7.955078 0 2.203521-2.203522 2.203521-5.751557 0-7.955078z" fill="url(#linearGradient7121)" stroke-dasharray="1 4" transform="scale(.265)" paint-order="fill markers stroke" data-original="url(#linearGradient7121)"></path><g stroke-dasharray=".265 1.058" stroke-width=".265"><path id="path7087" d="m13.030729 9.2934895s6.779949-3.7372405 10.847917.7937495c2.721506 3.031272 5.80293 3.224103 7.536887 2.964399.911764-.136559 1.392803.367572 1.392803.987815v6.300711c0 1.141407-.515587 1.469849-1.300742 1.923978-1.52042.748364-4.150443 1.575925-6.669833.121354-6.724769-3.882549-11.740886.826823-11.740886.826823z" fill="url(#linearGradient7095)" paint-order="fill markers stroke" data-original="url(#linearGradient7095)"></path><path id="rect7065" d="m3.8033846 3.7041659c.8245077 0 1.4882811.6637734 1.4882811 1.4882812v26.1276059c0 .824507-.6637734 1.488281-1.4882811 1.488281-.8245078 0-1.4882812-.663774-1.4882812-1.488281v-26.1276059c0-.8245078.6637734-1.4882812 1.4882812-1.4882812z" fill="url(#linearGradient7082)" paint-order="fill markers stroke" data-original="url(#linearGradient7082)"></path><path id="path7062" d="m3.8033846 6.5484374a2.7450523 2.7450523 0 0 1 -2.7450524-2.7450524 2.7450523 2.7450523 0 0 1 2.7450524-2.7450523 2.7450523 2.7450523 0 0 1 2.7450523 2.7450523 2.7450523 2.7450523 0 0 1 -2.7450523 2.7450524z" fill="url(#linearGradient7074)" paint-order="fill markers stroke" data-original="url(#linearGradient7074)"></path><path id="rect7084" d="m10.715624 7.5406251h1.852083c.732896 0 1.322917.5900208 1.322917 1.3229166v14.7125793c0 .732896-.590021 1.322917-1.322917 1.322917h-1.852083c-.7328957 0-1.3229167-.590021-1.3229167-1.322917v-14.7125793c0-.7328958.590021-1.3229166 1.3229167-1.3229166z" fill="url(#linearGradient7117)" paint-order="fill markers stroke" data-original="url(#linearGradient7117)"></path></g><path id="rect7097" d="m73.75 29.826172v48.991368c5.968277.02752 12.773816 1.544852 20.125 5.789062.914169.527796 1.832204.953384 2.75 1.330078v-42.106602c-2.14501-1.516553-4.288088-3.380631-6.375-5.705078-4.854674-5.40724-10.730845-7.694359-16.5-8.298828z" fill="url(#linearGradient7109)" stroke-dasharray="1 4" transform="scale(.265)" paint-order="fill markers stroke" data-original="url(#linearGradient7109)"></path></g></g></svg>